ArgentumSans-Regular.ufo
<glyph name="exclam" format="2">
  <advance width="420"/>
  <unicode hex="0021"/>
  <outline>
    <component base="period"/>
    <contour>
      <point x="130" y="1038" type="line"/>
      <point x="168" y="440" type="line"/>
      <point x="312" y="440" type="line"/>
      <point x="350" y="1038" type="line"/>
      <point x="350" y="1400" type="line"/>
      <point x="130" y="1400" type="line"/>
    </contour>
  </outline>
</glyph>
<glyph name="numbersign" format="2">
  <advance width="725"/>
  <unicode hex="0023"/>
  <outline>
    <contour>
      <point x="27" y="176" type="line"/>
      <point x="656" y="176" type="line"/>
      <point x="664" y="257" type="line"/>
      <point x="35" y="257" type="line"/>
    </contour>
    <contour>
      <point x="60" y="437" type="line"/>
      <point x="689" y="437" type="line"/>
      <point x="696" y="518" type="line"/>
      <point x="68" y="518" type="line"/>
    </contour>
    <contour>
      <point x="146" y="0" type="line"/>
      <point x="230" y="0" type="line"/>
      <point x="317" y="700" type="line"/>
      <point x="232" y="700" type="line"/>
    </contour>
    <contour>
      <point x="408" y="0" type="line"/>
      <point x="492" y="0" type="line"/>
      <point x="579" y="700" type="line"/>
      <point x="494" y="700" type="line"/>
    </contour>
  </outline>
</glyph>
<glyph name="dollar" format="2">
  <advance width="1244"/>
  <unicode hex="0024"/>
  <outline>
    <component base="S"/>
    <contour>
      <point x="550" y="1266" type="line"/>
      <point x="726" y="1266" type="line"/>
      <point x="726" y="1662" type="line"/>
      <point x="550" y="1662" type="line"/>
    </contour>
    <contour>
      <point x="550" y="-280" type="line"/>
      <point x="726" y="-280" type="line"/>
      <point x="726" y="142" type="line"/>
      <point x="550" y="142" type="line"/>
    </contour>
  </outline>
</glyph>
<glyph name="ampersand" format="2">
  <advance width="663"/>
  <unicode hex="0026"/>
  <outline>
    <contour>
      <point x="540" y="339" type="line"/>
      <point x="482" y="180"/>
      <point x="385" y="78"/>
      <point x="281" y="78" type="curve" smooth="yes"/>
      <point x="209" y="78"/>
      <point x="152" y="127"/>
      <point x="152" y="199" type="curve" smooth="yes"/>
      <point x="152" y="360"/>
      <point x="500" y="363"/>
      <point x="500" y="559" type="curve" smooth="yes"/>
      <point x="500" y="644"/>
      <point x="428" y="705"/>
      <point x="323" y="705" type="curve" smooth="yes"/>
      <point x="214" y="705"/>
      <point x="141" y="640"/>
      <point x="141" y="548" type="curve" smooth="yes"/>
      <point x="141" y="419"/>
      <point x="279" y="293"/>
      <point x="597" y="-18" type="curve"/>
      <point x="656" y="39" type="line"/>
      <point x="366" y="319"/>
      <point x="232" y="445"/>
      <point x="232" y="549" type="curve" smooth="yes"/>
      <point x="232" y="598"/>
      <point x="268" y="637"/>
      <point x="324" y="637" type="curve" smooth="yes"/>
      <point x="376" y="637"/>
      <point x="409" y="605"/>
      <point x="409" y="558" type="curve" smooth="yes"/>
      <point x="409" y="404"/>
      <point x="57" y="408"/>
      <point x="57" y="191" type="curve" smooth="yes"/>
      <point x="57" y="78"/>
      <point x="152" y="-5"/>
      <point x="277" y="-5" type="curve" smooth="yes"/>
      <point x="417" y="-5"/>
      <point x="541" y="107"/>
      <point x="615" y="286" type="curve"/>
    </contour>
  </outline>
</glyph>
<glyph name="quotesingle" format="2">
  <advance width="208"/>
  <unicode hex="0027"/>
  <outline>
    <contour>
      <point x="60" y="458" type="line"/>
      <point x="148" y="458" type="line"/>
      <point x="148" y="700" type="line"/>
      <point x="60" y="700" type="line"/>
    </contour>
  </outline>
</glyph>
<glyph name="parenleft" format="2">
  <advance width="312"/>
  <unicode hex="0028"/>
  <outline>
    <contour>
      <point x="192" y="742" type="line"/>
      <point x="113" y="628"/>
      <point x="70" y="475"/>
      <point x="70" y="309" type="curve" smooth="yes"/>
      <point x="70" y="143"/>
      <point x="113" y="-10"/>
      <point x="192" y="-124" type="curve"/>
      <point x="296" y="-124" type="line"/>
      <point x="223" y="-10"/>
      <point x="178" y="143"/>
      <point x="178" y="309" type="curve" smooth="yes"/>
      <point x="178" y="475"/>
      <point x="223" y="628"/>
      <point x="296" y="742" type="curve"/>
    </contour>
  </outline>
</glyph>
<glyph name="asterisk" format="2">
  <advance width="348"/>
  <unicode hex="002A"/>
  <outline>
    <contour>
      <point x="145" y="617" type="line"/>
      <point x="56" y="671" type="line"/>
      <point x="25" y="617" type="line"/>
      <point x="115" y="566" type="line"/>
      <point x="25" y="515" type="line"/>
      <point x="56" y="463" type="line"/>
      <point x="145" y="516" type="line"/>
      <point x="144" y="412" type="line"/>
      <point x="204" y="412" type="line"/>
      <point x="203" y="515" type="line"/>
      <point x="292" y="462" type="line"/>
      <point x="322" y="515" type="line"/>
      <point x="232" y="566" type="line"/>
      <point x="322" y="617" type="line"/>
      <point x="292" y="670" type="line"/>
      <point x="203" y="617" type="line"/>
      <point x="204" y="721" type="line"/>
      <point x="144" y="721" type="line"/>
    </contour>
  </outline>
</glyph>
<glyph name="plus" format="2">
  <advance width="498"/>
  <unicode hex="002B"/>
  <outline>
    <contour>
      <point x="35" y="286" type="line"/>
      <point x="463" y="286" type="line"/>
      <point x="463" y="362" type="line"/>
      <point x="35" y="362" type="line"/>
    </contour>
    <contour>
      <point x="212" y="110" type="line"/>
      <point x="287" y="110" type="line"/>
      <point x="287" y="538" type="line"/>
      <point x="212" y="538" type="line"/>
    </contour>
  </outline>
</glyph>
<glyph name="comma" format="2">
  <advance width="270"/>
  <unicode hex="002C"/>
  <outline>
    <contour>
      <point x="120" y="46" type="line"/>
      <point x="64" y="-110" type="line"/>
      <point x="123" y="-110" type="line"/>
      <point x="180" y="4" type="line" smooth="yes"/>
      <point x="188" y="20"/>
      <point x="197" y="35"/>
      <point x="197" y="54" type="curve" smooth="yes"/>
      <point x="197" y="93"/>
      <point x="168" y="115"/>
      <point x="136" y="115" type="curve" smooth="yes"/>
      <point x="100" y="115"/>
      <point x="74" y="90"/>
      <point x="74" y="54" type="curve" smooth="yes"/>
      <point x="74" y="21"/>
      <point x="97" y="-7"/>
      <point x="147" y="-7" type="curve"/>
    </contour>
  </outline>
</glyph>
<glyph name="hyphen" format="2">
  <advance width="368"/>
  <unicode hex="002D"/>
  <outline>
    <contour>
      <point x="61" y="266" type="line"/>
      <point x="307" y="266" type="line"/>
      <point x="307" y="342" type="line"/>
      <point x="61" y="342" type="line"/>
    </contour>
  </outline>
</glyph>
<glyph name="period" format="2">
  <advance width="270"/>
  <unicode hex="002E"/>
  <outline>
    <contour>
      <point x="136" y="118" type="curve" smooth="yes"/>
      <point x="100" y="118"/>
      <point x="73" y="92"/>
      <point x="73" y="55" type="curve" smooth="yes"/>
      <point x="73" y="18"/>
      <point x="100" y="-9"/>
      <point x="136" y="-9" type="curve" smooth="yes"/>
      <point x="172" y="-9"/>
      <point x="199" y="18"/>
      <point x="199" y="55" type="curve" smooth="yes"/>
      <point x="199" y="92"/>
      <point x="172" y="118"/>
    </contour>
  </outline>
</glyph>
<glyph name="slash" format="2">
  <advance width="662"/>
  <unicode hex="002F"/>
  <outline>
    <contour>
      <point x="-42" y="-236" type="line"/>
      <point x="154" y="-236" type="line"/>
      <point x="788" y="1634" type="line"/>
      <point x="592" y="1634" type="line"/>
    </contour>
  </outline>
</glyph>
<glyph name="zero" format="2">
  <advance width="707"/>
  <unicode hex="0030"/>
  <outline>
    <contour>
      <point x="355" y="705" type="curve" smooth="yes"/>
      <point x="163" y="705"/>
      <point x="57" y="578"/>
      <point x="57" y="350" type="curve" smooth="yes"/>
      <point x="57" y="122"/>
      <point x="163" y="-5"/>
      <point x="355" y="-5" type="curve" smooth="yes"/>
      <point x="546" y="-5"/>
      <point x="652" y="122"/>
      <point x="652" y="350" type="curve" smooth="yes"/>
      <point x="652" y="578"/>
      <point x="546" y="705"/>
    </contour>
    <contour>
      <point x="355" y="617" type="curve" smooth="yes"/>
      <point x="472" y="617"/>
      <point x="531" y="531"/>
      <point x="531" y="350" type="curve" smooth="yes"/>
      <point x="531" y="170"/>
      <point x="472" y="83"/>
      <point x="355" y="83" type="curve" smooth="yes"/>
      <point x="237" y="83"/>
      <point x="178" y="170"/>
      <point x="178" y="350" type="curve" smooth="yes"/>
      <point x="178" y="531"/>
      <point x="237" y="617"/>
    </contour>
  </outline>
</glyph>
<glyph name="one" format="2">
  <advance width="406"/>
  <unicode hex="0031"/>
  <outline>
    <contour>
      <point x="21" y="600" type="line"/>
      <point x="224" y="600" type="line"/>
      <point x="172" y="652" type="line"/>
      <point x="172" y="0" type="line"/>
      <point x="290" y="0" type="line"/>
      <point x="290" y="700" type="line"/>
      <point x="21" y="700" type="line"/>
    </contour>
  </outline>
</glyph>
<glyph name="two" format="2">
  <advance width="1268"/>
  <unicode hex="0032"/>
  <outline>
    <contour>
      <point x="126" y="166" type="line"/>
      <point x="126" y="0" type="line"/>
      <point x="1190" y="0" type="line"/>
      <point x="1190" y="186" type="line"/>
      <point x="314" y="186" type="line"/>
      <point x="344" y="112" type="line"/>
      <point x="844" y="602" type="line" smooth="yes"/>
      <point x="904" y="661"/>
      <point x="1004" y="781"/>
      <point x="1076" y="898"/>
      <point x="1116" y="1012"/>
      <point x="1116" y="1064" type="qcurve" smooth="yes"/>
      <point x="1116" y="1144"/>
      <point x="1047" y="1273"/>
      <point x="921" y="1364"/>
      <point x="746" y="1414"/>
      <point x="640" y="1414" type="qcurve" smooth="yes"/>
      <point x="569" y="1414"/>
      <point x="427" y="1386"/>
      <point x="291" y="1335"/>
      <point x="161" y="1261"/>
      <point x="102" y="1214" type="qcurve"/>
      <point x="196" y="1046" type="line"/>
      <point x="243" y="1087"/>
      <point x="347" y="1151"/>
      <point x="453" y="1196"/>
      <point x="559" y="1220"/>
      <point x="608" y="1220" type="qcurve" smooth="yes"/>
      <point x="669" y="1220"/>
      <point x="766" y="1194"/>
      <point x="834" y="1146"/>
      <point x="870" y="1076"/>
      <point x="870" y="1032" type="qcurve" smooth="yes"/>
      <point x="870" y="1001"/>
      <point x="843" y="928"/>
      <point x="793" y="847"/>
      <point x="724" y="763"/>
      <point x="682" y="722" type="qcurve" smooth="yes"/>
    </contour>
  </outline>
</glyph>
<glyph name="three" format="2">
  <advance width="634"/>
  <unicode hex="0033"/>
  <outline>
    <contour>
      <point x="267" y="412" type="line"/>
      <point x="282" y="372" type="line"/>
      <point x="544" y="630" type="line"/>
      <point x="544" y="700" type="line"/>
      <point x="84" y="700" type="line"/>
      <point x="85" y="600" type="line"/>
      <point x="449" y="600" type="line"/>
      <point x="433" y="640" type="line"/>
      <point x="192" y="403" type="line"/>
      <point x="192" y="333" type="line"/>
      <point x="294" y="333" type="line" smooth="yes"/>
      <point x="401" y="333"/>
      <point x="464" y="293"/>
      <point x="464" y="214" type="curve" smooth="yes"/>
      <point x="464" y="139"/>
      <point x="402" y="89"/>
      <point x="296" y="89" type="curve" smooth="yes"/>
      <point x="225" y="89"/>
      <point x="154" y="115"/>
      <point x="99" y="160" type="curve"/>
      <point x="50" y="70" type="line"/>
      <point x="114" y="25"/>
      <point x="211" y="-5"/>
      <point x="304" y="-5" type="curve" smooth="yes"/>
      <point x="473" y="-5"/>
      <point x="579" y="86"/>
      <point x="579" y="217" type="curve" smooth="yes"/>
      <point x="579" y="328"/>
      <point x="491" y="395"/>
      <point x="360" y="405" type="curve" smooth="yes"/>
    </contour>
  </outline>
</glyph>
<glyph name="four" format="2">
  <advance width="597"/>
  <unicode hex="0034"/>
  <outline>
    <contour>
      <point x="576" y="174" type="line"/>
      <point x="576" y="274" type="line"/>
      <point x="96" y="274" type="line"/>
      <point x="123" y="231" type="line"/>
      <point x="373" y="700" type="line"/>
      <point x="259" y="700" type="line"/>
      <point x="21" y="258" type="line"/>
      <point x="21" y="174" type="line"/>
    </contour>
    <contour>
      <point x="362" y="0" type="line"/>
      <point x="472" y="0" type="line"/>
      <point x="472" y="444" type="line"/>
      <point x="362" y="444" type="line"/>
    </contour>
  </outline>
</glyph>
<glyph name="five" format="2">
  <advance width="618"/>
  <unicode hex="0035"/>
  <outline>
    <contour>
      <point x="212" y="652" type="line"/>
      <point x="159" y="600" type="line"/>
      <point x="546" y="600" type="line"/>
      <point x="546" y="700" type="line"/>
      <point x="102" y="700" type="line"/>
      <point x="102" y="333" type="line"/>
      <point x="152" y="339"/>
      <point x="254" y="343"/>
      <point x="286" y="343" type="curve" smooth="yes"/>
      <point x="396" y="343"/>
      <point x="450" y="297"/>
      <point x="450" y="222" type="curve" smooth="yes"/>
      <point x="450" y="143"/>
      <point x="390" y="93"/>
      <point x="295" y="93" type="curve" smooth="yes"/>
      <point x="226" y="93"/>
      <point x="154" y="119"/>
      <point x="95" y="165" type="curve"/>
      <point x="47" y="75" type="line"/>
      <point x="119" y="27"/>
      <point x="220" y="-5"/>
      <point x="306" y="-5" type="curve" smooth="yes"/>
      <point x="470" y="-5"/>
      <point x="576" y="88"/>
      <point x="576" y="230" type="curve" smooth="yes"/>
      <point x="576" y="352"/>
      <point x="474" y="443"/>
      <point x="315" y="443" type="curve" smooth="yes"/>
      <point x="279" y="443"/>
      <point x="209" y="443"/>
      <point x="186" y="441" type="curve"/>
      <point x="212" y="390" type="line"/>
    </contour>
  </outline>
</glyph>
<glyph name="six" format="2">
  <advance width="670"/>
  <unicode hex="0036"/>
  <outline>
    <contour>
      <point x="580" y="652" type="line"/>
      <point x="523" y="684"/>
      <point x="440" y="705"/>
      <point x="371" y="705" type="curve" smooth="yes"/>
      <point x="186" y="705"/>
      <point x="69" y="559"/>
      <point x="69" y="335" type="curve" smooth="yes"/>
      <point x="69" y="121"/>
      <point x="177" y="-5"/>
      <point x="354" y="-5" type="curve" smooth="yes"/>
      <point x="503" y="-5"/>
      <point x="601" y="85"/>
      <point x="601" y="229" type="curve" smooth="yes"/>
      <point x="601" y="365"/>
      <point x="515" y="452"/>
      <point x="375" y="452" type="curve" smooth="yes"/>
      <point x="287" y="452"/>
      <point x="221" y="417"/>
      <point x="184" y="349" type="curve"/>
      <point x="179" y="506"/>
      <point x="243" y="612"/>
      <point x="379" y="612" type="curve" smooth="yes"/>
      <point x="432" y="612"/>
      <point x="491" y="596"/>
      <point x="534" y="568" type="curve"/>
    </contour>
    <contour>
      <point x="353" y="364" type="curve" smooth="yes"/>
      <point x="438" y="364"/>
      <point x="491" y="312"/>
      <point x="491" y="230" type="curve" smooth="yes"/>
      <point x="491" y="143"/>
      <point x="433" y="91"/>
      <point x="348" y="91" type="curve" smooth="yes"/>
      <point x="247" y="91"/>
      <point x="202" y="163"/>
      <point x="203" y="225" type="curve"/>
      <point x="202" y="299"/>
      <point x="258" y="364"/>
    </contour>
  </outline>
</glyph>
<glyph name="seven" format="2">
  <advance width="605"/>
  <unicode hex="0037"/>
  <outline>
    <contour>
      <point x="25" y="501" type="line"/>
      <point x="130" y="501" type="line"/>
      <point x="132" y="651" type="line"/>
      <point x="79" y="600" type="line"/>
      <point x="479" y="600" type="line"/>
      <point x="449" y="646" type="line"/>
      <point x="138" y="0" type="line"/>
      <point x="263" y="0" type="line"/>
      <point x="558" y="615" type="line"/>
      <point x="558" y="700" type="line"/>
      <point x="25" y="700" type="line"/>
    </contour>
  </outline>
</glyph>
<glyph name="eight" format="2">
  <advance width="634"/>
  <unicode hex="0038"/>
  <outline>
    <contour>
      <point x="316" y="705" type="curve" smooth="yes"/>
      <point x="174" y="705"/>
      <point x="84" y="637"/>
      <point x="84" y="528" type="curve" smooth="yes"/>
      <point x="84" y="459"/>
      <point x="125" y="404"/>
      <point x="192" y="374" type="curve"/>
      <point x="105" y="345"/>
      <point x="50" y="280"/>
      <point x="50" y="194" type="curve" smooth="yes"/>
      <point x="50" y="71"/>
      <point x="153" y="-5"/>
      <point x="317" y="-5" type="curve" smooth="yes"/>
      <point x="481" y="-5"/>
      <point x="584" y="72"/>
      <point x="584" y="196" type="curve" smooth="yes"/>
      <point x="584" y="281"/>
      <point x="531" y="345"/>
      <point x="447" y="374" type="curve"/>
      <point x="510" y="402"/>
      <point x="549" y="456"/>
      <point x="549" y="524" type="curve" smooth="yes"/>
      <point x="549" y="636"/>
      <point x="460" y="705"/>
    </contour>
    <contour>
      <point x="316" y="325" type="curve" smooth="yes"/>
      <point x="415" y="325"/>
      <point x="473" y="280"/>
      <point x="473" y="205" type="curve" smooth="yes"/>
      <point x="473" y="128"/>
      <point x="415" y="83"/>
      <point x="317" y="83" type="curve" smooth="yes"/>
      <point x="218" y="83"/>
      <point x="161" y="128"/>
      <point x="161" y="206" type="curve" smooth="yes"/>
      <point x="161" y="281"/>
      <point x="218" y="325"/>
    </contour>
    <contour>
      <point x="317" y="624" type="curve" smooth="yes"/>
      <point x="401" y="624"/>
      <point x="449" y="585"/>
      <point x="449" y="518" type="curve" smooth="yes"/>
      <point x="449" y="451"/>
      <point x="401" y="412"/>
      <point x="317" y="412" type="curve" smooth="yes"/>
      <point x="233" y="412"/>
      <point x="184" y="451"/>
      <point x="184" y="518" type="curve" smooth="yes"/>
      <point x="184" y="585"/>
      <point x="233" y="624"/>
    </contour>
  </outline>
</glyph>
<glyph name="nine" format="2">
  <advance width="670"/>
  <unicode hex="0039"/>
  <outline>
    <contour>
      <point x="89" y="48" type="line"/>
      <point x="146" y="16"/>
      <point x="228" y="-5"/>
      <point x="297" y="-5" type="curve" smooth="yes"/>
      <point x="481" y="-5"/>
      <point x="598" y="141"/>
      <point x="598" y="365" type="curve" smooth="yes"/>
      <point x="598" y="579"/>
      <point x="490" y="705"/>
      <point x="314" y="705" type="curve" smooth="yes"/>
      <point x="166" y="705"/>
      <point x="69" y="615"/>
      <point x="69" y="471" type="curve" smooth="yes"/>
      <point x="69" y="335"/>
      <point x="154" y="248"/>
      <point x="293" y="248" type="curve" smooth="yes"/>
      <point x="381" y="248"/>
      <point x="446" y="283"/>
      <point x="483" y="351" type="curve"/>
      <point x="487" y="194"/>
      <point x="424" y="88"/>
      <point x="289" y="88" type="curve" smooth="yes"/>
      <point x="236" y="88"/>
      <point x="178" y="104"/>
      <point x="135" y="132" type="curve"/>
    </contour>
    <contour>
      <point x="320" y="609" type="curve" smooth="yes"/>
      <point x="421" y="609"/>
      <point x="465" y="537"/>
      <point x="464" y="475" type="curve"/>
      <point x="465" y="401"/>
      <point x="410" y="336"/>
      <point x="315" y="336" type="curve" smooth="yes"/>
      <point x="231" y="336"/>
      <point x="179" y="388"/>
      <point x="179" y="470" type="curve" smooth="yes"/>
      <point x="179" y="557"/>
      <point x="236" y="609"/>
    </contour>
  </outline>
</glyph>
<glyph name="less" format="2">
  <advance width="498"/>
  <unicode hex="003C"/>
  <outline>
    <contour>
      <point x="35" y="374" type="line"/>
      <point x="35" y="278" type="line"/>
      <point x="463" y="92" type="line"/>
      <point x="463" y="176" type="line"/>
      <point x="112" y="326" type="line"/>
      <point x="463" y="475" type="line"/>
      <point x="463" y="559" type="line"/>
    </contour>
  </outline>
</glyph>
<glyph name="equal" format="2">
  <advance width="498"/>
  <unicode hex="003D"/>
  <outline>
    <contour>
      <point x="35" y="391" type="line"/>
      <point x="463" y="391" type="line"/>
      <point x="463" y="466" type="line"/>
      <point x="35" y="466" type="line"/>
    </contour>
    <contour>
      <point x="35" y="182" type="line"/>
      <point x="463" y="182" type="line"/>
      <point x="463" y="257" type="line"/>
      <point x="35" y="257" type="line"/>
    </contour>
  </outline>
</glyph>
<glyph name="greater" format="2">
  <advance width="996"/>
  <unicode hex="003E"/>
  <outline>
    <contour>
      <point x="926" y="554" type="line"/>
      <point x="926" y="746" type="line"/>
      <point x="70" y="1118" type="line"/>
      <point x="70" y="950" type="line"/>
      <point x="772" y="650" type="line"/>
      <point x="70" y="352" type="line"/>
      <point x="70" y="184" type="line"/>
    </contour>
  </outline>
</glyph>
<glyph name="question" format="2">
  <advance width="886"/>
  <unicode hex="003F"/>
  <outline>
    <contour>
      <point x="230" y="1010" type="line"/>
      <point x="234" y="1044"/>
      <point x="240" y="1074"/>
      <point x="249" y="1100" type="curve" smooth="yes"/>
      <point x="258" y="1125"/>
      <point x="270" y="1146"/>
      <point x="286" y="1163" type="curve" smooth="yes"/>
      <point x="302" y="1180"/>
      <point x="322" y="1193"/>
      <point x="345" y="1202" type="curve" smooth="yes"/>
      <point x="369" y="1211"/>
      <point x="397" y="1216"/>
      <point x="429" y="1216" type="curve" smooth="yes"/>
      <point x="457" y="1216"/>
      <point x="483" y="1212"/>
      <point x="506" y="1205" type="curve" smooth="yes"/>
      <point x="528" y="1198"/>
      <point x="547" y="1188"/>
      <point x="564" y="1176" type="curve" smooth="yes"/>
      <point x="588" y="1159"/>
      <point x="606" y="1137"/>
      <point x="618" y="1111" type="curve" smooth="yes"/>
      <point x="629" y="1088"/>
      <point x="634" y="1062"/>
      <point x="634" y="1035" type="curve" smooth="yes"/>
      <point x="634" y="995"/>
      <point x="629" y="957"/>
      <point x="617" y="924" type="curve"/>
      <point x="612" y="907"/>
      <point x="605" y="892"/>
      <point x="596" y="878" type="curve"/>
      <point x="587" y="863"/>
      <point x="576" y="850"/>
      <point x="564" y="839" type="curve" smooth="yes"/>
      <point x="547" y="823"/>
      <point x="525" y="809"/>
      <point x="500" y="799" type="curve" smooth="yes"/>
      <point x="472" y="788"/>
      <point x="440" y="782"/>
      <point x="403" y="782" type="curve" smooth="yes"/>
      <point x="345" y="782" type="line"/>
      <point x="345" y="440" type="line"/>
      <point x="522" y="440" type="line"/>
      <point x="522" y="638" type="line"/>
      <point x="555" y="638"/>
      <point x="586" y="644"/>
      <point x="616" y="655" type="curve" smooth="yes"/>
      <point x="649" y="668"/>
      <point x="680" y="687"/>
      <point x="708" y="712" type="curve" smooth="yes"/>
      <point x="727" y="729"/>
      <point x="744" y="748"/>
      <point x="759" y="770" type="curve" smooth="yes"/>
      <point x="776" y="794"/>
      <point x="790" y="820"/>
      <point x="802" y="848" type="curve" smooth="yes"/>
      <point x="824" y="902"/>
      <point x="837" y="963"/>
      <point x="837" y="1029" type="curve" smooth="yes"/>
      <point x="837" y="1083"/>
      <point x="825" y="1135"/>
      <point x="803" y="1182" type="curve" smooth="yes"/>
      <point x="778" y="1235"/>
      <point x="741" y="1281"/>
      <point x="692" y="1318" type="curve" smooth="yes"/>
      <point x="659" y="1343"/>
      <point x="620" y="1363"/>
      <point x="578" y="1377" type="curve" smooth="yes"/>
      <point x="535" y="1391"/>
      <point x="489" y="1399"/>
      <point x="438" y="1399" type="curve" smooth="yes"/>
      <point x="376" y="1399"/>
      <point x="321" y="1390"/>
      <point x="272" y="1372" type="curve" smooth="yes"/>
      <point x="226" y="1355"/>
      <point x="186" y="1330"/>
      <point x="153" y="1298" type="curve" smooth="yes"/>
      <point x="121" y="1266"/>
      <point x="95" y="1228"/>
      <point x="76" y="1182" type="curve" smooth="yes"/>
      <point x="56" y="1133"/>
      <point x="44" y="1076"/>
      <point x="41" y="1010" type="curve"/>
    </contour>
    <contour>
      <point x="299" y="123" type="curve" smooth="yes"/>
      <point x="299" y="50"/>
      <point x="359" y="-9"/>
      <point x="433" y="-9" type="curve" smooth="yes"/>
      <point x="507" y="-9"/>
      <point x="566" y="50"/>
      <point x="566" y="123" type="curve" smooth="yes"/>
      <point x="566" y="195"/>
      <point x="507" y="254"/>
      <point x="433" y="254" type="curve" smooth="yes"/>
      <point x="359" y="254"/>
      <point x="299" y="195"/>
    </contour>
  </outline>
</glyph>
<glyph name="at" format="2">
  <advance width="1948"/>
  <unicode hex="0040"/>
  <outline>
    <contour>
      <point x="1428" y="996" type="line"/>
      <point x="1212" y="996" type="line"/>
      <point x="1212" y="864" type="line"/>
      <point x="1192" y="908"/>
      <point x="1072" y="1016"/>
      <point x="896" y="1016" type="curve" smooth="yes"/>
      <point x="630" y="1016"/>
      <point x="456" y="802"/>
      <point x="456" y="538" type="curve" smooth="yes"/>
      <point x="456" y="258"/>
      <point x="674" y="68"/>
      <point x="918" y="68" type="curve" smooth="yes"/>
      <point x="1056" y="68"/>
      <point x="1180" y="128"/>
      <point x="1262" y="250" type="curve"/>
      <point x="1266" y="208" type="line"/>
      <point x="1288" y="96"/>
      <point x="1376" y="44"/>
      <point x="1498" y="44" type="curve" smooth="yes"/>
      <point x="1722" y="44"/>
      <point x="1880" y="240"/>
      <point x="1880" y="544" type="curve" smooth="yes"/>
      <point x="1880" y="1042"/>
      <point x="1500" y="1404"/>
      <point x="986" y="1404" type="curve" smooth="yes"/>
      <point x="470" y="1404"/>
      <point x="68" y="1026"/>
      <point x="68" y="534" type="curve" smooth="yes"/>
      <point x="68" y="52"/>
      <point x="452" y="-308"/>
      <point x="960" y="-308" type="curve" smooth="yes"/>
      <point x="1112" y="-308"/>
      <point x="1310" y="-254"/>
      <point x="1428" y="-170" type="curve"/>
      <point x="1346" y="-26" type="line"/>
      <point x="1234" y="-106"/>
      <point x="1078" y="-144"/>
      <point x="960" y="-144" type="curve" smooth="yes"/>
      <point x="552" y="-144"/>
      <point x="240" y="142"/>
      <point x="240" y="534" type="curve" smooth="yes"/>
      <point x="240" y="932"/>
      <point x="570" y="1246"/>
      <point x="986" y="1246" type="curve" smooth="yes"/>
      <point x="1430" y="1246"/>
      <point x="1708" y="938"/>
      <point x="1708" y="538" type="curve" smooth="yes"/>
      <point x="1708" y="330"/>
      <point x="1618" y="186"/>
      <point x="1520" y="186" type="curve" smooth="yes"/>
      <point x="1466" y="186"/>
      <point x="1428" y="218"/>
      <point x="1428" y="296" type="curve" smooth="yes"/>
    </contour>
    <contour>
      <point x="938" y="820" type="curve" smooth="yes"/>
      <point x="1096" y="820"/>
      <point x="1198" y="698"/>
      <point x="1198" y="546" type="curve" smooth="yes"/>
      <point x="1198" y="388"/>
      <point x="1100" y="262"/>
      <point x="942" y="262" type="curve" smooth="yes"/>
      <point x="790" y="262"/>
      <point x="690" y="392"/>
      <point x="690" y="548" type="curve" smooth="yes"/>
      <point x="690" y="698"/>
      <point x="790" y="820"/>
    </contour>
  </outline>
</glyph>
<glyph name="A" format="2">
  <advance width="1476"/>
  <unicode hex="0041"/>
  <anchor x="730" y="0" name="bottom"/>
  <anchor x="1474" y="0" name="ogonek"/>
  <anchor x="738" y="1398" name="top"/>
  <anchor x="250" y="1400" name="topleft"/>
  <outline>
    <contour>
      <point x="2" y="0" type="line"/>
      <point x="248" y="0" type="line"/>
      <point x="734" y="1162" type="line"/>
      <point x="1222" y="0" type="line"/>
      <point x="1474" y="0" type="line"/>
      <point x="862" y="1400" type="line"/>
      <point x="620" y="1400" type="line"/>
    </contour>
    <contour>
      <point x="310" y="324" type="line"/>
      <point x="1148" y="324" type="line"/>
      <point x="1148" y="524" type="line"/>
      <point x="310" y="524" type="line"/>
    </contour>
  </outline>
</glyph>
<glyph name="B" format="2">
  <advance width="706"/>
  <unicode hex="0042"/>
  <outline>
    <contour>
      <point x="92" y="700" type="line"/>
      <point x="92" y="0" type="line"/>
      <point x="403" y="0" type="line" smooth="yes"/>
      <point x="561" y="0"/>
      <point x="658" y="72"/>
      <point x="658" y="192" type="curve" smooth="yes"/>
      <point x="658" y="286"/>
      <point x="602" y="353"/>
      <point x="508" y="369" type="curve"/>
      <point x="584" y="387"/>
      <point x="631" y="446"/>
      <point x="631" y="525" type="curve" smooth="yes"/>
      <point x="631" y="634"/>
      <point x="541" y="700"/>
      <point x="396" y="700" type="curve" smooth="yes"/>
    </contour>
    <contour>
      <point x="210" y="409" type="line"/>
      <point x="210" y="599" type="line"/>
      <point x="390" y="599" type="line"/>
      <point x="465" y="600"/>
      <point x="510" y="566"/>
      <point x="510" y="506" type="curve" smooth="yes"/>
      <point x="510" y="444"/>
      <point x="465" y="409"/>
      <point x="390" y="409" type="curve" smooth="yes"/>
    </contour>
    <contour>
      <point x="210" y="101" type="line"/>
      <point x="210" y="308" type="line"/>
      <point x="390" y="308" type="line"/>
      <point x="482" y="309"/>
      <point x="537" y="270"/>
      <point x="537" y="206" type="curve" smooth="yes"/>
      <point x="537" y="138"/>
      <point x="482" y="100"/>
      <point x="390" y="101" type="curve"/>
    </contour>
  </outline>
</glyph>
<glyph name="C" format="2">
  <advance width="697"/>
  <unicode hex="0043"/>
  <anchor x="383" y="0" name="bottom"/>
  <anchor x="422" y="700" name="top"/>
  <outline>
    <contour>
      <point x="668" y="599" type="line"/>
      <point x="600" y="666"/>
      <point x="501" y="707"/>
      <point x="402" y="707" type="curve" smooth="yes"/>
      <point x="195" y="707"/>
      <point x="34" y="551"/>
      <point x="34" y="351" type="curve" smooth="yes"/>
      <point x="34" y="150"/>
      <point x="193" y="-8"/>
      <point x="398" y="-8" type="curve" smooth="yes"/>
      <point x="497" y="-8"/>
      <point x="598" y="37"/>
      <point x="669" y="107" type="curve"/>
      <point x="599" y="180" type="line"/>
      <point x="546" y="128"/>
      <point x="474" y="96"/>
      <point x="404" y="96" type="curve" smooth="yes"/>
      <point x="264" y="96"/>
      <point x="154" y="210"/>
      <point x="154" y="352" type="curve" smooth="yes"/>
      <point x="154" y="495"/>
      <point x="264" y="608"/>
      <point x="404" y="608" type="curve" smooth="yes"/>
      <point x="475" y="608"/>
      <point x="548" y="574"/>
      <point x="599" y="518" type="curve"/>
    </contour>
  </outline>
</glyph>
<glyph name="D" format="2">
  <advance width="775"/>
  <unicode hex="0044"/>
  <anchor x="381" y="0" name="bottom"/>
  <anchor x="365" y="699" name="top"/>
  <outline>
    <contour>
      <point x="92" y="700" type="line"/>
      <point x="92" y="0" type="line"/>
      <point x="376" y="0" type="line" smooth="yes"/>
      <point x="588" y="0"/>
      <point x="741" y="148"/>
      <point x="741" y="350" type="curve" smooth="yes"/>
      <point x="741" y="552"/>
      <point x="589" y="700"/>
      <point x="379" y="700" type="curve" smooth="yes"/>
    </contour>
    <contour>
      <point x="210" y="101" type="line"/>
      <point x="210" y="599" type="line"/>
      <point x="377" y="599" type="line" smooth="yes"/>
      <point x="515" y="599"/>
      <point x="622" y="495"/>
      <point x="622" y="349" type="curve" smooth="yes"/>
      <point x="622" y="204"/>
      <point x="518" y="101"/>
      <point x="382" y="101" type="curve" smooth="yes"/>
    </contour>
  </outline>
</glyph>
<glyph name="E" format="2">
  <advance width="656"/>
  <unicode hex="0045"/>
  <anchor x="348" y="0" name="bottom"/>
  <anchor x="604" y="0" name="ogonek"/>
  <anchor x="351" y="700" name="top"/>
  <anchor x="18" y="700" name="topleft"/>
  <outline>
    <contour>
      <point x="92" y="0" type="line"/>
      <point x="604" y="0" type="line"/>
      <point x="604" y="101" type="line"/>
      <point x="210" y="101" type="line"/>
      <point x="210" y="302" type="line"/>
      <point x="552" y="302" type="line"/>
      <point x="552" y="402" type="line"/>
      <point x="210" y="402" type="line"/>
      <point x="210" y="599" type="line"/>
      <point x="592" y="599" type="line"/>
      <point x="592" y="700" type="line"/>
      <point x="92" y="700" type="line"/>
    </contour>
  </outline>
</glyph>
<glyph name="F" format="2">
  <advance width="575"/>
  <unicode hex="0046"/>
  <outline>
    <contour>
      <point x="92" y="0" type="line"/>
      <point x="210" y="0" type="line"/>
      <point x="210" y="291" type="line"/>
      <point x="528" y="291" type="line"/>
      <point x="528" y="391" type="line"/>
      <point x="210" y="391" type="line"/>
      <point x="210" y="599" type="line"/>
      <point x="561" y="599" type="line"/>
      <point x="562" y="700" type="line"/>
      <point x="92" y="700" type="line"/>
    </contour>
  </outline>
</glyph>
<glyph name="G" format="2">
  <advance width="1498"/>
  <unicode hex="0047"/>
  <anchor x="774" y="0" name="bottom"/>
  <anchor x="774" y="1400" name="top"/>
  <outline>
    <contour>
      <point x="1128" y="168" type="line"/>
      <point x="1348" y="168" type="line"/>
      <point x="1348" y="800" type="line"/>
      <point x="700" y="800" type="line"/>
      <point x="700" y="600" type="line"/>
      <point x="1128" y="600" type="line"/>
    </contour>
    <contour>
      <point x="1356" y="1216" type="line"/>
      <point x="1218" y="1338"/>
      <point x="1018" y="1414"/>
      <point x="818" y="1414" type="curve" smooth="yes"/>
      <point x="394" y="1414"/>
      <point x="68" y="1102"/>
      <point x="68" y="702" type="curve" smooth="yes"/>
      <point x="68" y="300"/>
      <point x="390" y="-16"/>
      <point x="804" y="-16" type="curve" smooth="yes"/>
      <point x="996" y="-16"/>
      <point x="1206" y="58"/>
      <point x="1348" y="168" type="curve"/>
      <point x="1212" y="332" type="line"/>
      <point x="1100" y="240"/>
      <point x="950" y="184"/>
      <point x="820" y="184" type="curve" smooth="yes"/>
      <point x="534" y="184"/>
      <point x="308" y="412"/>
      <point x="308" y="702" type="curve" smooth="yes"/>
      <point x="308" y="988"/>
      <point x="532" y="1216"/>
      <point x="818" y="1216" type="curve" smooth="yes"/>
      <point x="964" y="1216"/>
      <point x="1114" y="1156"/>
      <point x="1222" y="1054" type="curve"/>
    </contour>
  </outline>
</glyph>
<glyph name="H" format="2">
  <advance width="1582"/>
  <unicode hex="0048"/>
  <anchor x="790" y="0" name="bottom"/>
  <anchor x="792" y="1114" name="center"/>
  <anchor x="800" y="1398" name="top"/>
  <outline>
    <contour>
      <point x="184" y="0" type="line"/>
      <point x="420" y="0" type="line"/>
      <point x="420" y="586" type="line"/>
      <point x="1162" y="586" type="line"/>
      <point x="1162" y="0" type="line"/>
      <point x="1398" y="0" type="line"/>
      <point x="1398" y="1400" type="line"/>
      <point x="1162" y="1400" type="line"/>
      <point x="1162" y="786" type="line"/>
      <point x="420" y="786" type="line"/>
      <point x="420" y="1400" type="line"/>
      <point x="184" y="1400" type="line"/>
    </contour>
  </outline>
</glyph>
<glyph name="I" format="2">
  <advance width="302"/>
  <unicode hex="0049"/>
  <anchor x="151" y="0" name="bottom"/>
  <anchor x="210" y="0" name="ogonek"/>
  <anchor x="150" y="699" name="top"/>
  <anchor x="18" y="700" name="topleft"/>
  <outline>
    <contour>
      <point x="92" y="0" type="line"/>
      <point x="210" y="0" type="line"/>
      <point x="210" y="700" type="line"/>
      <point x="92" y="700" type="line"/>
    </contour>
  </outline>
</glyph>
<glyph name="J" format="2">
  <advance width="499"/>
  <unicode hex="004A"/>
  <anchor x="358" y="700" name="top"/>
  <outline>
    <contour>
      <point x="422" y="700" type="line"/>
      <point x="303" y="700" type="line"/>
      <point x="303" y="218" type="line"/>
      <point x="303" y="144"/>
      <point x="266" y="104"/>
      <point x="203" y="104" type="curve"/>
      <point x="155" y="104"/>
      <point x="100" y="131"/>
      <point x="54" y="181" type="curve"/>
      <point x="-2" y="95" type="line"/>
      <point x="50" y="32"/>
      <point x="120" y="-5"/>
      <point x="204" y="-5" type="curve"/>
      <point x="339" y="-5"/>
      <point x="422" y="75"/>
      <point x="422" y="215" type="curve"/>
    </contour>
  </outline>
</glyph>
<glyph name="K" format="2">
  <advance width="1436"/>
  <unicode hex="004B"/>
  <anchor x="706" y="0" name="bottom"/>
  <anchor x="706" y="1400" name="top"/>
  <outline>
    <contour>
      <point x="184" y="0" type="line"/>
      <point x="420" y="0" type="line"/>
      <point x="420" y="362" type="line"/>
      <point x="1366" y="1400" type="line"/>
      <point x="1088" y="1400" type="line"/>
      <point x="420" y="648" type="line"/>
      <point x="420" y="1400" type="line"/>
      <point x="184" y="1400" type="line"/>
    </contour>
    <contour>
      <point x="642" y="646" type="line"/>
      <point x="1118" y="0" type="line"/>
      <point x="1402" y="0" type="line"/>
      <point x="798" y="834" type="line"/>
    </contour>
  </outline>
</glyph>
<glyph name="L" format="2">
  <advance width="534"/>
  <unicode hex="004C"/>
  <anchor x="303" y="0" name="bottom"/>
  <anchor x="417" y="400" name="center"/>
  <anchor x="153" y="699" name="top"/>
  <anchor x="405" y="700" name="topright"/>
  <outline>
    <contour>
      <point x="92" y="0" type="line"/>
      <point x="513" y="0" type="line"/>
      <point x="513" y="101" type="line"/>
      <point x="210" y="101" type="line"/>
      <point x="210" y="700" type="line"/>
      <point x="92" y="700" type="line"/>
    </contour>
  </outline>
  <guideline angle="90" x="417" y="0"/>
</glyph>
<glyph name="M" format="2">
  <advance width="940"/>
  <unicode hex="004D"/>
  <anchor x="470" y="0" name="bottom"/>
  <outline>
    <contour>
      <point x="92" y="0" type="line"/>
      <point x="201" y="0" type="line"/>
      <point x="201" y="535" type="line"/>
      <point x="433" y="73" type="line"/>
      <point x="508" y="73" type="line"/>
      <point x="738" y="535" type="line"/>
      <point x="739" y="0" type="line"/>
      <point x="848" y="0" type="line"/>
      <point x="848" y="700" type="line"/>
      <point x="711" y="700" type="line"/>
      <point x="471" y="225" type="line"/>
      <point x="229" y="700" type="line"/>
      <point x="92" y="700" type="line"/>
    </contour>
  </outline>
</glyph>
<glyph name="N" format="2">
  <advance width="792"/>
  <unicode hex="004E"/>
  <anchor x="396" y="0" name="bottom"/>
  <anchor x="406" y="700" name="top"/>
  <outline>
    <contour>
      <point x="92" y="0" type="line"/>
      <point x="210" y="0" type="line"/>
      <point x="210" y="564" type="line"/>
      <point x="179" y="554" type="line"/>
      <point x="583" y="0" type="line"/>
      <point x="699" y="0" type="line"/>
      <point x="699" y="700" type="line"/>
      <point x="583" y="700" type="line"/>
      <point x="583" y="135" type="line"/>
      <point x="613" y="145" type="line"/>
      <point x="208" y="700" type="line"/>
      <point x="92" y="700" type="line"/>
    </contour>
  </outline>
</glyph>
<glyph name="O" format="2">
  <advance width="810"/>
  <unicode hex="004F"/>
  <anchor x="405" y="0" name="bottom"/>
  <anchor x="405" y="351" name="center"/>
  <anchor x="606" y="0" name="ogonek"/>
  <anchor x="405" y="700" name="top"/>
  <anchor x="20" y="704" name="topleft"/>
  <anchor x="576" y="700" name="topright"/>
  <outline>
    <contour>
      <point x="405" y="707" type="curve" smooth="yes"/>
      <point x="196" y="707"/>
      <point x="34" y="552"/>
      <point x="34" y="351" type="curve" smooth="yes"/>
      <point x="34" y="150"/>
      <point x="196" y="-8"/>
      <point x="405" y="-8" type="curve" smooth="yes"/>
      <point x="614" y="-8"/>
      <point x="776" y="150"/>
      <point x="776" y="351" type="curve" smooth="yes"/>
      <point x="776" y="551"/>
      <point x="614" y="707"/>
    </contour>
    <contour>
      <point x="406" y="607" type="curve" smooth="yes"/>
      <point x="543" y="607"/>
      <point x="655" y="494"/>
      <point x="655" y="351" type="curve" smooth="yes"/>
      <point x="655" y="207"/>
      <point x="543" y="92"/>
      <point x="406" y="92" type="curve" smooth="yes"/>
      <point x="269" y="92"/>
      <point x="154" y="207"/>
      <point x="154" y="351" type="curve" smooth="yes"/>
      <point x="154" y="494"/>
      <point x="268" y="607"/>
    </contour>
  </outline>
  <guideline angle="90" x="470" y="0"/>
</glyph>
<glyph name="P" format="2">
  <advance width="673"/>
  <unicode hex="0050"/>
  <outline>
    <contour>
      <point x="92" y="700" type="line"/>
      <point x="92" y="0" type="line"/>
      <point x="210" y="0" type="line"/>
      <point x="210" y="265" type="line"/>
      <point x="158" y="213" type="line"/>
      <point x="371" y="213" type="line" smooth="yes"/>
      <point x="547" y="213"/>
      <point x="648" y="304"/>
      <point x="648" y="462" type="curve" smooth="yes"/>
      <point x="648" y="613"/>
      <point x="547" y="700"/>
      <point x="371" y="700" type="curve" smooth="yes"/>
    </contour>
    <contour>
      <point x="158" y="314" type="line"/>
      <point x="210" y="262" type="line"/>
      <point x="210" y="651" type="line"/>
      <point x="158" y="599" type="line"/>
      <point x="366" y="599" type="line" smooth="yes"/>
      <point x="474" y="599"/>
      <point x="535" y="554"/>
      <point x="535" y="459" type="curve" smooth="yes"/>
      <point x="535" y="361"/>
      <point x="474" y="314"/>
      <point x="366" y="314" type="curve" smooth="yes"/>
    </contour>
  </outline>
</glyph>
<glyph name="Q" format="2">
  <advance width="1620"/>
  <unicode hex="0051"/>
  <outline>
    <contour>
      <point x="810" y="1414" type="curve" smooth="yes"/>
      <point x="392" y="1414"/>
      <point x="68" y="1104"/>
      <point x="68" y="702" type="curve" smooth="yes"/>
      <point x="68" y="300"/>
      <point x="392" y="-16"/>
      <point x="810" y="-16" type="curve" smooth="yes"/>
      <point x="1228" y="-16"/>
      <point x="1552" y="300"/>
      <point x="1552" y="702" type="curve" smooth="yes"/>
      <point x="1552" y="1102"/>
      <point x="1228" y="1414"/>
    </contour>
    <contour>
      <point x="812" y="1214" type="curve" smooth="yes"/>
      <point x="1086" y="1214"/>
      <point x="1310" y="988"/>
      <point x="1310" y="702" type="curve" smooth="yes"/>
      <point x="1310" y="414"/>
      <point x="1086" y="184"/>
      <point x="812" y="184" type="curve" smooth="yes"/>
      <point x="538" y="184"/>
      <point x="308" y="414"/>
      <point x="308" y="702" type="curve" smooth="yes"/>
      <point x="308" y="988"/>
      <point x="536" y="1214"/>
    </contour>
    <contour>
      <point x="1426" y="-80" type="line"/>
      <point x="1563" y="67" type="line"/>
      <point x="955" y="639" type="line"/>
      <point x="820" y="492" type="line"/>
    </contour>
  </outline>
</glyph>
<glyph name="R" format="2">
  <advance width="723"/>
  <unicode hex="0052"/>
  <anchor x="360" y="0" name="bottom"/>
  <anchor x="345" y="700" name="top"/>
  <outline>
    <contour>
      <point x="92" y="700" type="line"/>
      <point x="92" y="0" type="line"/>
      <point x="210" y="0" type="line"/>
      <point x="210" y="213" type="line"/>
      <point x="376" y="213" type="line" smooth="yes"/>
      <point x="555" y="213"/>
      <point x="658" y="304"/>
      <point x="658" y="462" type="curve" smooth="yes"/>
      <point x="658" y="613"/>
      <point x="555" y="700"/>
      <point x="376" y="700" type="curve" smooth="yes"/>
    </contour>
    <contour>
      <point x="210" y="314" type="line"/>
      <point x="210" y="599" type="line"/>
      <point x="376" y="599" type="line" smooth="yes"/>
      <point x="484" y="599"/>
      <point x="546" y="554"/>
      <point x="546" y="459" type="curve" smooth="yes"/>
      <point x="546" y="361"/>
      <point x="484" y="314"/>
      <point x="376" y="314" type="curve" smooth="yes"/>
    </contour>
    <contour>
      <point x="536" y="0" type="line"/>
      <point x="670" y="0" type="line"/>
      <point x="496" y="259" type="line"/>
      <point x="380" y="259" type="line"/>
    </contour>
  </outline>
</glyph>
<glyph name="S" format="2">
  <advance width="622"/>
  <unicode hex="0053"/>
  <anchor x="316" y="0" name="bottom"/>
  <anchor x="319" y="700" name="top"/>
  <outline>
    <contour>
      <point x="567" y="637" type="line"/>
      <point x="502" y="680"/>
      <point x="413" y="709"/>
      <point x="322" y="709" type="curve"/>
      <point x="170" y="709"/>
      <point x="67" y="633"/>
      <point x="67" y="515" type="curve"/>
      <point x="67" y="263"/>
      <point x="445" y="353"/>
      <point x="445" y="190" type="curve"/>
      <point x="445" y="133"/>
      <point x="396" y="99"/>
      <point x="314" y="99" type="curve"/>
      <point x="239" y="99"/>
      <point x="149" y="135"/>
      <point x="77" y="202" type="curve"/>
      <point x="26" y="105" type="line"/>
      <point x="98" y="39"/>
      <point x="202" y="-7"/>
      <point x="312" y="-7" type="curve"/>
      <point x="466" y="-7"/>
      <point x="576" y="72"/>
      <point x="576" y="196" type="curve"/>
      <point x="577" y="449"/>
      <point x="199" y="365"/>
      <point x="199" y="524" type="curve"/>
      <point x="199" y="574"/>
      <point x="244" y="602"/>
      <point x="313" y="602" type="curve"/>
      <point x="366" y="602"/>
      <point x="442" y="585"/>
      <point x="518" y="538" type="curve"/>
    </contour>
  </outline>
</glyph>
<glyph name="T" format="2">
  <advance width="579"/>
  <unicode hex="0054"/>
  <anchor x="289" y="0" name="bottom"/>
  <anchor x="297" y="700" name="top"/>
  <outline>
    <contour>
      <point x="9" y="599" type="line"/>
      <point x="230" y="599" type="line"/>
      <point x="230" y="0" type="line"/>
      <point x="348" y="0" type="line"/>
      <point x="348" y="599" type="line"/>
      <point x="570" y="599" type="line"/>
      <point x="570" y="700" type="line"/>
      <point x="9" y="700" type="line"/>
    </contour>
  </outline>
</glyph>
<glyph name="U" format="2">
  <advance width="1518"/>
  <unicode hex="0055"/>
  <anchor x="760" y="0" name="bottom"/>
  <anchor x="1152" y="0" name="ogonek"/>
  <anchor x="760" y="1400" name="top"/>
  <anchor x="1302" y="1400" name="topright"/>
  <outline>
    <contour>
      <point x="392" y="1400" type="line"/>
      <point x="156" y="1400" type="line"/>
      <point x="156" y="574" type="line" smooth="yes"/>
      <point x="156" y="208"/>
      <point x="386" y="-16"/>
      <point x="762" y="-16" type="curve" smooth="yes"/>
      <point x="1134" y="-16"/>
      <point x="1362" y="208"/>
      <point x="1362" y="574" type="curve" smooth="yes"/>
      <point x="1362" y="1400" type="line"/>
      <point x="1126" y="1400" type="line"/>
      <point x="1126" y="574" type="line" smooth="yes"/>
      <point x="1126" y="328"/>
      <point x="986" y="184"/>
      <point x="762" y="184" type="curve" smooth="yes"/>
      <point x="536" y="184"/>
      <point x="392" y="330"/>
      <point x="392" y="574" type="curve" smooth="yes"/>
    </contour>
  </outline>
</glyph>
<glyph name="V" format="2">
  <advance width="1380"/>
  <unicode hex="0056"/>
  <outline>
    <contour>
      <point x="564" y="0" type="line"/>
      <point x="808" y="0" type="line"/>
      <point x="1374" y="1400" type="line"/>
      <point x="1128" y="1400" type="line"/>
      <point x="692" y="248" type="line"/>
      <point x="260" y="1400" type="line"/>
      <point x="6" y="1400" type="line"/>
    </contour>
  </outline>
</glyph>
<glyph name="W" format="2">
  <advance width="2126"/>
  <unicode hex="0057"/>
  <anchor x="1064" y="0" name="bottom"/>
  <anchor x="1064" y="1400" name="top"/>
  <outline>
    <contour>
      <point x="478" y="0" type="line"/>
      <point x="720" y="0" type="line"/>
      <point x="1094" y="1208" type="line"/>
      <point x="1034" y="1210" type="line"/>
      <point x="1402" y="0" type="line"/>
      <point x="1646" y="0" type="line"/>
      <point x="2120" y="1400" type="line"/>
      <point x="1876" y="1400" type="line"/>
      <point x="1502" y="148" type="line"/>
      <point x="1562" y="148" type="line"/>
      <point x="1184" y="1400" type="line"/>
      <point x="952" y="1400" type="line"/>
      <point x="576" y="148" type="line"/>
      <point x="636" y="148" type="line"/>
      <point x="260" y="1400" type="line"/>
      <point x="6" y="1400" type="line"/>
    </contour>
  </outline>
</glyph>
<glyph name="X" format="2">
  <advance width="692"/>
  <unicode hex="0058"/>
  <outline>
    <contour>
      <point x="270" y="359" type="line"/>
      <point x="15" y="0" type="line"/>
      <point x="153" y="0" type="line"/>
      <point x="341" y="270" type="line"/>
      <point x="530" y="0" type="line"/>
      <point x="671" y="0" type="line"/>
      <point x="416" y="364" type="line"/>
      <point x="651" y="700" type="line"/>
      <point x="513" y="700" type="line"/>
      <point x="341" y="451" type="line"/>
      <point x="170" y="700" type="line"/>
      <point x="33" y="700" type="line"/>
    </contour>
  </outline>
</glyph>
<glyph name="Y" format="2">
  <advance width="637"/>
  <unicode hex="0059"/>
  <anchor x="321" y="0" name="bottom"/>
  <anchor x="318" y="699" name="top"/>
  <outline>
    <contour>
      <point x="311" y="148" type="line"/>
      <point x="328" y="148" type="line"/>
      <point x="636" y="700" type="line"/>
      <point x="516" y="700" type="line"/>
      <point x="320" y="354" type="line"/>
      <point x="120" y="700" type="line"/>
      <point x="1" y="700" type="line"/>
    </contour>
    <contour>
      <point x="262" y="0" type="line"/>
      <point x="379" y="0" type="line"/>
      <point x="379" y="295" type="line"/>
      <point x="262" y="295" type="line"/>
    </contour>
  </outline>
</glyph>
<glyph name="Z" format="2">
  <advance width="1332"/>
  <unicode hex="005A"/>
  <anchor x="666" y="0" name="bottom"/>
  <anchor x="674" y="1400" name="top"/>
  <outline>
    <contour>
      <point x="100" y="1198" type="line"/>
      <point x="928" y="1198" type="line"/>
      <point x="74" y="160" type="line"/>
      <point x="74" y="0" type="line"/>
      <point x="1256" y="0" type="line"/>
      <point x="1256" y="202" type="line"/>
      <point x="394" y="202" type="line"/>
      <point x="1246" y="1240" type="line"/>
      <point x="1246" y="1400" type="line"/>
      <point x="100" y="1400" type="line"/>
    </contour>
  </outline>
</glyph>
<glyph name="bracketleft" format="2">
  <advance width="329"/>
  <unicode hex="005B"/>
  <outline>
    <contour>
      <point x="82" y="-124" type="line"/>
      <point x="309" y="-124" type="line"/>
      <point x="309" y="-37" type="line"/>
      <point x="185" y="-37" type="line"/>
      <point x="185" y="655" type="line"/>
      <point x="309" y="655" type="line"/>
      <point x="309" y="742" type="line"/>
      <point x="82" y="742" type="line"/>
    </contour>
  </outline>
</glyph>
<glyph name="bracketright" format="2">
  <advance width="658"/>
  <unicode hex="005D"/>
  <outline>
    <contour>
      <point x="494" y="-248" type="line"/>
      <point x="40" y="-248" type="line"/>
      <point x="40" y="-74" type="line"/>
      <point x="288" y="-74" type="line"/>
      <point x="288" y="1310" type="line"/>
      <point x="40" y="1310" type="line"/>
      <point x="40" y="1484" type="line"/>
      <point x="494" y="1484" type="line"/>
    </contour>
  </outline>
</glyph>
<glyph name="underscore" format="2">
  <advance width="566"/>
  <unicode hex="005F"/>
  <outline>
    <contour>
      <point x="0" y="-204" type="line"/>
      <point x="566" y="-204" type="line"/>
      <point x="566" y="-138" type="line"/>
      <point x="0" y="-138" type="line"/>
    </contour>
  </outline>
</glyph>
<glyph name="a" format="2">
  <advance width="586"/>
  <unicode hex="0061"/>
  <anchor x="285" y="0" name="bottom"/>
  <anchor x="517" y="0" name="ogonek"/>
  <anchor x="290" y="531" name="top"/>
  <outline>
    <contour>
      <point x="418" y="237" type="line"/>
      <point x="418" y="319" type="line"/>
      <point x="242" y="319" type="line"/>
      <point x="114" y="318"/>
      <point x="41" y="256"/>
      <point x="41" y="160" type="curve" smooth="yes"/>
      <point x="41" y="67"/>
      <point x="113" y="-5"/>
      <point x="228" y="-5" type="curve" smooth="yes"/>
      <point x="323" y="-5"/>
      <point x="393" y="30"/>
      <point x="426" y="99" type="curve"/>
      <point x="404" y="196" type="line"/>
      <point x="402" y="132"/>
      <point x="337" y="83"/>
      <point x="252" y="83" type="curve" smooth="yes"/>
      <point x="188" y="83"/>
      <point x="149" y="115"/>
      <point x="149" y="164" type="curve" smooth="yes"/>
      <point x="149" y="216"/>
      <point x="184" y="237"/>
      <point x="259" y="237" type="curve" smooth="yes"/>
    </contour>
    <contour>
      <point x="404" y="0" type="line"/>
      <point x="517" y="0" type="line"/>
      <point x="516" y="349" type="line" smooth="yes"/>
      <point x="515" y="465"/>
      <point x="438" y="535"/>
      <point x="301" y="535" type="curve" smooth="yes"/>
      <point x="200" y="535"/>
      <point x="146" y="511"/>
      <point x="72" y="466" type="curve"/>
      <point x="119" y="392" type="line"/>
      <point x="172" y="428"/>
      <point x="225" y="447"/>
      <point x="276" y="447" type="curve" smooth="yes"/>
      <point x="360" y="447"/>
      <point x="403" y="406"/>
      <point x="403" y="337" type="curve"/>
    </contour>
  </outline>
</glyph>
<glyph name="b" format="2">
  <advance width="1360"/>
  <unicode hex="0062"/>
  <outline>
    <contour>
      <point x="782" y="1070" type="curve" smooth="yes"/>
      <point x="496" y="1070"/>
      <point x="324" y="870"/>
      <point x="326" y="528" type="curve"/>
      <point x="324" y="194"/>
      <point x="494" y="-8"/>
      <point x="786" y="-8" type="curve" smooth="yes"/>
      <point x="1090" y="-8"/>
      <point x="1290" y="210"/>
      <point x="1290" y="528" type="curve" smooth="yes"/>
      <point x="1290" y="850"/>
      <point x="1084" y="1070"/>
    </contour>
    <contour>
      <point x="734" y="888" type="curve" smooth="yes"/>
      <point x="924" y="888"/>
      <point x="1058" y="738"/>
      <point x="1058" y="534" type="curve" smooth="yes"/>
      <point x="1058" y="326"/>
      <point x="924" y="178"/>
      <point x="734" y="178" type="curve" smooth="yes"/>
      <point x="544" y="178"/>
      <point x="410" y="324"/>
      <point x="410" y="534" type="curve" smooth="yes"/>
      <point x="410" y="740"/>
      <point x="544" y="888"/>
    </contour>
    <contour>
      <point x="180" y="0" type="line"/>
      <point x="410" y="0" type="line"/>
      <point x="410" y="1484" type="line"/>
      <point x="180" y="1484" type="line"/>
    </contour>
  </outline>
</glyph>
<glyph name="c" format="2">
  <advance width="564"/>
  <unicode hex="0063"/>
  <anchor x="289" y="0" name="bottom"/>
  <anchor x="304" y="531" name="top"/>
  <outline>
    <contour>
      <point x="523" y="453" type="line"/>
      <point x="474" y="505"/>
      <point x="399" y="535"/>
      <point x="303" y="535" type="curve" smooth="yes"/>
      <point x="145" y="535"/>
      <point x="35" y="425"/>
      <point x="35" y="265" type="curve" smooth="yes"/>
      <point x="35" y="105"/>
      <point x="145" y="-4"/>
      <point x="303" y="-4" type="curve" smooth="yes"/>
      <point x="404" y="-4"/>
      <point x="481" y="31"/>
      <point x="529" y="91" type="curve"/>
      <point x="465" y="154" type="line"/>
      <point x="429" y="111"/>
      <point x="375" y="89"/>
      <point x="308" y="89" type="curve" smooth="yes"/>
      <point x="216" y="89"/>
      <point x="150" y="160"/>
      <point x="150" y="265" type="curve" smooth="yes"/>
      <point x="150" y="369"/>
      <point x="216" y="440"/>
      <point x="308" y="440" type="curve" smooth="yes"/>
      <point x="372" y="440"/>
      <point x="423" y="417"/>
      <point x="460" y="379" type="curve"/>
    </contour>
  </outline>
</glyph>
<glyph name="d" format="2">
  <advance width="1364"/>
  <unicode hex="0064"/>
  <anchor x="714" y="0" name="bottom"/>
  <anchor x="976" y="1230" name="center"/>
  <anchor x="1334" y="1484" name="topright"/>
  <outline>
    <contour>
      <point x="576" y="1072" type="curve" smooth="yes"/>
      <point x="276" y="1072"/>
      <point x="70" y="854"/>
      <point x="70" y="534" type="curve" smooth="yes"/>
      <point x="70" y="212"/>
      <point x="274" y="-10"/>
      <point x="580" y="-10" type="curve" smooth="yes"/>
      <point x="872" y="-10"/>
      <point x="1040" y="194"/>
      <point x="1038" y="532" type="curve"/>
      <point x="1040" y="868"/>
      <point x="870" y="1072"/>
    </contour>
    <contour>
      <point x="628" y="886" type="curve" smooth="yes"/>
      <point x="820" y="886"/>
      <point x="954" y="738"/>
      <point x="954" y="528" type="curve" smooth="yes"/>
      <point x="954" y="320"/>
      <point x="820" y="172"/>
      <point x="628" y="172" type="curve" smooth="yes"/>
      <point x="434" y="172"/>
      <point x="302" y="320"/>
      <point x="300" y="528" type="curve" smooth="yes"/>
      <point x="302" y="736"/>
      <point x="436" y="886"/>
    </contour>
    <contour>
      <point x="954" y="0" type="line"/>
      <point x="1184" y="0" type="line"/>
      <point x="1184" y="1484" type="line"/>
      <point x="954" y="1484" type="line"/>
    </contour>
  </outline>
</glyph>
<glyph name="e" format="2">
  <advance width="1176"/>
  <unicode hex="0065"/>
  <anchor x="600" y="0" name="bottom"/>
  <anchor x="972" y="0" name="ogonek"/>
  <anchor x="596" y="1060" name="top"/>
  <outline>
    <contour>
      <point x="256" y="608" type="line"/>
      <point x="256" y="444" type="line"/>
      <point x="1106" y="444" type="line"/>
      <point x="1134" y="828"/>
      <point x="982" y="1070"/>
      <point x="608" y="1070" type="curve"/>
      <point x="292" y="1068"/>
      <point x="70" y="850"/>
      <point x="70" y="530" type="curve" smooth="yes"/>
      <point x="70" y="210"/>
      <point x="286" y="-8"/>
      <point x="614" y="-8" type="curve" smooth="yes"/>
      <point x="798" y="-8"/>
      <point x="950" y="58"/>
      <point x="1054" y="172" type="curve"/>
      <point x="932" y="294" type="line"/>
      <point x="854" y="212"/>
      <point x="748" y="168"/>
      <point x="632" y="168" type="curve" smooth="yes"/>
      <point x="432" y="168"/>
      <point x="292" y="314"/>
      <point x="292" y="542" type="curve" smooth="yes"/>
      <point x="292" y="754"/>
      <point x="420" y="894"/>
      <point x="610" y="894" type="curve" smooth="yes"/>
      <point x="784" y="894"/>
      <point x="898" y="786"/>
      <point x="906" y="608" type="curve"/>
    </contour>
  </outline>
</glyph>
<glyph name="f" format="2">
  <advance width="780"/>
  <unicode hex="0066"/>
  <outline>
    <contour>
      <point x="214" y="0" type="line"/>
      <point x="442" y="0" type="line"/>
      <point x="442" y="1194" type="line" smooth="yes"/>
      <point x="442" y="1298"/>
      <point x="508" y="1342"/>
      <point x="586" y="1342" type="curve" smooth="yes"/>
      <point x="634" y="1342"/>
      <point x="682" y="1324"/>
      <point x="720" y="1308" type="curve"/>
      <point x="768" y="1484" type="line"/>
      <point x="712" y="1512"/>
      <point x="644" y="1532"/>
      <point x="580" y="1532" type="curve" smooth="yes"/>
      <point x="396" y="1532"/>
      <point x="214" y="1416"/>
      <point x="214" y="1166" type="curve" smooth="yes"/>
    </contour>
    <contour>
      <point x="74" y="898" type="line"/>
      <point x="720" y="898" type="line"/>
      <point x="720" y="1062" type="line"/>
      <point x="74" y="1062" type="line"/>
    </contour>
  </outline>
</glyph>
<glyph name="g" format="2">
  <advance width="1280"/>
  <unicode hex="0067"/>
  <anchor x="612" y="1062" name="top"/>
  <outline>
    <contour>
      <point x="1130" y="1062" type="line"/>
      <point x="902" y="1062" type="line"/>
      <point x="902" y="100" type="line"/>
      <point x="902" y="-92"/>
      <point x="770" y="-214"/>
      <point x="568" y="-214" type="curve" smooth="yes"/>
      <point x="438" y="-214"/>
      <point x="334" y="-172"/>
      <point x="234" y="-96" type="curve"/>
      <point x="136" y="-254" type="line"/>
      <point x="266" y="-342"/>
      <point x="412" y="-394"/>
      <point x="578" y="-394" type="curve" smooth="yes"/>
      <point x="912" y="-394"/>
      <point x="1130" y="-202"/>
      <point x="1130" y="106" type="curve"/>
    </contour>
    <contour>
      <point x="542" y="1070" type="curve" smooth="yes"/>
      <point x="260" y="1068"/>
      <point x="70" y="862"/>
      <point x="70" y="564" type="curve" smooth="yes"/>
      <point x="70" y="260"/>
      <point x="262" y="50"/>
      <point x="550" y="50" type="curve" smooth="yes"/>
      <point x="826" y="50"/>
      <point x="984" y="242"/>
      <point x="982" y="562" type="curve"/>
      <point x="984" y="880"/>
      <point x="822" y="1072"/>
    </contour>
    <contour>
      <point x="596" y="894" type="curve" smooth="yes"/>
      <point x="776" y="894"/>
      <point x="902" y="756"/>
      <point x="902" y="558" type="curve" smooth="yes"/>
      <point x="902" y="362"/>
      <point x="776" y="222"/>
      <point x="596" y="222" type="curve" smooth="yes"/>
      <point x="412" y="222"/>
      <point x="288" y="362"/>
      <point x="286" y="558" type="curve" smooth="yes"/>
      <point x="288" y="754"/>
      <point x="414" y="894"/>
    </contour>
  </outline>
</glyph>
<glyph name="h" format="2">
  <advance width="1338"/>
  <unicode hex="0068"/>
  <anchor x="690" y="0" name="bottom"/>
  <anchor x="370" y="1230" name="center"/>
  <anchor x="292" y="1484" name="top"/>
  <anchor x="522" y="1068" name="topright"/>
  <outline>
    <contour>
      <point x="970" y="0" type="line"/>
      <point x="1200" y="0" type="line"/>
      <point x="1200" y="660" type="line"/>
      <point x="1200" y="914"/>
      <point x="1052" y="1070"/>
      <point x="804" y="1070" type="curve"/>
      <point x="522" y="1068"/>
      <point x="346" y="916"/>
      <point x="346" y="522" type="curve"/>
      <point x="410" y="522" type="line"/>
      <point x="410" y="716"/>
      <point x="524" y="864"/>
      <point x="714" y="866" type="curve"/>
      <point x="874" y="866"/>
      <point x="970" y="766"/>
      <point x="970" y="600" type="curve"/>
    </contour>
    <contour>
      <point x="180" y="0" type="line"/>
      <point x="410" y="0" type="line"/>
      <point x="410" y="1484" type="line"/>
      <point x="180" y="1484" type="line"/>
    </contour>
  </outline>
</glyph>
<glyph name="k" format="2">
  <advance width="595"/>
  <unicode hex="006B"/>
  <anchor x="321" y="0" name="bottom"/>
  <anchor x="148" y="742" name="top"/>
  <anchor x="266" y="531" name="topright"/>
  <outline>
    <contour>
      <point x="90" y="0" type="line"/>
      <point x="205" y="0" type="line"/>
      <point x="205" y="742" type="line"/>
      <point x="90" y="742" type="line"/>
    </contour>
    <contour>
      <point x="196" y="278" type="line"/>
      <point x="196" y="141" type="line"/>
      <point x="572" y="531" type="line"/>
      <point x="440" y="531" type="line"/>
    </contour>
    <contour>
      <point x="279" y="273" type="line"/>
      <point x="451" y="0" type="line"/>
      <point x="587" y="0" type="line"/>
      <point x="364" y="342" type="line"/>
    </contour>
  </outline>
</glyph>
<glyph name="l" format="2">
  <advance width="618"/>
  <unicode hex="006C"/>
  <anchor x="394" y="0" name="bottom"/>
  <anchor x="600" y="796" name="center"/>
  <anchor x="266" y="1484" name="top"/>
  <anchor x="530" y="1484" name="topright"/>
  <outline>
    <contour>
      <point x="380" y="1484" type="line"/>
      <point x="152" y="1484" type="line"/>
      <point x="152" y="288" type="line" smooth="yes"/>
      <point x="152" y="94"/>
      <point x="268" y="-10"/>
      <point x="416" y="-10" type="curve" smooth="yes"/>
      <point x="480" y="-10"/>
      <point x="548" y="10"/>
      <point x="616" y="48" type="curve"/>
      <point x="584" y="222" type="line"/>
      <point x="544" y="200"/>
      <point x="510" y="188"/>
      <point x="478" y="188" type="curve" smooth="yes"/>
      <point x="418" y="188"/>
      <point x="380" y="228"/>
      <point x="380" y="314" type="curve" smooth="yes"/>
    </contour>
  </outline>
</glyph>
<glyph name="m" format="2">
  <advance width="1043"/>
  <unicode hex="006D"/>
  <anchor x="530" y="0" name="bottom"/>
  <outline>
    <contour>
      <point x="472" y="0" type="line"/>
      <point x="587" y="0" type="line"/>
      <point x="587" y="330" type="line" smooth="yes"/>
      <point x="587" y="457"/>
      <point x="514" y="535"/>
      <point x="392" y="535" type="curve"/>
      <point x="254" y="534"/>
      <point x="167" y="458"/>
      <point x="167" y="262" type="curve"/>
      <point x="199" y="262" type="line"/>
      <point x="199" y="358"/>
      <point x="255" y="431"/>
      <point x="347" y="434" type="curve"/>
      <point x="425" y="434"/>
      <point x="472" y="384"/>
      <point x="472" y="300" type="curve" smooth="yes"/>
    </contour>
    <contour>
      <point x="859" y="0" type="line"/>
      <point x="974" y="0" type="line"/>
      <point x="974" y="330" type="line" smooth="yes"/>
      <point x="974" y="457"/>
      <point x="901" y="535"/>
      <point x="779" y="535" type="curve"/>
      <point x="641" y="534"/>
      <point x="554" y="458"/>
      <point x="554" y="262" type="curve"/>
      <point x="587" y="262" type="line"/>
      <point x="587" y="358"/>
      <point x="642" y="431"/>
      <point x="733" y="434" type="curve"/>
      <point x="811" y="434"/>
      <point x="859" y="384"/>
      <point x="859" y="300" type="curve" smooth="yes"/>
    </contour>
    <contour>
      <point x="85" y="0" type="line"/>
      <point x="199" y="0" type="line"/>
      <point x="199" y="531" type="line"/>
      <point x="85" y="531" type="line"/>
    </contour>
  </outline>
</glyph>
<glyph name="n" format="2">
  <advance width="1326"/>
  <unicode hex="006E"/>
  <anchor x="672" y="0" name="bottom"/>
  <anchor x="692" y="1062" name="top"/>
  <outline>
    <contour>
      <point x="958" y="0" type="line"/>
      <point x="1188" y="0" type="line"/>
      <point x="1188" y="660" type="line" smooth="yes"/>
      <point x="1188" y="914"/>
      <point x="1040" y="1070"/>
      <point x="792" y="1070" type="curve"/>
      <point x="510" y="1068"/>
      <point x="334" y="916"/>
      <point x="334" y="522" type="curve"/>
      <point x="398" y="522" type="line"/>
      <point x="398" y="716"/>
      <point x="512" y="864"/>
      <point x="702" y="866" type="curve"/>
      <point x="862" y="866"/>
      <point x="958" y="766"/>
      <point x="958" y="600" type="curve" smooth="yes"/>
    </contour>
    <contour>
      <point x="170" y="0" type="line"/>
      <point x="400" y="0" type="line"/>
      <point x="400" y="1062" type="line"/>
      <point x="170" y="1062" type="line"/>
    </contour>
  </outline>
</glyph>
<glyph name="o" format="2">
  <advance width="625"/>
  <unicode hex="006F"/>
  <anchor x="313" y="0" name="bottom"/>
  <anchor x="488" y="0" name="ogonek"/>
  <anchor x="313" y="531" name="top"/>
  <anchor x="464" y="530" name="topright"/>
  <outline>
    <contour>
      <point x="313" y="535" type="curve" smooth="yes"/>
      <point x="148" y="535"/>
      <point x="35" y="426"/>
      <point x="35" y="266" type="curve" smooth="yes"/>
      <point x="35" y="106"/>
      <point x="148" y="-4"/>
      <point x="313" y="-4" type="curve" smooth="yes"/>
      <point x="477" y="-4"/>
      <point x="590" y="106"/>
      <point x="590" y="266" type="curve" smooth="yes"/>
      <point x="590" y="426"/>
      <point x="477" y="535"/>
    </contour>
    <contour>
      <point x="313" y="442" type="curve" smooth="yes"/>
      <point x="408" y="442"/>
      <point x="475" y="369"/>
      <point x="475" y="265" type="curve" smooth="yes"/>
      <point x="475" y="159"/>
      <point x="408" y="87"/>
      <point x="313" y="87" type="curve" smooth="yes"/>
      <point x="217" y="87"/>
      <point x="150" y="159"/>
      <point x="150" y="265" type="curve" smooth="yes"/>
      <point x="150" y="369"/>
      <point x="217" y="442"/>
    </contour>
  </outline>
</glyph>
<glyph name="p" format="2">
  <advance width="680"/>
  <unicode hex="0070"/>
  <outline>
    <contour>
      <point x="391" y="535" type="curve" smooth="yes"/>
      <point x="248" y="535"/>
      <point x="162" y="435"/>
      <point x="163" y="264" type="curve"/>
      <point x="162" y="97"/>
      <point x="247" y="-4"/>
      <point x="393" y="-4" type="curve" smooth="yes"/>
      <point x="545" y="-4"/>
      <point x="645" y="105"/>
      <point x="645" y="264" type="curve" smooth="yes"/>
      <point x="645" y="425"/>
      <point x="542" y="535"/>
    </contour>
    <contour>
      <point x="367" y="444" type="curve" smooth="yes"/>
      <point x="462" y="444"/>
      <point x="529" y="369"/>
      <point x="529" y="267" type="curve" smooth="yes"/>
      <point x="529" y="163"/>
      <point x="462" y="89"/>
      <point x="367" y="89" type="curve" smooth="yes"/>
      <point x="272" y="89"/>
      <point x="205" y="162"/>
      <point x="205" y="267" type="curve" smooth="yes"/>
      <point x="205" y="370"/>
      <point x="272" y="444"/>
    </contour>
    <contour>
      <point x="90" y="-194" type="line"/>
      <point x="205" y="-194" type="line"/>
      <point x="205" y="531" type="line"/>
      <point x="90" y="531" type="line"/>
    </contour>
  </outline>
</glyph>
<glyph name="q" format="2">
  <advance width="682"/>
  <unicode hex="0071"/>
  <outline>
    <contour>
      <point x="288" y="536" type="curve" smooth="yes"/>
      <point x="138" y="536"/>
      <point x="35" y="427"/>
      <point x="35" y="267" type="curve" smooth="yes"/>
      <point x="35" y="106"/>
      <point x="137" y="-5"/>
      <point x="290" y="-5" type="curve" smooth="yes"/>
      <point x="436" y="-5"/>
      <point x="520" y="97"/>
      <point x="519" y="266" type="curve"/>
      <point x="520" y="434"/>
      <point x="435" y="536"/>
    </contour>
    <contour>
      <point x="314" y="443" type="curve" smooth="yes"/>
      <point x="410" y="443"/>
      <point x="477" y="369"/>
      <point x="477" y="264" type="curve" smooth="yes"/>
      <point x="477" y="160"/>
      <point x="410" y="86"/>
      <point x="314" y="86" type="curve" smooth="yes"/>
      <point x="217" y="86"/>
      <point x="151" y="160"/>
      <point x="150" y="264" type="curve" smooth="yes"/>
      <point x="151" y="368"/>
      <point x="218" y="443"/>
    </contour>
    <contour>
      <point x="477" y="-194" type="line"/>
      <point x="592" y="-194" type="line"/>
      <point x="592" y="531" type="line"/>
      <point x="477" y="531" type="line"/>
    </contour>
  </outline>
</glyph>
<glyph name="r" format="2">
  <advance width="394"/>
  <unicode hex="0072"/>
  <anchor x="140" y="0" name="bottom"/>
  <anchor x="239" y="531" name="top"/>
  <outline>
    <contour>
      <point x="384" y="535" type="line"/>
      <point x="249" y="534"/>
      <point x="167" y="439"/>
      <point x="167" y="261" type="curve"/>
      <point x="199" y="257" type="line"/>
      <point x="199" y="361"/>
      <point x="269" y="436"/>
      <point x="384" y="431" type="curve"/>
    </contour>
    <contour>
      <point x="85" y="0" type="line"/>
      <point x="200" y="0" type="line"/>
      <point x="200" y="531" type="line"/>
      <point x="85" y="531" type="line"/>
    </contour>
  </outline>
</glyph>
<glyph name="s" format="2">
  <advance width="940"/>
  <unicode hex="0073"/>
  <anchor x="468" y="0" name="bottom"/>
  <anchor x="482" y="1062" name="top"/>
  <outline>
    <contour>
      <point x="860" y="966" type="line"/>
      <point x="764" y="1032"/>
      <point x="622" y="1072"/>
      <point x="488" y="1072" type="curve" smooth="yes"/>
      <point x="284" y="1072"/>
      <point x="96" y="984"/>
      <point x="96" y="768" type="curve"/>
      <point x="94" y="384"/>
      <point x="654" y="510"/>
      <point x="654" y="284" type="curve"/>
      <point x="654" y="200"/>
      <point x="578" y="164"/>
      <point x="480" y="164" type="curve" smooth="yes"/>
      <point x="364" y="164"/>
      <point x="216" y="214"/>
      <point x="124" y="296" type="curve"/>
      <point x="42" y="140" type="line"/>
      <point x="148" y="44"/>
      <point x="314" y="-8"/>
      <point x="470" y="-8" type="curve" smooth="yes"/>
      <point x="684" y="-8"/>
      <point x="878" y="88"/>
      <point x="878" y="304" type="curve"/>
      <point x="880" y="692"/>
      <point x="314" y="582"/>
      <point x="314" y="784" type="curve"/>
      <point x="314" y="864"/>
      <point x="380" y="896"/>
      <point x="470" y="896" type="curve" smooth="yes"/>
      <point x="564" y="896"/>
      <point x="682" y="860"/>
      <point x="776" y="804" type="curve"/>
    </contour>
  </outline>
</glyph>
<glyph name="t" format="2">
  <advance width="814"/>
  <unicode hex="0074"/>
  <anchor x="510" y="0" name="bottom"/>
  <anchor x="408" y="584" name="center"/>
  <anchor x="326" y="1314" name="top"/>
  <anchor x="564" y="1484" name="topright"/>
  <outline>
    <contour>
      <point x="440" y="1314" type="line"/>
      <point x="212" y="1314" type="line"/>
      <point x="212" y="296" type="line" smooth="yes"/>
      <point x="212" y="78"/>
      <point x="350" y="-10"/>
      <point x="510" y="-10" type="curve" smooth="yes"/>
      <point x="600" y="-10"/>
      <point x="688" y="18"/>
      <point x="772" y="70" type="curve"/>
      <point x="714" y="236" type="line"/>
      <point x="652" y="204"/>
      <point x="602" y="188"/>
      <point x="554" y="188" type="curve" smooth="yes"/>
      <point x="482" y="188"/>
      <point x="440" y="222"/>
      <point x="440" y="336" type="curve" smooth="yes"/>
    </contour>
    <contour>
      <point x="62" y="898" type="line"/>
      <point x="754" y="898" type="line"/>
      <point x="754" y="1062" type="line"/>
      <point x="62" y="1062" type="line"/>
    </contour>
  </outline>
</glyph>
<glyph name="u" format="2">
  <advance width="1306"/>
  <unicode hex="0075"/>
  <anchor x="654" y="0" name="bottom"/>
  <anchor x="1136" y="0" name="ogonek"/>
  <anchor x="654" y="1062" name="top"/>
  <anchor x="1036" y="1062" name="topright"/>
  <outline>
    <contour>
      <point x="366" y="1062" type="line"/>
      <point x="136" y="1062" type="line"/>
      <point x="136" y="402" type="line" smooth="yes"/>
      <point x="136" y="148"/>
      <point x="282" y="-8"/>
      <point x="526" y="-8" type="curve"/>
      <point x="798" y="-6"/>
      <point x="968" y="148"/>
      <point x="968" y="540" type="curve"/>
      <point x="906" y="540" type="line"/>
      <point x="906" y="348"/>
      <point x="798" y="200"/>
      <point x="614" y="196" type="curve"/>
      <point x="460" y="196"/>
      <point x="366" y="296"/>
      <point x="366" y="462" type="curve" smooth="yes"/>
    </contour>
    <contour>
      <point x="906" y="0" type="line"/>
      <point x="1136" y="0" type="line"/>
      <point x="1136" y="1062" type="line"/>
      <point x="906" y="1062" type="line"/>
    </contour>
  </outline>
</glyph>
<glyph name="v" format="2">
  <advance width="525"/>
  <unicode hex="0076"/>
  <outline>
    <contour>
      <point x="207" y="0" type="line"/>
      <point x="326" y="0" type="line"/>
      <point x="530" y="531" type="line"/>
      <point x="415" y="531" type="line"/>
      <point x="269" y="106" type="line"/>
      <point x="121" y="531" type="line"/>
      <point x="1" y="531" type="line"/>
    </contour>
  </outline>
</glyph>
<glyph name="w" format="2">
  <advance width="1786"/>
  <unicode hex="0077"/>
  <anchor x="902" y="1062" name="top"/>
  <outline>
    <contour>
      <point x="394" y="0" type="line"/>
      <point x="630" y="0" type="line"/>
      <point x="900" y="804" type="line"/>
      <point x="1170" y="0" type="line"/>
      <point x="1408" y="0" type="line"/>
      <point x="1796" y="1062" type="line"/>
      <point x="1562" y="1062" type="line"/>
      <point x="1290" y="212" type="line"/>
      <point x="1020" y="1062" type="line"/>
      <point x="782" y="1062" type="line"/>
      <point x="514" y="212" type="line"/>
      <point x="238" y="1062" type="line"/>
      <point x="2" y="1062" type="line"/>
    </contour>
  </outline>
</glyph>
<glyph name="x" format="2">
  <advance width="554"/>
  <unicode hex="0078"/>
  <outline>
    <contour>
      <point x="202" y="272" type="line"/>
      <point x="14" y="0" type="line"/>
      <point x="142" y="0" type="line"/>
      <point x="278" y="199" type="line"/>
      <point x="405" y="0" type="line"/>
      <point x="537" y="0" type="line"/>
      <point x="354" y="272" type="line"/>
      <point x="525" y="531" type="line"/>
      <point x="399" y="531" type="line"/>
      <point x="278" y="345" type="line"/>
      <point x="159" y="531" type="line"/>
      <point x="27" y="531" type="line"/>
    </contour>
  </outline>
</glyph>
<glyph name="y" format="2">
  <advance width="531"/>
  <unicode hex="0079"/>
  <anchor x="416" y="0" name="bottom"/>
  <anchor x="268" y="531" name="top"/>
  <outline>
    <contour>
      <point x="536" y="531" type="line"/>
      <point x="421" y="531" type="line"/>
      <point x="273" y="121" type="line"/>
      <point x="114" y="531" type="line"/>
      <point x="-5" y="531" type="line"/>
      <point x="215" y="7" type="line"/>
      <point x="197" y="-35" type="line" smooth="yes"/>
      <point x="179" y="-76"/>
      <point x="151" y="-96"/>
      <point x="116" y="-96" type="curve" smooth="yes"/>
      <point x="92" y="-96"/>
      <point x="72" y="-88"/>
      <point x="47" y="-70" type="curve"/>
      <point x="-2" y="-155" type="line"/>
      <point x="35" y="-185"/>
      <point x="73" y="-199"/>
      <point x="121" y="-199" type="curve" smooth="yes"/>
      <point x="201" y="-199"/>
      <point x="261" y="-157"/>
      <point x="294" y="-75" type="curve" smooth="yes"/>
    </contour>
  </outline>
</glyph>
<glyph name="z" format="2">
  <advance width="537"/>
  <unicode hex="007A"/>
  <anchor x="272" y="0" name="bottom"/>
  <anchor x="273" y="531" name="top"/>
  <outline>
    <contour>
      <point x="54" y="443" type="line"/>
      <point x="349" y="442" type="line"/>
      <point x="45" y="74" type="line"/>
      <point x="45" y="0" type="line"/>
      <point x="500" y="-1" type="line"/>
      <point x="500" y="88" type="line"/>
      <point x="187" y="88" type="line"/>
      <point x="491" y="456" type="line"/>
      <point x="491" y="530" type="line"/>
      <point x="54" y="531" type="line"/>
    </contour>
  </outline>
</glyph>
<glyph name="braceleft" format="2">
  <advance width="690"/>
  <unicode hex="007B"/>
  <outline>
    <contour>
      <point x="90" y="706" type="line"/>
      <point x="90" y="528" type="line"/>
      <point x="152" y="528" type="line"/>
      <point x="258" y="608" type="line" smooth="yes"/>
      <point x="370" y="692"/>
      <point x="446" y="686"/>
      <point x="446" y="828" type="curve" smooth="yes"/>
      <point x="446" y="1170" type="line" smooth="yes"/>
      <point x="446" y="1270"/>
      <point x="494" y="1312"/>
      <point x="636" y="1312" type="curve"/>
      <point x="636" y="1486" type="line"/>
      <point x="550" y="1486" type="line" smooth="yes"/>
      <point x="326" y="1486"/>
      <point x="238" y="1416"/>
      <point x="238" y="1234" type="curve" smooth="yes"/>
      <point x="238" y="816" type="line" smooth="yes"/>
      <point x="238" y="738"/>
      <point x="212" y="706"/>
      <point x="152" y="706" type="curve" smooth="yes"/>
    </contour>
    <contour>
      <point x="152" y="706" type="line"/>
      <point x="90" y="706" type="line"/>
      <point x="90" y="528" type="line"/>
      <point x="152" y="528" type="line" smooth="yes"/>
      <point x="212" y="528"/>
      <point x="238" y="496"/>
      <point x="238" y="418" type="curve" smooth="yes"/>
      <point x="238" y="0" type="line" smooth="yes"/>
      <point x="238" y="-182"/>
      <point x="326" y="-252"/>
      <point x="550" y="-252" type="curve" smooth="yes"/>
      <point x="636" y="-252" type="line"/>
      <point x="636" y="-78" type="line"/>
      <point x="494" y="-78"/>
      <point x="446" y="-36"/>
      <point x="446" y="64" type="curve" smooth="yes"/>
      <point x="446" y="404" type="line" smooth="yes"/>
      <point x="446" y="548"/>
      <point x="370" y="542"/>
      <point x="258" y="626" type="curve" smooth="yes"/>
    </contour>
  </outline>
</glyph>
<glyph name="bar" format="2">
  <advance width="538"/>
  <unicode hex="007C"/>
  <outline>
    <contour>
      <point x="182" y="-234" type="line"/>
      <point x="356" y="-234" type="line"/>
      <point x="356" y="1622" type="line"/>
      <point x="182" y="1622" type="line"/>
    </contour>
  </outline>
</glyph>
<glyph name="braceright" format="2">
  <advance width="345"/>
  <unicode hex="007D"/>
  <outline>
    <contour>
      <point x="300" y="353" type="line"/>
      <point x="300" y="264" type="line"/>
      <point x="269" y="264" type="line"/>
      <point x="216" y="304" type="line" smooth="yes"/>
      <point x="160" y="346"/>
      <point x="122" y="343"/>
      <point x="122" y="414" type="curve" smooth="yes"/>
      <point x="122" y="585" type="line" smooth="yes"/>
      <point x="122" y="635"/>
      <point x="98" y="656"/>
      <point x="27" y="656" type="curve"/>
      <point x="27" y="743" type="line"/>
      <point x="70" y="743" type="line" smooth="yes"/>
      <point x="182" y="743"/>
      <point x="226" y="708"/>
      <point x="226" y="617" type="curve" smooth="yes"/>
      <point x="226" y="408" type="line" smooth="yes"/>
      <point x="226" y="369"/>
      <point x="239" y="353"/>
      <point x="269" y="353" type="curve" smooth="yes"/>
    </contour>
    <contour>
      <point x="269" y="353" type="line"/>
      <point x="300" y="353" type="line"/>
      <point x="300" y="264" type="line"/>
      <point x="269" y="264" type="line" smooth="yes"/>
      <point x="239" y="264"/>
      <point x="226" y="248"/>
      <point x="226" y="209" type="curve" smooth="yes"/>
      <point x="226" y="0" type="line" smooth="yes"/>
      <point x="226" y="-91"/>
      <point x="182" y="-126"/>
      <point x="70" y="-126" type="curve" smooth="yes"/>
      <point x="27" y="-126" type="line"/>
      <point x="27" y="-39" type="line"/>
      <point x="98" y="-39"/>
      <point x="122" y="-18"/>
      <point x="122" y="32" type="curve" smooth="yes"/>
      <point x="122" y="202" type="line" smooth="yes"/>
      <point x="122" y="274"/>
      <point x="160" y="271"/>
      <point x="216" y="313" type="curve" smooth="yes"/>
    </contour>
  </outline>
</glyph>
<glyph name="asciitilde" format="2">
  <advance width="498"/>
  <unicode hex="007E"/>
  <outline>
    <contour>
      <point x="354" y="386" type="line"/>
      <point x="354" y="352"/>
      <point x="340" y="334"/>
      <point x="315" y="334" type="curve" smooth="yes"/>
      <point x="274" y="334"/>
      <point x="227" y="392"/>
      <point x="163" y="392" type="curve" smooth="yes"/>
      <point x="99" y="392"/>
      <point x="66" y="347"/>
      <point x="66" y="256" type="curve"/>
      <point x="146" y="256" type="line"/>
      <point x="146" y="290"/>
      <point x="159" y="308"/>
      <point x="185" y="308" type="curve" smooth="yes"/>
      <point x="226" y="308"/>
      <point x="268" y="250"/>
      <point x="336" y="250" type="curve" smooth="yes"/>
      <point x="400" y="250"/>
      <point x="433" y="295"/>
      <point x="433" y="386" type="curve"/>
    </contour>
  </outline>
</glyph>
<glyph name="cent" format="2">
  <advance width="1200"/>
  <unicode hex="00A2"/>
  <outline>
    <component base="c"/>
    <contour>
      <point x="524" y="976" type="line"/>
      <point x="698" y="976" type="line"/>
      <point x="698" y="1364" type="line"/>
      <point x="524" y="1364" type="line"/>
    </contour>
    <contour>
      <point x="524" y="-280" type="line"/>
      <point x="698" y="-280" type="line"/>
      <point x="698" y="100" type="line"/>
      <point x="524" y="100" type="line"/>
    </contour>
  </outline>
</glyph>
<glyph name="sterling" format="2">
  <advance width="547"/>
  <unicode hex="00A3"/>
  <outline>
    <contour>
      <point x="37" y="322" type="line"/>
      <point x="414" y="322" type="line"/>
      <point x="414" y="382" type="line"/>
      <point x="37" y="382" type="line"/>
    </contour>
    <contour>
      <point x="333" y="705" type="curve" smooth="yes"/>
      <point x="197" y="705"/>
      <point x="120" y="625"/>
      <point x="120" y="484" type="curve" smooth="yes"/>
      <point x="120" y="39" type="line"/>
      <point x="172" y="91" type="line"/>
      <point x="37" y="91" type="line"/>
      <point x="37" y="0" type="line"/>
      <point x="518" y="0" type="line"/>
      <point x="518" y="91" type="line"/>
      <point x="186" y="91" type="line"/>
      <point x="238" y="39" type="line"/>
      <point x="238" y="482" type="line" smooth="yes"/>
      <point x="238" y="563"/>
      <point x="276" y="605"/>
      <point x="345" y="605" type="curve" smooth="yes"/>
      <point x="394" y="605"/>
      <point x="442" y="578"/>
      <point x="484" y="528" type="curve"/>
      <point x="531" y="614" type="line"/>
      <point x="480" y="672"/>
      <point x="409" y="705"/>
    </contour>
  </outline>
</glyph>
<glyph name="currency" format="2">
  <advance width="711"/>
  <unicode hex="00A4"/>
  <outline>
    <contour>
      <point x="355" y="583" type="curve" smooth="yes"/>
      <point x="208" y="583"/>
      <point x="87" y="465"/>
      <point x="87" y="319" type="curve" smooth="yes"/>
      <point x="87" y="175"/>
      <point x="208" y="57"/>
      <point x="355" y="57" type="curve" smooth="yes"/>
      <point x="504" y="57"/>
      <point x="625" y="175"/>
      <point x="625" y="319" type="curve" smooth="yes"/>
      <point x="625" y="465"/>
      <point x="504" y="583"/>
    </contour>
    <contour>
      <point x="355" y="492" type="curve" smooth="yes"/>
      <point x="454" y="492"/>
      <point x="534" y="414"/>
      <point x="534" y="319" type="curve" smooth="yes"/>
      <point x="534" y="225"/>
      <point x="454" y="148"/>
      <point x="355" y="148" type="curve" smooth="yes"/>
      <point x="258" y="148"/>
      <point x="179" y="225"/>
      <point x="179" y="319" type="curve" smooth="yes"/>
      <point x="179" y="414"/>
      <point x="258" y="492"/>
    </contour>
    <contour>
      <point x="35" y="573" type="line"/>
      <point x="149" y="458" type="line"/>
      <point x="215" y="524" type="line"/>
      <point x="100" y="638" type="line"/>
    </contour>
    <contour>
      <point x="35" y="62" type="line"/>
      <point x="100" y="-3" type="line"/>
      <point x="215" y="111" type="line"/>
      <point x="149" y="177" type="line"/>
    </contour>
    <contour>
      <point x="496" y="524" type="line"/>
      <point x="562" y="458" type="line"/>
      <point x="676" y="573" type="line"/>
      <point x="611" y="638" type="line"/>
    </contour>
    <contour>
      <point x="496" y="111" type="line"/>
      <point x="611" y="-3" type="line"/>
      <point x="676" y="62" type="line"/>
      <point x="562" y="177" type="line"/>
    </contour>
  </outline>
</glyph>
<glyph name="yen" format="2">
  <advance width="635"/>
  <unicode hex="00A5"/>
  <outline>
    <contour>
      <point x="311" y="148" type="line"/>
      <point x="327" y="148" type="line"/>
      <point x="635" y="700" type="line"/>
      <point x="515" y="700" type="line"/>
      <point x="319" y="354" type="line"/>
      <point x="119" y="700" type="line"/>
      <point x="0" y="700" type="line"/>
    </contour>
    <contour>
      <point x="261" y="0" type="line"/>
      <point x="379" y="0" type="line"/>
      <point x="379" y="295" type="line"/>
      <point x="261" y="295" type="line"/>
    </contour>
    <contour>
      <point x="61" y="237" type="line"/>
      <point x="579" y="237" type="line"/>
      <point x="579" y="297" type="line"/>
      <point x="61" y="297" type="line"/>
    </contour>
    <contour>
      <point x="61" y="117" type="line"/>
      <point x="579" y="117" type="line"/>
      <point x="579" y="177" type="line"/>
      <point x="61" y="177" type="line"/>
    </contour>
  </outline>
</glyph>
<glyph name="brokenbar" format="2">
  <advance width="269"/>
  <unicode hex="00A6"/>
  <outline>
    <contour>
      <point x="91" y="465" type="line"/>
      <point x="178" y="465" type="line"/>
      <point x="178" y="811" type="line"/>
      <point x="91" y="811" type="line"/>
    </contour>
    <contour>
      <point x="91" y="-117" type="line"/>
      <point x="178" y="-117" type="line"/>
      <point x="178" y="230" type="line"/>
      <point x="91" y="230" type="line"/>
    </contour>
  </outline>
</glyph>
<glyph name="section" format="2">
  <advance width="499"/>
  <unicode hex="00A7"/>
  <outline>
    <contour>
      <point x="448" y="642" type="line"/>
      <point x="388" y="677"/>
      <point x="324" y="694"/>
      <point x="259" y="694" type="curve" smooth="yes"/>
      <point x="140" y="694"/>
      <point x="63" y="635"/>
      <point x="63" y="552" type="curve" smooth="yes"/>
      <point x="63" y="498"/>
      <point x="88" y="465"/>
      <point x="164" y="434" type="curve"/>
      <point x="89" y="417"/>
      <point x="42" y="371"/>
      <point x="42" y="308" type="curve" smooth="yes"/>
      <point x="42" y="125"/>
      <point x="344" y="176"/>
      <point x="344" y="59" type="curve" smooth="yes"/>
      <point x="344" y="22"/>
      <point x="301" y="-8"/>
      <point x="239" y="-8" type="curve" smooth="yes"/>
      <point x="178" y="-8"/>
      <point x="113" y="16"/>
      <point x="56" y="60" type="curve"/>
      <point x="21" y="-9" type="line"/>
      <point x="81" y="-58"/>
      <point x="161" y="-85"/>
      <point x="242" y="-85" type="curve" smooth="yes"/>
      <point x="365" y="-85"/>
      <point x="447" y="-23"/>
      <point x="447" y="62" type="curve" smooth="yes"/>
      <point x="447" y="120"/>
      <point x="420" y="151"/>
      <point x="360" y="177" type="curve"/>
      <point x="420" y="194"/>
      <point x="468" y="248"/>
      <point x="468" y="306" type="curve" smooth="yes"/>
      <point x="468" y="493"/>
      <point x="163" y="438"/>
      <point x="163" y="556" type="curve" smooth="yes"/>
      <point x="163" y="593"/>
      <point x="201" y="618"/>
      <point x="260" y="618" type="curve" smooth="yes"/>
      <point x="305" y="618"/>
      <point x="358" y="603"/>
      <point x="412" y="573" type="curve"/>
    </contour>
    <contour>
      <point x="242" y="379" type="curve" smooth="yes"/>
      <point x="314" y="379"/>
      <point x="366" y="347"/>
      <point x="366" y="299" type="curve" smooth="yes"/>
      <point x="366" y="260"/>
      <point x="333" y="232"/>
      <point x="269" y="232" type="curve" smooth="yes"/>
      <point x="198" y="232"/>
      <point x="142" y="266"/>
      <point x="142" y="315" type="curve" smooth="yes"/>
      <point x="142" y="354"/>
      <point x="178" y="379"/>
    </contour>
  </outline>
</glyph>
<glyph name="copyright" format="2">
  <advance width="1490"/>
  <unicode hex="00A9"/>
  <outline>
    <contour>
      <point x="1018" y="936" type="line"/>
      <point x="950" y="1002"/>
      <point x="852" y="1042"/>
      <point x="756" y="1042" type="curve" smooth="yes"/>
      <point x="554" y="1042"/>
      <point x="396" y="892"/>
      <point x="396" y="698" type="curve" smooth="yes"/>
      <point x="396" y="502"/>
      <point x="552" y="350"/>
      <point x="752" y="350" type="curve" smooth="yes"/>
      <point x="850" y="350"/>
      <point x="948" y="394"/>
      <point x="1018" y="462" type="curve"/>
      <point x="948" y="536" type="line"/>
      <point x="896" y="486"/>
      <point x="824" y="456"/>
      <point x="758" y="456" type="curve" smooth="yes"/>
      <point x="622" y="456"/>
      <point x="516" y="564"/>
      <point x="516" y="700" type="curve" smooth="yes"/>
      <point x="516" y="834"/>
      <point x="622" y="940"/>
      <point x="758" y="940" type="curve" smooth="yes"/>
      <point x="828" y="940"/>
      <point x="896" y="908"/>
      <point x="948" y="856" type="curve"/>
    </contour>
    <contour>
      <point x="746" y="1378" type="curve" smooth="yes"/>
      <point x="364" y="1378"/>
      <point x="68" y="1066"/>
      <point x="68" y="696" type="curve" smooth="yes"/>
      <point x="68" y="326"/>
      <point x="362" y="18"/>
      <point x="742" y="18" type="curve" smooth="yes"/>
      <point x="1124" y="18"/>
      <point x="1422" y="330"/>
      <point x="1422" y="700" type="curve" smooth="yes"/>
      <point x="1422" y="1072"/>
      <point x="1126" y="1378"/>
    </contour>
    <contour>
      <point x="746" y="1264" type="curve" smooth="yes"/>
      <point x="1064" y="1264"/>
      <point x="1308" y="1010"/>
      <point x="1308" y="700" type="curve" smooth="yes"/>
      <point x="1308" y="390"/>
      <point x="1062" y="132"/>
      <point x="742" y="132" type="curve" smooth="yes"/>
      <point x="424" y="132"/>
      <point x="182" y="386"/>
      <point x="182" y="696" type="curve" smooth="yes"/>
      <point x="182" y="1006"/>
      <point x="426" y="1264"/>
    </contour>
  </outline>
</glyph>
<glyph name="ordfeminine" format="2">
  <advance width="770"/>
  <unicode hex="00AA"/>
  <outline>
    <contour>
      <point x="530" y="1066" type="line"/>
      <point x="530" y="1146" type="line"/>
      <point x="316" y="1146" type="line"/>
      <point x="156" y="1144"/>
      <point x="66" y="1080"/>
      <point x="66" y="966" type="curve" smooth="yes"/>
      <point x="66" y="854"/>
      <point x="148" y="776"/>
      <point x="282" y="776" type="curve" smooth="yes"/>
      <point x="408" y="776"/>
      <point x="496" y="830"/>
      <point x="540" y="934" type="curve"/>
      <point x="512" y="984" type="line"/>
      <point x="476" y="910"/>
      <point x="414" y="880"/>
      <point x="336" y="880" type="curve" smooth="yes"/>
      <point x="264" y="880"/>
      <point x="218" y="920"/>
      <point x="218" y="978" type="curve" smooth="yes"/>
      <point x="218" y="1036"/>
      <point x="266" y="1066"/>
      <point x="348" y="1066" type="curve" smooth="yes"/>
    </contour>
    <contour>
      <point x="512" y="782" type="line"/>
      <point x="670" y="782" type="line"/>
      <point x="670" y="1194" type="line" smooth="yes"/>
      <point x="670" y="1334"/>
      <point x="570" y="1418"/>
      <point x="396" y="1418" type="curve" smooth="yes"/>
      <point x="300" y="1418"/>
      <point x="200" y="1388"/>
      <point x="104" y="1344" type="curve"/>
      <point x="144" y="1236" type="line"/>
      <point x="220" y="1274"/>
      <point x="292" y="1298"/>
      <point x="358" y="1298" type="curve" smooth="yes"/>
      <point x="460" y="1298"/>
      <point x="510" y="1252"/>
      <point x="510" y="1176" type="curve" smooth="yes"/>
    </contour>
  </outline>
</glyph>
<glyph name="logicalnot" format="2">
  <advance width="1122"/>
  <unicode hex="00AC"/>
  <outline>
    <contour>
      <point x="70" y="652" type="line"/>
      <point x="972" y="652" type="line"/>
      <point x="972" y="802" type="line"/>
      <point x="70" y="802" type="line"/>
    </contour>
    <contour>
      <point x="804" y="292" type="line"/>
      <point x="972" y="292" type="line"/>
      <point x="972" y="802" type="line"/>
      <point x="804" y="802" type="line"/>
    </contour>
  </outline>
</glyph>
<glyph name="registered" format="2">
  <advance width="745"/>
  <unicode hex="00AE"/>
  <outline>
    <contour>
      <point x="373" y="689" type="curve" smooth="yes"/>
      <point x="182" y="689"/>
      <point x="34" y="533"/>
      <point x="34" y="348" type="curve" smooth="yes"/>
      <point x="34" y="163"/>
      <point x="181" y="9"/>
      <point x="371" y="9" type="curve" smooth="yes"/>
      <point x="562" y="9"/>
      <point x="711" y="165"/>
      <point x="711" y="350" type="curve" smooth="yes"/>
      <point x="711" y="536"/>
      <point x="563" y="689"/>
    </contour>
    <contour>
      <point x="373" y="632" type="curve" smooth="yes"/>
      <point x="532" y="632"/>
      <point x="654" y="505"/>
      <point x="654" y="350" type="curve" smooth="yes"/>
      <point x="654" y="195"/>
      <point x="531" y="66"/>
      <point x="371" y="66" type="curve" smooth="yes"/>
      <point x="212" y="66"/>
      <point x="91" y="193"/>
      <point x="91" y="348" type="curve" smooth="yes"/>
      <point x="91" y="503"/>
      <point x="213" y="632"/>
    </contour>
    <contour>
      <point x="244" y="529" type="line"/>
      <point x="244" y="188" type="line"/>
      <point x="301" y="188" type="line"/>
      <point x="301" y="292" type="line"/>
      <point x="380" y="292" type="line" smooth="yes"/>
      <point x="468" y="292"/>
      <point x="517" y="337"/>
      <point x="517" y="413" type="curve" smooth="yes"/>
      <point x="517" y="487"/>
      <point x="468" y="529"/>
      <point x="380" y="529" type="curve" smooth="yes"/>
    </contour>
    <contour>
      <point x="301" y="338" type="line"/>
      <point x="301" y="483" type="line"/>
      <point x="380" y="483" type="line" smooth="yes"/>
      <point x="432" y="483"/>
      <point x="463" y="458"/>
      <point x="463" y="412" type="curve" smooth="yes"/>
      <point x="463" y="365"/>
      <point x="432" y="338"/>
      <point x="380" y="338" type="curve" smooth="yes"/>
    </contour>
    <contour>
      <point x="458" y="188" type="line"/>
      <point x="524" y="188" type="line"/>
      <point x="438" y="314" type="line"/>
      <point x="381" y="314" type="line"/>
    </contour>
  </outline>
</glyph>
<glyph name="degree" format="2">
  <advance width="692"/>
  <unicode hex="00B0"/>
  <outline>
    <contour>
      <point x="394" y="1618" type="curve" smooth="yes"/>
      <point x="266" y="1618"/>
      <point x="162" y="1514"/>
      <point x="162" y="1388" type="curve" smooth="yes"/>
      <point x="162" y="1264"/>
      <point x="268" y="1160"/>
      <point x="394" y="1160" type="curve" smooth="yes"/>
      <point x="522" y="1160"/>
      <point x="626" y="1264"/>
      <point x="626" y="1388" type="curve" smooth="yes"/>
      <point x="626" y="1514"/>
      <point x="522" y="1618"/>
    </contour>
    <contour>
      <point x="394" y="1520" type="curve" smooth="yes"/>
      <point x="468" y="1520"/>
      <point x="528" y="1460"/>
      <point x="528" y="1388" type="curve" smooth="yes"/>
      <point x="528" y="1318"/>
      <point x="468" y="1258"/>
      <point x="394" y="1258" type="curve" smooth="yes"/>
      <point x="320" y="1258"/>
      <point x="260" y="1318"/>
      <point x="260" y="1388" type="curve" smooth="yes"/>
      <point x="260" y="1460"/>
      <point x="320" y="1520"/>
    </contour>
  </outline>
</glyph>
<glyph name="paragraph" format="2">
  <advance width="615"/>
  <unicode hex="00B6"/>
  <outline>
    <contour>
      <point x="217" y="-109" type="line"/>
      <point x="304" y="-109" type="line"/>
      <point x="304" y="674" type="line"/>
      <point x="435" y="674" type="line"/>
      <point x="435" y="-109" type="line"/>
      <point x="523" y="-109" type="line"/>
      <point x="523" y="742" type="line"/>
      <point x="224" y="742" type="line"/>
      <point x="62" y="742"/>
      <point x="-1" y="646"/>
      <point x="-1" y="547" type="curve" smooth="yes"/>
      <point x="-1" y="474"/>
      <point x="37" y="360"/>
      <point x="186" y="360" type="curve" smooth="yes"/>
      <point x="196" y="360"/>
      <point x="206" y="360"/>
      <point x="217" y="361" type="curve"/>
    </contour>
  </outline>
</glyph>
<glyph name="ordmasculine" format="2">
  <advance width="407"/>
  <unicode hex="00BA"/>
  <outline>
    <contour>
      <point x="203" y="775" type="curve" smooth="yes"/>
      <point x="100" y="775"/>
      <point x="30" y="711"/>
      <point x="30" y="615" type="curve" smooth="yes"/>
      <point x="30" y="520"/>
      <point x="100" y="456"/>
      <point x="203" y="456" type="curve" smooth="yes"/>
      <point x="306" y="456"/>
      <point x="377" y="520"/>
      <point x="377" y="615" type="curve" smooth="yes"/>
      <point x="377" y="711"/>
      <point x="306" y="775"/>
    </contour>
    <contour>
      <point x="203" y="712" type="curve" smooth="yes"/>
      <point x="257" y="712"/>
      <point x="294" y="673"/>
      <point x="294" y="615" type="curve" smooth="yes"/>
      <point x="294" y="556"/>
      <point x="257" y="517"/>
      <point x="203" y="517" type="curve" smooth="yes"/>
      <point x="149" y="517"/>
      <point x="111" y="556"/>
      <point x="111" y="615" type="curve" smooth="yes"/>
      <point x="111" y="673"/>
      <point x="149" y="712"/>
    </contour>
  </outline>
</glyph>
<glyph name="guillemotright" format="2">
  <advance width="936"/>
  <unicode hex="00BB"/>
  <outline>
    <contour>
      <point x="890" y="520" type="line"/>
      <point x="658" y="864" type="line"/>
      <point x="466" y="864" type="line"/>
      <point x="680" y="520" type="line"/>
      <point x="466" y="174" type="line"/>
      <point x="658" y="174" type="line"/>
    </contour>
    <contour>
      <point x="530" y="520" type="line"/>
      <point x="298" y="864" type="line"/>
      <point x="106" y="864" type="line"/>
      <point x="320" y="520" type="line"/>
      <point x="106" y="174" type="line"/>
      <point x="298" y="174" type="line"/>
    </contour>
  </outline>
</glyph>
<glyph name="onequarter" format="2">
  <advance width="1520"/>
  <unicode hex="00BC"/>
  <outline>
    <contour>
      <point x="74" y="0" type="line"/>
      <point x="256" y="0" type="line"/>
      <point x="1284" y="1400" type="line"/>
      <point x="1104" y="1400" type="line"/>
    </contour>
    <contour>
      <point x="822" y="310" type="line"/>
      <point x="822" y="198" type="line"/>
      <point x="1230" y="198" type="line"/>
      <point x="1230" y="0" type="line"/>
      <point x="1388" y="0" type="line"/>
      <point x="1388" y="198" type="line"/>
      <point x="1510" y="198" type="line"/>
      <point x="1510" y="316" type="line"/>
      <point x="1388" y="316" type="line"/>
      <point x="1388" y="522" type="line"/>
      <point x="1230" y="522" type="line"/>
      <point x="1230" y="316" type="line"/>
      <point x="990" y="316" type="line"/>
      <point x="1268" y="826" type="line"/>
      <point x="1108" y="826" type="line"/>
    </contour>
    <contour>
      <point x="247" y="570" type="line"/>
      <point x="407" y="570" type="line"/>
      <point x="407" y="1395" type="line"/>
      <point x="270" y="1395" type="line"/>
      <point x="38" y="1226" type="line"/>
      <point x="103" y="1113" type="line"/>
      <point x="248" y="1211" type="line"/>
    </contour>
  </outline>
</glyph>
<glyph name="onehalf" format="2">
  <advance width="1584"/>
  <unicode hex="00BD"/>
  <outline>
    <contour>
      <point x="74" y="0" type="line"/>
      <point x="256" y="0" type="line"/>
      <point x="1284" y="1400" type="line"/>
      <point x="1104" y="1400" type="line"/>
    </contour>
    <contour>
      <point x="910" y="108" type="line"/>
      <point x="910" y="0" type="line"/>
      <point x="1532" y="0" type="line"/>
      <point x="1532" y="126" type="line"/>
      <point x="1120" y="126" type="line"/>
      <point x="1336" y="350" type="line"/>
      <point x="1372" y="385"/>
      <point x="1431" y="454"/>
      <point x="1473" y="523"/>
      <point x="1496" y="590"/>
      <point x="1496" y="622" type="qcurve" smooth="yes"/>
      <point x="1496" y="670"/>
      <point x="1455" y="748"/>
      <point x="1382" y="802"/>
      <point x="1280" y="832"/>
      <point x="1218" y="832" type="qcurve" smooth="yes"/>
      <point x="1130" y="832"/>
      <point x="966" y="768"/>
      <point x="892" y="712" type="qcurve"/>
      <point x="958" y="596" type="line"/>
      <point x="1014" y="644"/>
      <point x="1138" y="700"/>
      <point x="1192" y="700" type="qcurve" smooth="yes"/>
      <point x="1254" y="700"/>
      <point x="1322" y="647"/>
      <point x="1322" y="600" type="qcurve" smooth="yes"/>
      <point x="1322" y="567"/>
      <point x="1268" y="476"/>
      <point x="1224" y="432" type="qcurve"/>
    </contour>
    <contour>
      <point x="247" y="570" type="line"/>
      <point x="407" y="570" type="line"/>
      <point x="407" y="1395" type="line"/>
      <point x="270" y="1395" type="line"/>
      <point x="38" y="1226" type="line"/>
      <point x="103" y="1113" type="line"/>
      <point x="248" y="1211" type="line"/>
    </contour>
  </outline>
</glyph>
<glyph name="questiondown" format="2">
  <advance width="1154"/>
  <unicode hex="00BF"/>
  <outline>
    <contour>
      <point x="628" y="-162" type="curve" smooth="yes"/>
      <point x="462" y="-162"/>
      <point x="360" y="-60"/>
      <point x="360" y="60" type="curve" smooth="yes"/>
      <point x="360" y="180"/>
      <point x="462" y="282"/>
      <point x="628" y="282" type="curve"/>
      <point x="612" y="476" type="line"/>
      <point x="606" y="476" type="line"/>
      <point x="318" y="474"/>
      <point x="130" y="264"/>
      <point x="130" y="40" type="curve" smooth="yes"/>
      <point x="130" y="-186"/>
      <point x="320" y="-356"/>
      <point x="612" y="-356" type="curve" smooth="yes"/>
      <point x="850" y="-356"/>
      <point x="1028" y="-270"/>
      <point x="1140" y="-124" type="curve"/>
      <point x="972" y="-6" type="line"/>
      <point x="896" y="-106"/>
      <point x="784" y="-162"/>
    </contour>
    <contour>
      <point x="734" y="608" type="line"/>
      <point x="522" y="608" type="line"/>
      <point x="522" y="282" type="line"/>
      <point x="734" y="282" type="line"/>
    </contour>
    <contour>
      <point x="618" y="1074" type="curve" smooth="yes"/>
      <point x="534" y="1074"/>
      <point x="474" y="1010"/>
      <point x="474" y="932" type="curve" smooth="yes"/>
      <point x="474" y="852"/>
      <point x="534" y="790"/>
      <point x="618" y="790" type="curve" smooth="yes"/>
      <point x="702" y="790"/>
      <point x="762" y="852"/>
      <point x="762" y="932" type="curve" smooth="yes"/>
      <point x="762" y="1010"/>
      <point x="702" y="1074"/>
    </contour>
  </outline>
</glyph>
<glyph name="Aring" format="2">
  <advance width="1476"/>
  <unicode hex="00C5"/>
  <anchor x="730" y="0" name="bottom"/>
  <anchor x="1474" y="0" name="ogonek"/>
  <anchor x="738" y="1842" name="top"/>
  <anchor x="250" y="1400" name="topleft"/>
  <outline>
    <contour>
      <point x="2" y="0" type="line"/>
      <point x="248" y="0" type="line"/>
      <point x="734" y="1162" type="line"/>
      <point x="1222" y="0" type="line"/>
      <point x="1474" y="0" type="line"/>
      <point x="862" y="1400" type="line"/>
      <point x="620" y="1400" type="line"/>
    </contour>
    <contour>
      <point x="310" y="324" type="line"/>
      <point x="1148" y="324" type="line"/>
      <point x="1148" y="524" type="line"/>
      <point x="310" y="524" type="line"/>
    </contour>
    <contour>
      <point x="740" y="1802" type="curve" smooth="yes"/>
      <point x="618" y="1802"/>
      <point x="518" y="1702"/>
      <point x="518" y="1584" type="curve" smooth="yes"/>
      <point x="518" y="1464"/>
      <point x="618" y="1364"/>
      <point x="740" y="1364" type="curve" smooth="yes"/>
      <point x="862" y="1364"/>
      <point x="962" y="1464"/>
      <point x="962" y="1584" type="curve" smooth="yes"/>
      <point x="962" y="1702"/>
      <point x="862" y="1802"/>
    </contour>
    <contour>
      <point x="740" y="1684" type="curve" smooth="yes"/>
      <point x="796" y="1684"/>
      <point x="844" y="1638"/>
      <point x="844" y="1584" type="curve" smooth="yes"/>
      <point x="844" y="1528"/>
      <point x="796" y="1482"/>
      <point x="740" y="1482" type="curve" smooth="yes"/>
      <point x="684" y="1482"/>
      <point x="636" y="1528"/>
      <point x="636" y="1584" type="curve" smooth="yes"/>
      <point x="636" y="1638"/>
      <point x="684" y="1684"/>
    </contour>
  </outline>
</glyph>
<glyph name="AE" format="2">
  <advance width="2102"/>
  <unicode hex="00C6"/>
  <anchor x="1454" y="0" name="bottom"/>
  <anchor x="1990" y="20" name="ogonek"/>
  <anchor x="1250" y="1398" name="top"/>
  <outline>
    <contour>
      <point x="976" y="0" type="line"/>
      <point x="1998" y="0" type="line"/>
      <point x="1998" y="202" type="line"/>
      <point x="1210" y="202" type="line"/>
      <point x="1210" y="604" type="line"/>
      <point x="1896" y="604" type="line"/>
      <point x="1896" y="804" type="line"/>
      <point x="1210" y="804" type="line"/>
      <point x="1210" y="1198" type="line"/>
      <point x="1974" y="1198" type="line"/>
      <point x="1974" y="1400" type="line"/>
      <point x="976" y="1400" type="line"/>
    </contour>
    <contour>
      <point x="2" y="0" type="line"/>
      <point x="248" y="0" type="line"/>
      <point x="928" y="1216" type="line"/>
      <point x="1510" y="1216" type="line"/>
      <point x="1508" y="1400" type="line"/>
      <point x="814" y="1400" type="line"/>
    </contour>
    <contour>
      <point x="372" y="352" type="line"/>
      <point x="1098" y="352" type="line"/>
      <point x="1104" y="528" type="line"/>
      <point x="376" y="528" type="line"/>
    </contour>
  </outline>
</glyph>
<glyph name="Ccedilla" format="2">
  <advance width="697"/>
  <unicode hex="00C7"/>
  <anchor x="369" y="-222" name="bottom"/>
  <anchor x="371" y="531" name="top"/>
  <outline>
    <contour>
      <point x="668" y="599" type="line"/>
      <point x="600" y="666"/>
      <point x="501" y="707"/>
      <point x="402" y="707" type="curve" smooth="yes"/>
      <point x="195" y="707"/>
      <point x="34" y="551"/>
      <point x="34" y="351" type="curve" smooth="yes"/>
      <point x="34" y="164"/>
      <point x="171" y="15"/>
      <point x="355" y="-6" type="curve"/>
      <point x="326" y="-94" type="line"/>
      <point x="358" y="-94" type="line" smooth="yes"/>
      <point x="391" y="-94"/>
      <point x="407" y="-105"/>
      <point x="407" y="-119" type="curve" smooth="yes"/>
      <point x="407" y="-131"/>
      <point x="393" y="-144"/>
      <point x="366" y="-144" type="curve" smooth="yes"/>
      <point x="347" y="-144"/>
      <point x="324" y="-139"/>
      <point x="307" y="-132" type="curve"/>
      <point x="283" y="-197" type="line"/>
      <point x="311" y="-209"/>
      <point x="346" y="-218"/>
      <point x="380" y="-218" type="curve" smooth="yes"/>
      <point x="445" y="-218"/>
      <point x="496" y="-188"/>
      <point x="496" y="-130" type="curve" smooth="yes"/>
      <point x="496" y="-94"/>
      <point x="473" y="-60"/>
      <point x="415" y="-51" type="curve"/>
      <point x="432" y="-6" type="line"/>
      <point x="519" y="3"/>
      <point x="606" y="45"/>
      <point x="669" y="107" type="curve"/>
      <point x="599" y="180" type="line"/>
      <point x="546" y="128"/>
      <point x="474" y="96"/>
      <point x="404" y="96" type="curve" smooth="yes"/>
      <point x="264" y="96"/>
      <point x="154" y="210"/>
      <point x="154" y="352" type="curve" smooth="yes"/>
      <point x="154" y="495"/>
      <point x="264" y="608"/>
      <point x="404" y="608" type="curve" smooth="yes"/>
      <point x="475" y="608"/>
      <point x="548" y="574"/>
      <point x="599" y="518" type="curve"/>
    </contour>
  </outline>
</glyph>
<glyph name="multiply" format="2">
  <advance width="498"/>
  <unicode hex="00D7"/>
  <outline>
    <contour>
      <point x="72" y="200" type="line"/>
      <point x="125" y="147" type="line"/>
      <point x="427" y="448" type="line"/>
      <point x="374" y="502" type="line"/>
    </contour>
    <contour>
      <point x="72" y="448" type="line"/>
      <point x="374" y="147" type="line"/>
      <point x="427" y="200" type="line"/>
      <point x="125" y="502" type="line"/>
    </contour>
  </outline>
</glyph>
<glyph name="Oslash" format="2">
  <advance width="1620"/>
  <unicode hex="00D8"/>
  <anchor x="810" y="0" name="bottom"/>
  <anchor x="810" y="700" name="center"/>
  <anchor x="1212" y="0" name="ogonek"/>
  <anchor x="810" y="1400" name="top"/>
  <anchor x="40" y="1400" name="topleft"/>
  <anchor x="1146" y="1398" name="topright"/>
  <outline>
    <contour>
      <point x="170" y="-110" type="line"/>
      <point x="368" y="-110" type="line"/>
      <point x="1450" y="1510" type="line"/>
      <point x="1250" y="1510" type="line"/>
    </contour>
    <contour>
      <point x="810" y="1406" type="curve" smooth="yes"/>
      <point x="392" y="1406"/>
      <point x="68" y="1100"/>
      <point x="68" y="700" type="curve" smooth="yes"/>
      <point x="68" y="302"/>
      <point x="392" y="-10"/>
      <point x="810" y="-10" type="curve" smooth="yes"/>
      <point x="1228" y="-10"/>
      <point x="1552" y="302"/>
      <point x="1552" y="700" type="curve" smooth="yes"/>
      <point x="1552" y="1098"/>
      <point x="1228" y="1406"/>
    </contour>
    <contour>
      <point x="812" y="1206" type="curve" smooth="yes"/>
      <point x="1086" y="1206"/>
      <point x="1310" y="984"/>
      <point x="1310" y="700" type="curve" smooth="yes"/>
      <point x="1310" y="416"/>
      <point x="1086" y="190"/>
      <point x="812" y="190" type="curve" smooth="yes"/>
      <point x="538" y="190"/>
      <point x="308" y="416"/>
      <point x="308" y="700" type="curve" smooth="yes"/>
      <point x="308" y="984"/>
      <point x="536" y="1206"/>
    </contour>
  </outline>
</glyph>
<glyph name="Thorn" format="2">
  <advance width="678"/>
  <unicode hex="00DE"/>
  <outline>
    <contour>
      <point x="185" y="600" type="line"/>
      <point x="201" y="508" type="line"/>
      <point x="352" y="508" type="line" smooth="yes"/>
      <point x="471" y="508"/>
      <point x="533" y="458"/>
      <point x="533" y="364" type="curve" smooth="yes"/>
      <point x="533" y="266"/>
      <point x="471" y="216"/>
      <point x="352" y="216" type="curve" smooth="yes"/>
      <point x="202" y="216" type="line"/>
      <point x="202" y="124" type="line"/>
      <point x="357" y="124" type="line" smooth="yes"/>
      <point x="547" y="124"/>
      <point x="653" y="211"/>
      <point x="653" y="367" type="curve" smooth="yes"/>
      <point x="653" y="516"/>
      <point x="547" y="600"/>
      <point x="357" y="600" type="curve" smooth="yes"/>
    </contour>
    <contour>
      <point x="92" y="0" type="line"/>
      <point x="210" y="0" type="line"/>
      <point x="210" y="700" type="line"/>
      <point x="92" y="700" type="line"/>
    </contour>
  </outline>
</glyph>
<glyph name="germandbls" format="2">
  <advance width="1308"/>
  <unicode hex="00DF"/>
  <outline>
    <contour>
      <point x="156" y="0" type="line"/>
      <point x="384" y="0" type="line"/>
      <point x="384" y="990" type="line" smooth="yes"/>
      <point x="384" y="1190"/>
      <point x="490" y="1318"/>
      <point x="662" y="1318" type="curve" smooth="yes"/>
      <point x="810" y="1318"/>
      <point x="910" y="1224"/>
      <point x="910" y="1076" type="curve" smooth="yes"/>
      <point x="910" y="922"/>
      <point x="800" y="822"/>
      <point x="628" y="822" type="curve"/>
      <point x="628" y="656" type="line"/>
      <point x="654" y="656" type="line"/>
      <point x="856" y="656"/>
      <point x="988" y="566"/>
      <point x="988" y="412" type="curve" smooth="yes"/>
      <point x="988" y="270"/>
      <point x="876" y="168"/>
      <point x="704" y="168" type="curve" smooth="yes"/>
      <point x="584" y="168" type="line"/>
      <point x="584" y="0" type="line"/>
      <point x="686" y="0" type="line" smooth="yes"/>
      <point x="1006" y="0"/>
      <point x="1212" y="176"/>
      <point x="1212" y="420" type="curve" smooth="yes"/>
      <point x="1212" y="614"/>
      <point x="1080" y="726"/>
      <point x="900" y="762" type="curve"/>
      <point x="1042" y="814"/>
      <point x="1132" y="950"/>
      <point x="1132" y="1108" type="curve" smooth="yes"/>
      <point x="1132" y="1342"/>
      <point x="940" y="1494"/>
      <point x="666" y="1494" type="curve" smooth="yes"/>
      <point x="348" y="1494"/>
      <point x="156" y="1290"/>
      <point x="156" y="974" type="curve" smooth="yes"/>
    </contour>
  </outline>
</glyph>
<glyph name="ae" format="2">
  <advance width="975"/>
  <unicode hex="00E6"/>
  <anchor x="488" y="531" name="top"/>
  <outline>
    <contour>
      <point x="521" y="242" type="line"/>
      <point x="941" y="242" type="line"/>
      <point x="947" y="418"/>
      <point x="841" y="535"/>
      <point x="677" y="535" type="curve" smooth="yes"/>
      <point x="600" y="535"/>
      <point x="534" y="507"/>
      <point x="488" y="455" type="curve"/>
      <point x="452" y="507"/>
      <point x="387" y="535"/>
      <point x="301" y="535" type="curve" smooth="yes"/>
      <point x="228" y="535"/>
      <point x="151" y="513"/>
      <point x="72" y="470" type="curve"/>
      <point x="101" y="392" type="line"/>
      <point x="162" y="428"/>
      <point x="222" y="447"/>
      <point x="277" y="447" type="curve" smooth="yes"/>
      <point x="359" y="447"/>
      <point x="405" y="408"/>
      <point x="405" y="337" type="curve" smooth="yes"/>
      <point x="405" y="304" type="line"/>
      <point x="243" y="304" type="line"/>
      <point x="114" y="303"/>
      <point x="41" y="249"/>
      <point x="41" y="155" type="curve" smooth="yes"/>
      <point x="41" y="59"/>
      <point x="115" y="-5"/>
      <point x="227" y="-5" type="curve" smooth="yes"/>
      <point x="334" y="-5"/>
      <point x="412" y="39"/>
      <point x="454" y="124" type="curve"/>
      <point x="496" y="42"/>
      <point x="577" y="-4"/>
      <point x="680" y="-4" type="curve" smooth="yes"/>
      <point x="769" y="-4"/>
      <point x="846" y="27"/>
      <point x="901" y="86" type="curve"/>
      <point x="839" y="147" type="line"/>
      <point x="800" y="106"/>
      <point x="747" y="84"/>
      <point x="689" y="84" type="curve" smooth="yes"/>
      <point x="600" y="84"/>
      <point x="521" y="151"/>
      <point x="521" y="227" type="curve" smooth="yes"/>
    </contour>
    <contour>
      <point x="405" y="245" type="line"/>
      <point x="406" y="169" type="line"/>
      <point x="375" y="104"/>
      <point x="324" y="72"/>
      <point x="253" y="72" type="curve" smooth="yes"/>
      <point x="190" y="72"/>
      <point x="149" y="109"/>
      <point x="149" y="164" type="curve" smooth="yes"/>
      <point x="149" y="216"/>
      <point x="191" y="245"/>
      <point x="265" y="245" type="curve" smooth="yes"/>
    </contour>
    <contour>
      <point x="521" y="301" type="line"/>
      <point x="532" y="394"/>
      <point x="595" y="455"/>
      <point x="678" y="455" type="curve" smooth="yes"/>
      <point x="763" y="455"/>
      <point x="823" y="393"/>
      <point x="826" y="301" type="curve"/>
    </contour>
  </outline>
</glyph>
<glyph name="ccedilla" format="2">
  <advance width="564"/>
  <unicode hex="00E7"/>
  <anchor x="275" y="-222" name="bottom"/>
  <anchor x="277" y="531" name="top"/>
  <outline>
    <contour>
      <point x="189" y="-197" type="line"/>
      <point x="217" y="-209"/>
      <point x="252" y="-218"/>
      <point x="286" y="-218" type="curve" smooth="yes"/>
      <point x="351" y="-218"/>
      <point x="402" y="-188"/>
      <point x="402" y="-130" type="curve" smooth="yes"/>
      <point x="402" y="-94"/>
      <point x="379" y="-60"/>
      <point x="321" y="-51" type="curve"/>
      <point x="339" y="-2" type="line"/>
      <point x="422" y="5"/>
      <point x="487" y="38"/>
      <point x="529" y="91" type="curve"/>
      <point x="465" y="154" type="line"/>
      <point x="429" y="111"/>
      <point x="375" y="89"/>
      <point x="308" y="89" type="curve" smooth="yes"/>
      <point x="216" y="89"/>
      <point x="150" y="160"/>
      <point x="150" y="265" type="curve" smooth="yes"/>
      <point x="150" y="369"/>
      <point x="216" y="440"/>
      <point x="308" y="440" type="curve" smooth="yes"/>
      <point x="372" y="440"/>
      <point x="423" y="417"/>
      <point x="460" y="379" type="curve"/>
      <point x="523" y="453" type="line"/>
      <point x="474" y="505"/>
      <point x="399" y="535"/>
      <point x="303" y="535" type="curve" smooth="yes"/>
      <point x="145" y="535"/>
      <point x="35" y="425"/>
      <point x="35" y="265" type="curve" smooth="yes"/>
      <point x="35" y="119"/>
      <point x="126" y="16"/>
      <point x="262" y="-1" type="curve"/>
      <point x="232" y="-94" type="line"/>
      <point x="264" y="-94" type="line" smooth="yes"/>
      <point x="297" y="-94"/>
      <point x="313" y="-105"/>
      <point x="313" y="-119" type="curve" smooth="yes"/>
      <point x="313" y="-131"/>
      <point x="299" y="-144"/>
      <point x="272" y="-144" type="curve" smooth="yes"/>
      <point x="253" y="-144"/>
      <point x="230" y="-139"/>
      <point x="213" y="-132" type="curve"/>
    </contour>
  </outline>
</glyph>
<glyph name="eth" format="2">
  <advance width="1180"/>
  <unicode hex="00F0"/>
  <outline>
    <contour>
      <point x="246" y="1392" type="line"/>
      <point x="570" y="1242"/>
      <point x="836" y="982"/>
      <point x="882" y="716" type="curve"/>
      <point x="818" y="820"/>
      <point x="678" y="886"/>
      <point x="526" y="886" type="curve" smooth="yes"/>
      <point x="250" y="886"/>
      <point x="72" y="714"/>
      <point x="72" y="448" type="curve" smooth="yes"/>
      <point x="72" y="170"/>
      <point x="266" y="-10"/>
      <point x="564" y="-10" type="curve" smooth="yes"/>
      <point x="896" y="-10"/>
      <point x="1112" y="200"/>
      <point x="1112" y="524" type="curve" smooth="yes"/>
      <point x="1112" y="912"/>
      <point x="830" y="1292"/>
      <point x="398" y="1494" type="curve"/>
    </contour>
    <contour>
      <point x="578" y="728" type="curve" smooth="yes"/>
      <point x="754" y="728"/>
      <point x="868" y="618"/>
      <point x="868" y="452" type="curve" smooth="yes"/>
      <point x="868" y="288"/>
      <point x="754" y="182"/>
      <point x="578" y="182" type="curve" smooth="yes"/>
      <point x="406" y="182"/>
      <point x="292" y="292"/>
      <point x="292" y="460" type="curve" smooth="yes"/>
      <point x="292" y="624"/>
      <point x="404" y="728"/>
    </contour>
    <contour>
      <point x="272" y="976" type="line"/>
      <point x="1024" y="1320" type="line"/>
      <point x="968" y="1436" type="line"/>
      <point x="216" y="1092" type="line"/>
    </contour>
  </outline>
</glyph>
<glyph name="divide" format="2">
  <advance width="498"/>
  <unicode hex="00F7"/>
  <outline>
    <component base="dotaccentcomb" xScale="0.9" yScale="0.9" xOffset="144" yOffset="-111"/>
    <component base="dotaccentcomb" xScale="0.9" yScale="0.9" xOffset="144" yOffset="-467"/>
    <contour>
      <point x="35" y="286" type="line"/>
      <point x="463" y="286" type="line"/>
      <point x="463" y="362" type="line"/>
      <point x="35" y="362" type="line"/>
    </contour>
  </outline>
</glyph>
<glyph name="oslash" format="2">
  <advance width="1250"/>
  <unicode hex="00F8"/>
  <anchor x="624" y="1060" name="top"/>
  <outline>
    <contour>
      <point x="626" y="1070" type="curve" smooth="yes"/>
      <point x="296" y="1070"/>
      <point x="70" y="852"/>
      <point x="70" y="532" type="curve" smooth="yes"/>
      <point x="70" y="212"/>
      <point x="296" y="-8"/>
      <point x="626" y="-8" type="curve" smooth="yes"/>
      <point x="954" y="-8"/>
      <point x="1180" y="212"/>
      <point x="1180" y="532" type="curve" smooth="yes"/>
      <point x="1180" y="852"/>
      <point x="954" y="1070"/>
    </contour>
    <contour>
      <point x="626" y="900" type="curve" smooth="yes"/>
      <point x="824" y="900"/>
      <point x="964" y="750"/>
      <point x="964" y="530" type="curve" smooth="yes"/>
      <point x="964" y="308"/>
      <point x="824" y="156"/>
      <point x="626" y="156" type="curve" smooth="yes"/>
      <point x="426" y="156"/>
      <point x="288" y="308"/>
      <point x="288" y="530" type="curve" smooth="yes"/>
      <point x="288" y="750"/>
      <point x="426" y="900"/>
    </contour>
    <contour>
      <point x="50" y="-192" type="line"/>
      <point x="214" y="-192" type="line"/>
      <point x="1202" y="1254" type="line"/>
      <point x="1038" y="1254" type="line"/>
    </contour>
  </outline>
</glyph>
<glyph name="thorn" format="2">
  <advance width="680"/>
  <unicode hex="00FE"/>
  <anchor x="148" y="0" name="bottom"/>
  <anchor x="148" y="742" name="top"/>
  <anchor x="266" y="531" name="topright"/>
  <outline>
    <contour>
      <point x="205" y="742" type="line"/>
      <point x="90" y="742" type="line"/>
      <point x="90" y="-194" type="line"/>
      <point x="205" y="-194" type="line"/>
      <point x="205" y="92" type="line"/>
      <point x="244" y="30"/>
      <point x="308" y="-4"/>
      <point x="393" y="-4" type="curve" smooth="yes"/>
      <point x="545" y="-4"/>
      <point x="645" y="105"/>
      <point x="645" y="264" type="curve" smooth="yes"/>
      <point x="645" y="425"/>
      <point x="542" y="535"/>
      <point x="391" y="535" type="curve" smooth="yes"/>
      <point x="308" y="535"/>
      <point x="244" y="501"/>
      <point x="205" y="439" type="curve"/>
    </contour>
    <contour>
      <point x="367" y="444" type="curve" smooth="yes"/>
      <point x="462" y="444"/>
      <point x="529" y="369"/>
      <point x="529" y="267" type="curve" smooth="yes"/>
      <point x="529" y="163"/>
      <point x="462" y="89"/>
      <point x="367" y="89" type="curve" smooth="yes"/>
      <point x="272" y="89"/>
      <point x="205" y="162"/>
      <point x="205" y="267" type="curve" smooth="yes"/>
      <point x="205" y="370"/>
      <point x="272" y="444"/>
    </contour>
  </outline>
</glyph>
<glyph name="Dcroat" format="2">
  <advance width="1550"/>
  <unicode hex="0110"/>
  <anchor x="782" y="0" name="bottom"/>
  <anchor x="390" y="700" name="center"/>
  <anchor x="730" y="1398" name="top"/>
  <outline>
    <contour>
      <point x="40" y="634" type="line"/>
      <point x="816" y="634" type="line"/>
      <point x="816" y="766" type="line"/>
      <point x="40" y="766" type="line"/>
    </contour>
    <contour>
      <point x="184" y="1400" type="line"/>
      <point x="184" y="0" type="line"/>
      <point x="752" y="0" type="line" smooth="yes"/>
      <point x="1176" y="0"/>
      <point x="1482" y="296"/>
      <point x="1482" y="700" type="curve" smooth="yes"/>
      <point x="1482" y="1104"/>
      <point x="1178" y="1400"/>
      <point x="758" y="1400" type="curve" smooth="yes"/>
    </contour>
    <contour>
      <point x="420" y="202" type="line"/>
      <point x="420" y="1198" type="line"/>
      <point x="754" y="1198" type="line" smooth="yes"/>
      <point x="1030" y="1198"/>
      <point x="1244" y="990"/>
      <point x="1244" y="698" type="curve" smooth="yes"/>
      <point x="1244" y="408"/>
      <point x="1036" y="202"/>
      <point x="764" y="202" type="curve" smooth="yes"/>
    </contour>
  </outline>
</glyph>
<glyph name="dcroat" format="2">
  <advance width="681"/>
  <unicode hex="0111"/>
  <outline>
    <contour>
      <point x="273" y="590" type="line"/>
      <point x="662" y="590" type="line"/>
      <point x="662" y="656" type="line"/>
      <point x="273" y="656" type="line"/>
    </contour>
    <contour>
      <point x="284" y="516" type="curve" smooth="yes"/>
      <point x="137" y="516"/>
      <point x="35" y="410"/>
      <point x="35" y="257" type="curve" smooth="yes"/>
      <point x="35" y="102"/>
      <point x="138" y="-5"/>
      <point x="287" y="-5" type="curve" smooth="yes"/>
      <point x="424" y="-5"/>
      <point x="519" y="102"/>
      <point x="519" y="257" type="curve"/>
      <point x="519" y="409"/>
      <point x="422" y="516"/>
    </contour>
    <contour>
      <point x="314" y="423" type="curve" smooth="yes"/>
      <point x="409" y="423"/>
      <point x="477" y="353"/>
      <point x="477" y="254" type="curve" smooth="yes"/>
      <point x="477" y="155"/>
      <point x="409" y="86"/>
      <point x="314" y="86" type="curve" smooth="yes"/>
      <point x="218" y="86"/>
      <point x="150" y="155"/>
      <point x="150" y="254" type="curve" smooth="yes"/>
      <point x="150" y="353"/>
      <point x="218" y="423"/>
    </contour>
    <contour>
      <point x="477" y="0" type="line"/>
      <point x="591" y="0" type="line"/>
      <point x="591" y="742" type="line"/>
      <point x="477" y="742" type="line"/>
    </contour>
  </outline>
</glyph>
<glyph name="Hbar" format="2">
  <advance width="791"/>
  <unicode hex="0126"/>
  <anchor x="395" y="0" name="bottom"/>
  <anchor x="396" y="557" name="center"/>
  <anchor x="400" y="699" name="top"/>
  <outline>
    <contour>
      <point x="1" y="524" type="line"/>
      <point x="791" y="524" type="line"/>
      <point x="791" y="590" type="line"/>
      <point x="1" y="590" type="line"/>
    </contour>
    <contour>
      <point x="92" y="0" type="line"/>
      <point x="210" y="0" type="line"/>
      <point x="210" y="293" type="line"/>
      <point x="581" y="293" type="line"/>
      <point x="581" y="0" type="line"/>
      <point x="699" y="0" type="line"/>
      <point x="699" y="700" type="line"/>
      <point x="581" y="700" type="line"/>
      <point x="581" y="393" type="line"/>
      <point x="210" y="393" type="line"/>
      <point x="210" y="700" type="line"/>
      <point x="92" y="700" type="line"/>
    </contour>
  </outline>
</glyph>
<glyph name="hbar" format="2">
  <advance width="669"/>
  <unicode hex="0127"/>
  <outline>
    <contour>
      <point x="20" y="590" type="line"/>
      <point x="409" y="590" type="line"/>
      <point x="409" y="656" type="line"/>
      <point x="20" y="656" type="line"/>
    </contour>
    <contour>
      <point x="485" y="0" type="line"/>
      <point x="600" y="0" type="line"/>
      <point x="600" y="311" type="line" smooth="yes"/>
      <point x="600" y="438"/>
      <point x="526" y="516"/>
      <point x="402" y="516" type="curve" smooth="yes"/>
      <point x="261" y="516"/>
      <point x="173" y="439"/>
      <point x="173" y="242" type="curve"/>
      <point x="205" y="242" type="line"/>
      <point x="205" y="339"/>
      <point x="262" y="414"/>
      <point x="357" y="414" type="curve" smooth="yes"/>
      <point x="437" y="414"/>
      <point x="485" y="364"/>
      <point x="485" y="281" type="curve" smooth="yes"/>
    </contour>
    <contour>
      <point x="90" y="0" type="line"/>
      <point x="205" y="0" type="line"/>
      <point x="205" y="742" type="line"/>
      <point x="90" y="742" type="line"/>
    </contour>
  </outline>
</glyph>
<glyph name="dotlessi" format="2">
  <advance width="568"/>
  <unicode hex="0131"/>
  <anchor x="398" y="0" name="ogonek"/>
  <anchor x="284" y="1062" name="top"/>
  <outline>
    <contour>
      <point x="170" y="0" type="line"/>
      <point x="398" y="0" type="line"/>
      <point x="398" y="1062" type="line"/>
      <point x="170" y="1062" type="line"/>
    </contour>
  </outline>
</glyph>
<glyph name="kgreenlandic" format="2">
  <advance width="1180"/>
  <unicode hex="0138"/>
  <anchor x="590" y="0" name="bottom"/>
  <anchor x="590" y="1062" name="top"/>
  <outline>
    <contour>
      <point x="170" y="0" type="line"/>
      <point x="398" y="0" type="line"/>
      <point x="398" y="1062" type="line"/>
      <point x="170" y="1062" type="line"/>
    </contour>
    <contour>
      <point x="382" y="556" type="line"/>
      <point x="382" y="282" type="line"/>
      <point x="1134" y="1062" type="line"/>
      <point x="870" y="1062" type="line"/>
    </contour>
    <contour>
      <point x="548" y="546" type="line"/>
      <point x="892" y="0" type="line"/>
      <point x="1164" y="0" type="line"/>
      <point x="718" y="684" type="line"/>
    </contour>
  </outline>
</glyph>
<glyph name="Lslash" format="2">
  <advance width="566"/>
  <unicode hex="0141"/>
  <anchor x="335" y="0" name="bottom"/>
  <anchor x="185" y="700" name="top"/>
  <anchor x="461" y="700" name="topright"/>
  <outline>
    <contour>
      <point x="23" y="270" type="line"/>
      <point x="359" y="447" type="line"/>
      <point x="359" y="514" type="line"/>
      <point x="23" y="337" type="line"/>
    </contour>
    <contour>
      <point x="124" y="0" type="line"/>
      <point x="545" y="0" type="line"/>
      <point x="545" y="100" type="line"/>
      <point x="242" y="100" type="line"/>
      <point x="242" y="700" type="line"/>
      <point x="124" y="700" type="line"/>
    </contour>
  </outline>
</glyph>
<glyph name="lslash" format="2">
  <advance width="776"/>
  <unicode hex="0142"/>
  <outline>
    <component base="l"/>
    <contour>
      <point x="-48" y="512" type="line"/>
      <point x="624" y="866" type="line"/>
      <point x="624" y="1018" type="line"/>
      <point x="-48" y="666" type="line"/>
    </contour>
  </outline>
</glyph>
<glyph name="Eng" format="2">
  <advance width="1584"/>
  <unicode hex="014A"/>
  <anchor x="792" y="0" name="bottom"/>
  <anchor x="792" y="1398" name="top"/>
  <outline>
    <contour>
      <point x="1160" y="40" type="line"/>
      <point x="1160" y="-108"/>
      <point x="1080" y="-188"/>
      <point x="958" y="-188" type="curve" smooth="yes"/>
      <point x="874" y="-188"/>
      <point x="770" y="-150"/>
      <point x="682" y="-74" type="curve"/>
      <point x="570" y="-246" type="line"/>
      <point x="668" y="-348"/>
      <point x="802" y="-406"/>
      <point x="962" y="-406" type="curve" smooth="yes"/>
      <point x="1228" y="-406"/>
      <point x="1398" y="-246"/>
      <point x="1398" y="2" type="curve"/>
    </contour>
    <contour>
      <point x="184" y="0" type="line"/>
      <point x="420" y="0" type="line"/>
      <point x="420" y="1024" type="line"/>
      <point x="1166" y="0" type="line"/>
      <point x="1398" y="0" type="line"/>
      <point x="1398" y="1400" type="line"/>
      <point x="1166" y="1400" type="line"/>
      <point x="1166" y="374" type="line"/>
      <point x="416" y="1400" type="line"/>
      <point x="184" y="1400" type="line"/>
    </contour>
  </outline>
</glyph>
<glyph name="eng" format="2">
  <advance width="1326"/>
  <unicode hex="014B"/>
  <anchor x="672" y="0" name="bottom"/>
  <anchor x="692" y="1062" name="top"/>
  <outline>
    <contour>
      <point x="958" y="-58" type="line"/>
      <point x="958" y="-162"/>
      <point x="902" y="-206"/>
      <point x="832" y="-206" type="curve" smooth="yes"/>
      <point x="788" y="-206"/>
      <point x="738" y="-188"/>
      <point x="696" y="-156" type="curve"/>
      <point x="620" y="-326" type="line"/>
      <point x="682" y="-372"/>
      <point x="762" y="-398"/>
      <point x="842" y="-398" type="curve" smooth="yes"/>
      <point x="1012" y="-398"/>
      <point x="1188" y="-284"/>
      <point x="1188" y="-30" type="curve"/>
      <point x="1188" y="660" type="line"/>
      <point x="1188" y="914"/>
      <point x="1040" y="1070"/>
      <point x="792" y="1070" type="curve"/>
      <point x="510" y="1068"/>
      <point x="334" y="916"/>
      <point x="334" y="522" type="curve"/>
      <point x="398" y="522" type="line"/>
      <point x="398" y="716"/>
      <point x="512" y="864"/>
      <point x="702" y="866" type="curve"/>
      <point x="862" y="866"/>
      <point x="958" y="766"/>
      <point x="958" y="600" type="curve"/>
    </contour>
    <contour>
      <point x="170" y="0" type="line"/>
      <point x="400" y="0" type="line"/>
      <point x="400" y="1062" type="line"/>
      <point x="170" y="1062" type="line"/>
    </contour>
  </outline>
</glyph>
<glyph name="OE" format="2">
  <advance width="1097"/>
  <unicode hex="0152"/>
  <anchor x="772" y="0" name="bottom"/>
  <anchor x="1040" y="10" name="ogonek"/>
  <anchor x="551" y="700" name="top"/>
  <outline>
    <contour>
      <point x="560" y="599" type="line"/>
      <point x="561" y="700" type="line"/>
      <point x="404" y="700" type="line"/>
      <point x="195" y="700"/>
      <point x="34" y="546"/>
      <point x="34" y="350" type="curve" smooth="yes"/>
      <point x="34" y="152"/>
      <point x="196" y="0"/>
      <point x="404" y="0" type="curve"/>
      <point x="568" y="0" type="line"/>
      <point x="569" y="100" type="line"/>
      <point x="405" y="100" type="line"/>
      <point x="264" y="100"/>
      <point x="154" y="207"/>
      <point x="154" y="349" type="curve" smooth="yes"/>
      <point x="154" y="491"/>
      <point x="264" y="599"/>
      <point x="405" y="599" type="curve"/>
    </contour>
    <contour>
      <point x="533" y="0" type="line"/>
      <point x="1045" y="0" type="line"/>
      <point x="1045" y="101" type="line"/>
      <point x="651" y="101" type="line"/>
      <point x="651" y="302" type="line"/>
      <point x="993" y="302" type="line"/>
      <point x="993" y="402" type="line"/>
      <point x="651" y="402" type="line"/>
      <point x="651" y="599" type="line"/>
      <point x="1033" y="599" type="line"/>
      <point x="1033" y="700" type="line"/>
      <point x="533" y="700" type="line"/>
    </contour>
  </outline>
</glyph>
<glyph name="oe" format="2">
  <advance width="1041"/>
  <unicode hex="0153"/>
  <outline>
    <contour>
      <point x="313" y="535" type="curve" smooth="yes"/>
      <point x="148" y="535"/>
      <point x="35" y="426"/>
      <point x="35" y="266" type="curve" smooth="yes"/>
      <point x="35" y="106"/>
      <point x="148" y="-4"/>
      <point x="313" y="-4" type="curve" smooth="yes"/>
      <point x="469" y="-4"/>
      <point x="567" y="106"/>
      <point x="567" y="266" type="curve" smooth="yes"/>
      <point x="567" y="426"/>
      <point x="469" y="535"/>
    </contour>
    <contour>
      <point x="313" y="442" type="curve" smooth="yes"/>
      <point x="408" y="442"/>
      <point x="475" y="369"/>
      <point x="475" y="265" type="curve" smooth="yes"/>
      <point x="475" y="159"/>
      <point x="408" y="87"/>
      <point x="313" y="87" type="curve" smooth="yes"/>
      <point x="217" y="87"/>
      <point x="150" y="159"/>
      <point x="150" y="265" type="curve" smooth="yes"/>
      <point x="150" y="369"/>
      <point x="217" y="442"/>
    </contour>
    <contour>
      <point x="565" y="301" type="line"/>
      <point x="565" y="242" type="line"/>
      <point x="1007" y="242" type="line"/>
      <point x="1012" y="416"/>
      <point x="908" y="535"/>
      <point x="742" y="535" type="curve" smooth="yes"/>
      <point x="591" y="535"/>
      <point x="494" y="425"/>
      <point x="494" y="265" type="curve" smooth="yes"/>
      <point x="494" y="105"/>
      <point x="588" y="-4"/>
      <point x="744" y="-4" type="curve" smooth="yes"/>
      <point x="837" y="-4"/>
      <point x="913" y="29"/>
      <point x="966" y="86" type="curve"/>
      <point x="905" y="147" type="line"/>
      <point x="865" y="106"/>
      <point x="812" y="84"/>
      <point x="754" y="84" type="curve" smooth="yes"/>
      <point x="653" y="84"/>
      <point x="582" y="157"/>
      <point x="582" y="271" type="curve" smooth="yes"/>
      <point x="582" y="377"/>
      <point x="647" y="455"/>
      <point x="743" y="455" type="curve" smooth="yes"/>
      <point x="830" y="455"/>
      <point x="889" y="391"/>
      <point x="892" y="301" type="curve"/>
    </contour>
  </outline>
</glyph>
<glyph name="scedilla" format="2">
  <advance width="470"/>
  <unicode hex="015F"/>
  <anchor x="220" y="-222" name="bottom"/>
  <anchor x="222" y="531" name="top"/>
  <outline>
    <contour>
      <point x="430" y="483" type="line"/>
      <point x="382" y="516"/>
      <point x="311" y="536"/>
      <point x="244" y="536" type="curve" smooth="yes"/>
      <point x="142" y="536"/>
      <point x="48" y="492"/>
      <point x="48" y="384" type="curve"/>
      <point x="47" y="192"/>
      <point x="327" y="255"/>
      <point x="327" y="142" type="curve" smooth="yes"/>
      <point x="327" y="100"/>
      <point x="289" y="82"/>
      <point x="240" y="82" type="curve" smooth="yes"/>
      <point x="182" y="82"/>
      <point x="108" y="107"/>
      <point x="62" y="148" type="curve"/>
      <point x="21" y="70" type="line"/>
      <point x="68" y="28"/>
      <point x="137" y="3"/>
      <point x="206" y="-3" type="curve"/>
      <point x="177" y="-94" type="line"/>
      <point x="209" y="-94" type="line" smooth="yes"/>
      <point x="242" y="-94"/>
      <point x="258" y="-105"/>
      <point x="258" y="-119" type="curve" smooth="yes"/>
      <point x="258" y="-131"/>
      <point x="244" y="-144"/>
      <point x="217" y="-144" type="curve" smooth="yes"/>
      <point x="198" y="-144"/>
      <point x="175" y="-139"/>
      <point x="158" y="-132" type="curve"/>
      <point x="134" y="-197" type="line"/>
      <point x="162" y="-209"/>
      <point x="197" y="-218"/>
      <point x="231" y="-218" type="curve" smooth="yes"/>
      <point x="296" y="-218"/>
      <point x="347" y="-188"/>
      <point x="347" y="-130" type="curve" smooth="yes"/>
      <point x="347" y="-94"/>
      <point x="324" y="-60"/>
      <point x="266" y="-51" type="curve"/>
      <point x="285" y="0" type="line"/>
      <point x="370" y="13"/>
      <point x="439" y="61"/>
      <point x="439" y="152" type="curve" smooth="yes"/>
      <point x="440" y="346"/>
      <point x="157" y="291"/>
      <point x="157" y="392" type="curve" smooth="yes"/>
      <point x="157" y="432"/>
      <point x="190" y="448"/>
      <point x="235" y="448" type="curve" smooth="yes"/>
      <point x="282" y="448"/>
      <point x="341" y="430"/>
      <point x="388" y="402" type="curve"/>
    </contour>
  </outline>
</glyph>
<glyph name="tcedilla" format="2">
  <advance width="814"/>
  <unicode hex="0163"/>
  <anchor x="408" y="584" name="center"/>
  <anchor x="326" y="1314" name="top"/>
  <anchor x="564" y="1484" name="topright"/>
  <anchor x="510" y="10" name="bottom"/>
  <outline>
    <contour>
      <point x="440" y="1314" type="line"/>
      <point x="212" y="1314" type="line"/>
      <point x="212" y="1062" type="line"/>
      <point x="62" y="1062" type="line"/>
      <point x="62" y="898" type="line"/>
      <point x="212" y="898" type="line"/>
      <point x="212" y="296" type="line" smooth="yes"/>
      <point x="212" y="109"/>
      <point x="314" y="17"/>
      <point x="444" y="-5" type="curve"/>
      <point x="396" y="-152" type="line"/>
      <point x="460" y="-152" type="line" smooth="yes"/>
      <point x="526" y="-152"/>
      <point x="558" y="-174"/>
      <point x="558" y="-202" type="curve" smooth="yes"/>
      <point x="558" y="-226"/>
      <point x="530" y="-252"/>
      <point x="476" y="-252" type="curve" smooth="yes"/>
      <point x="438" y="-252"/>
      <point x="392" y="-242"/>
      <point x="358" y="-228" type="curve"/>
      <point x="310" y="-358" type="line"/>
      <point x="366" y="-382"/>
      <point x="436" y="-400"/>
      <point x="504" y="-400" type="curve" smooth="yes"/>
      <point x="634" y="-400"/>
      <point x="736" y="-340"/>
      <point x="736" y="-224" type="curve" smooth="yes"/>
      <point x="736" y="-152"/>
      <point x="690" y="-84"/>
      <point x="574" y="-66" type="curve"/>
      <point x="598" y="-1" type="line"/>
      <point x="657" y="11"/>
      <point x="716" y="35"/>
      <point x="772" y="70" type="curve"/>
      <point x="714" y="236" type="line"/>
      <point x="652" y="204"/>
      <point x="602" y="188"/>
      <point x="554" y="188" type="curve" smooth="yes"/>
      <point x="482" y="188"/>
      <point x="440" y="222"/>
      <point x="440" y="336" type="curve" smooth="yes"/>
      <point x="440" y="898" type="line"/>
      <point x="754" y="898" type="line"/>
      <point x="754" y="1062" type="line"/>
      <point x="440" y="1062" type="line"/>
    </contour>
  </outline>
</glyph>
<glyph name="Schwa" format="2">
  <advance width="780"/>
  <unicode hex="018F"/>
  <outline>
    <contour>
      <point x="391" y="-8" type="curve" smooth="yes"/>
      <point x="591" y="-8"/>
      <point x="746" y="150"/>
      <point x="746" y="351" type="curve" smooth="yes"/>
      <point x="746" y="551"/>
      <point x="591" y="707"/>
      <point x="391" y="707" type="curve" smooth="yes"/>
      <point x="265" y="707"/>
      <point x="175" y="659"/>
      <point x="105" y="581" type="curve"/>
      <point x="190" y="505" type="line"/>
      <point x="236" y="568"/>
      <point x="310" y="607"/>
      <point x="392" y="607" type="curve" smooth="yes"/>
      <point x="514" y="607"/>
      <point x="615" y="510"/>
      <point x="629" y="380" type="curve"/>
      <point x="30" y="380" type="line"/>
      <point x="30" y="154"/>
      <point x="177" y="-8"/>
    </contour>
    <contour>
      <point x="392" y="92" type="curve" smooth="yes"/>
      <point x="273" y="92"/>
      <point x="185" y="168"/>
      <point x="158" y="279" type="curve"/>
      <point x="623" y="279" type="line"/>
      <point x="595" y="168"/>
      <point x="505" y="92"/>
    </contour>
  </outline>
  <guideline angle="0" x="0" y="350"/>
</glyph>
<glyph name="florin" format="2">
  <advance width="744"/>
  <unicode hex="0192"/>
  <outline>
    <contour>
      <point x="-20" y="-398" type="curve" smooth="yes"/>
      <point x="184" y="-400"/>
      <point x="310" y="-268"/>
      <point x="336" y="-62" type="curve" smooth="yes"/>
      <point x="482" y="1138" type="line" smooth="yes"/>
      <point x="496" y="1252"/>
      <point x="570" y="1324"/>
      <point x="668" y="1322" type="curve" smooth="yes"/>
      <point x="714" y="1320"/>
      <point x="770" y="1300"/>
      <point x="810" y="1268" type="curve"/>
      <point x="892" y="1428" type="line"/>
      <point x="828" y="1472"/>
      <point x="728" y="1502"/>
      <point x="636" y="1504" type="curve" smooth="yes"/>
      <point x="432" y="1506"/>
      <point x="284" y="1374"/>
      <point x="258" y="1168" type="curve" smooth="yes"/>
      <point x="112" y="-30" type="line" smooth="yes"/>
      <point x="98" y="-144"/>
      <point x="50" y="-218"/>
      <point x="-44" y="-216" type="curve"/>
      <point x="-86" y="-214"/>
      <point x="-138" y="-194"/>
      <point x="-174" y="-162" type="curve"/>
      <point x="-238" y="-322" type="line"/>
      <point x="-184" y="-366"/>
      <point x="-96" y="-396"/>
    </contour>
    <contour>
      <point x="718" y="776" type="line"/>
      <point x="736" y="928" type="line"/>
      <point x="90" y="928" type="line"/>
      <point x="72" y="776" type="line"/>
    </contour>
  </outline>
</glyph>
<glyph name="Aringacute" format="2">
  <advance width="1476"/>
  <unicode hex="01FA"/>
  <anchor x="730" y="0" name="bottom"/>
  <anchor x="1474" y="0" name="ogonek"/>
  <anchor x="898" y="1968" name="top"/>
  <anchor x="250" y="1400" name="topleft"/>
  <outline>
    <contour>
      <point x="2" y="0" type="line"/>
      <point x="248" y="0" type="line"/>
      <point x="734" y="1162" type="line"/>
      <point x="1222" y="0" type="line"/>
      <point x="1474" y="0" type="line"/>
      <point x="862" y="1400" type="line"/>
      <point x="620" y="1400" type="line"/>
    </contour>
    <contour>
      <point x="310" y="324" type="line"/>
      <point x="1148" y="324" type="line"/>
      <point x="1148" y="524" type="line"/>
      <point x="310" y="524" type="line"/>
    </contour>
    <contour>
      <point x="738" y="1802" type="curve" smooth="yes"/>
      <point x="616" y="1802"/>
      <point x="516" y="1702"/>
      <point x="516" y="1584" type="curve" smooth="yes"/>
      <point x="516" y="1464"/>
      <point x="616" y="1364"/>
      <point x="738" y="1364" type="curve" smooth="yes"/>
      <point x="860" y="1364"/>
      <point x="960" y="1464"/>
      <point x="960" y="1584" type="curve" smooth="yes"/>
      <point x="960" y="1702"/>
      <point x="860" y="1802"/>
    </contour>
    <contour>
      <point x="738" y="1684" type="curve" smooth="yes"/>
      <point x="794" y="1684"/>
      <point x="842" y="1638"/>
      <point x="842" y="1584" type="curve" smooth="yes"/>
      <point x="842" y="1528"/>
      <point x="794" y="1482"/>
      <point x="738" y="1482" type="curve" smooth="yes"/>
      <point x="682" y="1482"/>
      <point x="634" y="1528"/>
      <point x="634" y="1584" type="curve" smooth="yes"/>
      <point x="634" y="1638"/>
      <point x="682" y="1684"/>
    </contour>
    <contour>
      <point x="676" y="1714" type="line"/>
      <point x="844" y="1666" type="line"/>
      <point x="1120" y="1814" type="line"/>
      <point x="924" y="1938" type="line"/>
    </contour>
  </outline>
</glyph>
<glyph name="dotlessj" format="2">
  <advance width="550"/>
  <unicode hex="0237"/>
  <anchor x="282" y="1062" name="top"/>
  <outline>
    <contour>
      <point x="-120" y="-358" type="line"/>
      <point x="-62" y="-382"/>
      <point x="2" y="-394"/>
      <point x="72" y="-396" type="curve"/>
      <point x="276" y="-398"/>
      <point x="398" y="-272"/>
      <point x="398" y="-50" type="curve"/>
      <point x="398" y="1062" type="line"/>
      <point x="168" y="1062" type="line"/>
      <point x="168" y="-18" type="line"/>
      <point x="168" y="-148"/>
      <point x="118" y="-216"/>
      <point x="24" y="-214" type="curve"/>
      <point x="-8" y="-212"/>
      <point x="-38" y="-206"/>
      <point x="-70" y="-194" type="curve"/>
    </contour>
  </outline>
</glyph>
<glyph name="jdotless" format="2">
  <advance width="275"/>
  <unicode hex="0237"/>
  <anchor x="141" y="531" name="top"/>
  <outline>
    <contour>
      <point x="-60" y="-179" type="line"/>
      <point x="-31" y="-191"/>
      <point x="1" y="-197"/>
      <point x="36" y="-198" type="curve"/>
      <point x="138" y="-199"/>
      <point x="199" y="-136"/>
      <point x="199" y="-25" type="curve"/>
      <point x="199" y="531" type="line"/>
      <point x="84" y="531" type="line"/>
      <point x="84" y="-9" type="line"/>
      <point x="84" y="-74"/>
      <point x="59" y="-108"/>
      <point x="12" y="-107" type="curve"/>
      <point x="-4" y="-106"/>
      <point x="-19" y="-103"/>
      <point x="-35" y="-97" type="curve"/>
    </contour>
  </outline>
</glyph>
<glyph name="commaturnedmod" format="2">
  <advance width="416"/>
  <unicode hex="02BB"/>
  <anchor x="316" y="1400" name="_topleft"/>
  <outline>
    <contour>
      <point x="316" y="1400" type="line"/>
      <point x="160" y="1400" type="line"/>
      <point x="100" y="1056" type="line"/>
      <point x="316" y="1010" type="line"/>
    </contour>
  </outline>
</glyph>
<glyph name="apostrophemod" format="2">
  <advance width="152"/>
  <unicode hex="02BC"/>
  <outline>
    <contour>
      <point x="35" y="440" type="line"/>
      <point x="108" y="440" type="line"/>
      <point x="123" y="700" type="line"/>
      <point x="35" y="700" type="line"/>
    </contour>
  </outline>
</glyph>
<glyph name="ringhalfrightmod" format="2">
  <advance width="486"/>
  <unicode hex="02BE"/>
  <outline>
    <contour>
      <point x="128" y="1136" type="line"/>
      <point x="258" y="1136"/>
      <point x="364" y="1242"/>
      <point x="364" y="1368" type="curve" smooth="yes"/>
      <point x="364" y="1494"/>
      <point x="258" y="1600"/>
      <point x="128" y="1600" type="curve"/>
      <point x="128" y="1500" type="line"/>
      <point x="202" y="1500"/>
      <point x="264" y="1440"/>
      <point x="264" y="1368" type="curve" smooth="yes"/>
      <point x="264" y="1296"/>
      <point x="202" y="1236"/>
      <point x="128" y="1236" type="curve"/>
    </contour>
  </outline>
</glyph>
<glyph name="ringhalfleftmod" format="2">
  <advance width="484"/>
  <unicode hex="02BF"/>
  <outline>
    <contour>
      <point x="356" y="1136" type="line"/>
      <point x="226" y="1136"/>
      <point x="120" y="1242"/>
      <point x="120" y="1368" type="curve" smooth="yes"/>
      <point x="120" y="1494"/>
      <point x="226" y="1600"/>
      <point x="356" y="1600" type="curve"/>
      <point x="356" y="1500" type="line"/>
      <point x="282" y="1500"/>
      <point x="220" y="1440"/>
      <point x="220" y="1368" type="curve" smooth="yes"/>
      <point x="220" y="1296"/>
      <point x="282" y="1236"/>
      <point x="356" y="1236" type="curve"/>
    </contour>
  </outline>
</glyph>
<glyph name="verticallinemod" format="2">
  <advance width="123"/>
  <unicode hex="02C8"/>
  <outline>
    <contour>
      <point x="103" y="525" type="line"/>
      <point x="103" y="700" type="line"/>
      <point x="20" y="700" type="line"/>
      <point x="20" y="525" type="line"/>
    </contour>
  </outline>
</glyph>
<glyph name="verticallinelowmod" format="2">
  <advance width="122"/>
  <unicode hex="02CC"/>
  <outline>
    <contour>
      <point x="102" y="-206" type="line"/>
      <point x="102" y="-31" type="line"/>
      <point x="20" y="-31" type="line"/>
      <point x="20" y="-206" type="line"/>
    </contour>
  </outline>
</glyph>
<glyph name="gravecomb" format="2">
  <advance width="564"/>
  <unicode hex="0300"/>
  <anchor x="337" y="531" name="_top"/>
  <anchor x="337" y="710" name="top"/>
  <outline>
    <contour>
      <point x="170" y="706" type="line"/>
      <point x="292" y="610" type="line"/>
      <point x="387" y="620" type="line"/>
      <point x="288" y="755" type="line"/>
    </contour>
  </outline>
</glyph>
<glyph name="acutecomb" format="2">
  <advance width="504"/>
  <unicode hex="0301"/>
  <anchor x="206" y="531" name="_top"/>
  <anchor x="256" y="755" name="top"/>
  <outline>
    <contour>
      <point x="147" y="620" type="line"/>
      <point x="242" y="610" type="line"/>
      <point x="364" y="706" type="line"/>
      <point x="246" y="755" type="line"/>
    </contour>
  </outline>
</glyph>
<glyph name="circumflexcomb" format="2">
  <advance width="700"/>
  <unicode hex="0302"/>
  <anchor x="350" y="1062" name="_top"/>
  <anchor x="350" y="1440" name="top"/>
  <outline>
    <contour>
      <point x="20" y="1230" type="line"/>
      <point x="244" y="1230" type="line"/>
      <point x="418" y="1426" type="line"/>
      <point x="282" y="1426" type="line"/>
      <point x="456" y="1230" type="line"/>
      <point x="680" y="1230" type="line"/>
      <point x="466" y="1506" type="line"/>
      <point x="234" y="1506" type="line"/>
    </contour>
  </outline>
</glyph>
<glyph name="tildecomb" format="2">
  <advance width="780"/>
  <unicode hex="0303"/>
  <anchor x="390" y="1062" name="_top"/>
  <anchor x="390" y="1420" name="top"/>
  <outline>
    <contour>
      <point x="556" y="1468" type="line"/>
      <point x="556" y="1418"/>
      <point x="548" y="1376"/>
      <point x="502" y="1376" type="curve" smooth="yes"/>
      <point x="444" y="1376"/>
      <point x="348" y="1476"/>
      <point x="236" y="1476" type="curve" smooth="yes"/>
      <point x="106" y="1476"/>
      <point x="68" y="1350"/>
      <point x="68" y="1216" type="curve"/>
      <point x="224" y="1216" type="line"/>
      <point x="224" y="1266"/>
      <point x="232" y="1308"/>
      <point x="278" y="1308" type="curve" smooth="yes"/>
      <point x="336" y="1308"/>
      <point x="432" y="1208"/>
      <point x="544" y="1208" type="curve" smooth="yes"/>
      <point x="674" y="1208"/>
      <point x="712" y="1334"/>
      <point x="712" y="1468" type="curve"/>
    </contour>
  </outline>
</glyph>
<glyph name="macroncomb" format="2">
  <advance width="295"/>
  <unicode hex="0304"/>
  <anchor x="148" y="531" name="_top"/>
  <anchor x="148" y="689" name="top"/>
  <outline>
    <contour>
      <point x="0" y="646" type="line"/>
      <point x="295" y="646" type="line"/>
      <point x="295" y="716" type="line"/>
      <point x="0" y="716" type="line"/>
    </contour>
  </outline>
</glyph>
<glyph name="brevecomb" format="2">
  <advance width="700"/>
  <unicode hex="0306"/>
  <anchor x="350" y="1062" name="_top"/>
  <anchor x="350" y="1400" name="top"/>
  <outline>
    <contour>
      <point x="68" y="1496" type="line"/>
      <point x="74" y="1328"/>
      <point x="190" y="1216"/>
      <point x="350" y="1216" type="curve" smooth="yes"/>
      <point x="510" y="1216"/>
      <point x="626" y="1328"/>
      <point x="632" y="1496" type="curve"/>
      <point x="476" y="1496" type="line"/>
      <point x="472" y="1418"/>
      <point x="420" y="1362"/>
      <point x="350" y="1362" type="curve" smooth="yes"/>
      <point x="280" y="1362"/>
      <point x="228" y="1418"/>
      <point x="224" y="1496" type="curve"/>
    </contour>
  </outline>
</glyph>
<glyph name="dotaccentcomb" format="2">
  <advance width="468"/>
  <unicode hex="0307"/>
  <anchor x="234" y="1366" name="_center"/>
  <anchor x="234" y="1062" name="_top"/>
  <anchor x="234" y="1412" name="top"/>
  <outline>
    <contour>
      <point x="234" y="1500" type="curve" smooth="yes"/>
      <point x="158" y="1500"/>
      <point x="100" y="1444"/>
      <point x="100" y="1366" type="curve" smooth="yes"/>
      <point x="100" y="1290"/>
      <point x="158" y="1232"/>
      <point x="234" y="1232" type="curve" smooth="yes"/>
      <point x="310" y="1232"/>
      <point x="368" y="1290"/>
      <point x="368" y="1366" type="curve" smooth="yes"/>
      <point x="368" y="1444"/>
      <point x="310" y="1500"/>
    </contour>
  </outline>
</glyph>
<glyph name="dieresiscomb" format="2">
  <advance width="398"/>
  <unicode hex="0308"/>
  <anchor x="199" y="531" name="_top"/>
  <anchor x="199" y="700" name="top"/>
  <outline>
    <contour>
      <point x="111" y="742" type="curve" smooth="yes"/>
      <point x="76" y="742"/>
      <point x="50" y="717"/>
      <point x="50" y="682" type="curve" smooth="yes"/>
      <point x="50" y="648"/>
      <point x="76" y="621"/>
      <point x="111" y="621" type="curve" smooth="yes"/>
      <point x="145" y="621"/>
      <point x="171" y="648"/>
      <point x="171" y="682" type="curve" smooth="yes"/>
      <point x="171" y="717"/>
      <point x="145" y="742"/>
    </contour>
    <contour>
      <point x="289" y="742" type="curve" smooth="yes"/>
      <point x="254" y="742"/>
      <point x="228" y="717"/>
      <point x="228" y="682" type="curve" smooth="yes"/>
      <point x="228" y="648"/>
      <point x="254" y="621"/>
      <point x="289" y="621" type="curve" smooth="yes"/>
      <point x="323" y="621"/>
      <point x="349" y="648"/>
      <point x="349" y="682" type="curve" smooth="yes"/>
      <point x="349" y="717"/>
      <point x="323" y="742"/>
    </contour>
  </outline>
</glyph>
<glyph name="hookabovecomb" format="2">
  <advance width="512"/>
  <unicode hex="0309"/>
  <anchor x="266" y="1062" name="_top"/>
  <anchor x="266" y="1484" name="top"/>
  <outline>
    <contour>
      <point x="266" y="1568" type="curve" smooth="yes"/>
      <point x="200" y="1568"/>
      <point x="130" y="1548"/>
      <point x="74" y="1510" type="curve"/>
      <point x="146" y="1396" type="line"/>
      <point x="172" y="1414"/>
      <point x="196" y="1420"/>
      <point x="216" y="1420" type="curve" smooth="yes"/>
      <point x="246" y="1420"/>
      <point x="272" y="1398"/>
      <point x="272" y="1368" type="curve" smooth="yes"/>
      <point x="272" y="1326"/>
      <point x="244" y="1260"/>
      <point x="190" y="1206" type="curve"/>
      <point x="314" y="1152" type="line"/>
      <point x="398" y="1226"/>
      <point x="466" y="1326"/>
      <point x="466" y="1406" type="curve" smooth="yes"/>
      <point x="466" y="1516"/>
      <point x="372" y="1568"/>
    </contour>
  </outline>
</glyph>
<glyph name="ringcomb" format="2">
  <advance width="692"/>
  <unicode hex="030A"/>
  <anchor x="346" y="1062" name="_top"/>
  <anchor x="346" y="1506" name="top"/>
  <outline>
    <contour>
      <point x="346" y="1596" type="curve" smooth="yes"/>
      <point x="224" y="1596"/>
      <point x="124" y="1496"/>
      <point x="124" y="1378" type="curve" smooth="yes"/>
      <point x="124" y="1258"/>
      <point x="224" y="1158"/>
      <point x="346" y="1158" type="curve" smooth="yes"/>
      <point x="468" y="1158"/>
      <point x="568" y="1258"/>
      <point x="568" y="1378" type="curve" smooth="yes"/>
      <point x="568" y="1496"/>
      <point x="468" y="1596"/>
    </contour>
    <contour>
      <point x="346" y="1478" type="curve" smooth="yes"/>
      <point x="402" y="1478"/>
      <point x="450" y="1432"/>
      <point x="450" y="1378" type="curve" smooth="yes"/>
      <point x="450" y="1322"/>
      <point x="402" y="1276"/>
      <point x="346" y="1276" type="curve" smooth="yes"/>
      <point x="290" y="1276"/>
      <point x="242" y="1322"/>
      <point x="242" y="1378" type="curve" smooth="yes"/>
      <point x="242" y="1432"/>
      <point x="290" y="1478"/>
    </contour>
  </outline>
</glyph>
<glyph name="hungarumlautcomb" format="2">
  <advance width="446"/>
  <unicode hex="030B"/>
  <anchor x="203" y="531" name="_top"/>
  <anchor x="223" y="762" name="top"/>
  <outline>
    <contour>
      <point x="57" y="619" type="line"/>
      <point x="141" y="610" type="line"/>
      <point x="233" y="718" type="line"/>
      <point x="135" y="762" type="line"/>
    </contour>
    <contour>
      <point x="222" y="619" type="line"/>
      <point x="306" y="610" type="line"/>
      <point x="398" y="718" type="line"/>
      <point x="300" y="762" type="line"/>
    </contour>
  </outline>
</glyph>
<glyph name="dblgravecomb" format="2">
  <advance width="892"/>
  <unicode hex="030F"/>
  <anchor x="518" y="1062" name="_top"/>
  <anchor x="518" y="1422" name="top"/>
  <outline>
    <contour>
      <point x="430" y="1436" type="line"/>
      <point x="614" y="1220" type="line"/>
      <point x="782" y="1238" type="line"/>
      <point x="626" y="1524" type="line"/>
    </contour>
    <contour>
      <point x="100" y="1436" type="line"/>
      <point x="284" y="1220" type="line"/>
      <point x="452" y="1238" type="line"/>
      <point x="296" y="1524" type="line"/>
    </contour>
  </outline>
</glyph>
<glyph name="breveinvertedcomb" format="2">
  <advance width="700"/>
  <unicode hex="0311"/>
  <anchor x="350" y="1062" name="_top"/>
  <anchor x="350" y="1400" name="top"/>
  <outline>
    <contour>
      <point x="224" y="1216" type="line"/>
      <point x="228" y="1294"/>
      <point x="280" y="1350"/>
      <point x="350" y="1350" type="curve" smooth="yes"/>
      <point x="420" y="1350"/>
      <point x="472" y="1294"/>
      <point x="476" y="1216" type="curve"/>
      <point x="632" y="1216" type="line"/>
      <point x="626" y="1384"/>
      <point x="510" y="1496"/>
      <point x="350" y="1496" type="curve" smooth="yes"/>
      <point x="190" y="1496"/>
      <point x="74" y="1384"/>
      <point x="68" y="1216" type="curve"/>
    </contour>
  </outline>
</glyph>
<glyph name="horncomb" format="2">
  <advance width="185"/>
  <unicode hex="031B"/>
  <anchor x="0" y="531" name="_topright"/>
  <outline>
    <contour>
      <point x="39" y="636" type="line"/>
      <point x="69" y="575"/>
      <point x="57" y="531"/>
      <point x="-14" y="531" type="curve"/>
      <point x="-14" y="461" type="line"/>
      <point x="122" y="461"/>
      <point x="178" y="546"/>
      <point x="126" y="667" type="curve"/>
    </contour>
  </outline>
</glyph>
<glyph name="commaaccentcomb" format="2">
  <advance width="212"/>
  <unicode hex="0326"/>
  <anchor x="120" y="0" name="_bottom"/>
  <anchor x="93" y="-204" name="bottom"/>
  <outline>
    <contour>
      <point x="34" y="-219" type="line"/>
      <point x="116" y="-219" type="line"/>
      <point x="174" y="-58" type="line"/>
      <point x="68" y="-58" type="line"/>
    </contour>
  </outline>
  <guideline angle="90" x="117" y="0"/>
</glyph>
<glyph name="cedillacomb" format="2">
  <advance width="311"/>
  <unicode hex="0327"/>
  <anchor x="161" y="0" name="_bottom"/>
  <anchor x="147" y="-222" name="bottom"/>
  <anchor x="149" y="531" name="top"/>
  <outline>
    <contour>
      <point x="104" y="-94" type="line"/>
      <point x="109" y="-94"/>
      <point x="128" y="-94"/>
      <point x="136" y="-94" type="curve" smooth="yes"/>
      <point x="169" y="-94"/>
      <point x="185" y="-105"/>
      <point x="185" y="-119" type="curve" smooth="yes"/>
      <point x="185" y="-131"/>
      <point x="171" y="-144"/>
      <point x="144" y="-144" type="curve" smooth="yes"/>
      <point x="125" y="-144"/>
      <point x="102" y="-139"/>
      <point x="85" y="-132" type="curve"/>
      <point x="61" y="-197" type="line"/>
      <point x="89" y="-209"/>
      <point x="124" y="-218"/>
      <point x="158" y="-218" type="curve" smooth="yes"/>
      <point x="223" y="-218"/>
      <point x="274" y="-188"/>
      <point x="274" y="-130" type="curve" smooth="yes"/>
      <point x="274" y="-94"/>
      <point x="251" y="-60"/>
      <point x="193" y="-51" type="curve"/>
      <point x="212" y="0" type="line"/>
      <point x="137" y="8" type="line"/>
    </contour>
  </outline>
</glyph>
<glyph name="ogonekcomb" format="2">
  <advance width="274"/>
  <unicode hex="0328"/>
  <anchor x="243" y="0" name="_ogonek"/>
  <outline>
    <contour>
      <point x="171" y="36" type="line"/>
      <point x="80" y="-17"/>
      <point x="51" y="-77"/>
      <point x="51" y="-127" type="curve" smooth="yes"/>
      <point x="51" y="-187"/>
      <point x="95" y="-217"/>
      <point x="157" y="-217" type="curve" smooth="yes"/>
      <point x="183" y="-217"/>
      <point x="212" y="-212"/>
      <point x="242" y="-198" type="curve"/>
      <point x="215" y="-127" type="line"/>
      <point x="204" y="-133"/>
      <point x="191" y="-135"/>
      <point x="182" y="-135" type="curve" smooth="yes"/>
      <point x="167" y="-135"/>
      <point x="156" y="-128"/>
      <point x="156" y="-107" type="curve" smooth="yes"/>
      <point x="156" y="-78"/>
      <point x="180" y="-48"/>
      <point x="243" y="0" type="curve"/>
    </contour>
  </outline>
</glyph>
<glyph name="strokeshortcomb" format="2">
  <advance width="366"/>
  <unicode hex="0335"/>
  <anchor x="183" y="441" name="_center"/>
  <outline>
    <contour>
      <point x="10" y="408" type="line"/>
      <point x="356" y="408" type="line"/>
      <point x="356" y="474" type="line"/>
      <point x="10" y="474" type="line"/>
    </contour>
  </outline>
</glyph>
<glyph name="strokelongcomb" format="2">
  <advance width="600"/>
  <unicode hex="0336"/>
  <anchor x="298" y="441" name="_center"/>
  <outline>
    <contour>
      <point x="90" y="408" type="line"/>
      <point x="506" y="408" type="line"/>
      <point x="506" y="474" type="line"/>
      <point x="90" y="474" type="line"/>
    </contour>
  </outline>
</glyph>
<glyph name="slashshortcomb" format="2">
  <advance width="331"/>
  <unicode hex="0337"/>
  <outline>
    <contour>
      <point x="208" y="558" type="line"/>
      <point x="50" y="91" type="line"/>
      <point x="148" y="91" type="line"/>
      <point x="306" y="558" type="line"/>
    </contour>
  </outline>
</glyph>
<glyph name="slashlongcomb" format="2">
  <advance width="662"/>
  <unicode hex="0338"/>
  <outline>
    <contour>
      <point x="234" y="0" type="line"/>
      <point x="738" y="1484" type="line"/>
      <point x="542" y="1484" type="line"/>
      <point x="38" y="0" type="line"/>
    </contour>
  </outline>
</glyph>
<glyph name="tonos" format="2">
  <advance width="177"/>
  <unicode hex="0384"/>
  <anchor x="-39" y="809" name="t.uni0308"/>
  <anchor x="-39" y="0" name="b.uni0324_3"/>
  <anchor x="119" y="0" name="m.uni0328_4"/>
  <outline>
    <contour>
      <point x="3" y="607" type="line"/>
      <point x="46" y="741" type="line"/>
      <point x="168" y="741" type="line"/>
      <point x="90" y="607" type="line"/>
    </contour>
  </outline>
</glyph>
<glyph name="Epsilontonos" format="2">
  <advance width="807"/>
  <unicode hex="0388"/>
  <anchor x="472" y="700" name="t.uni0308"/>
  <anchor x="464" y="0" name="b.uni0324_3"/>
  <anchor x="793" y="0" name="m.uni0328_4"/>
  <outline>
    <contour>
      <point x="342" y="404" type="line"/>
      <point x="696" y="404" type="line"/>
      <point x="696" y="307" type="line"/>
      <point x="342" y="307" type="line"/>
    </contour>
    <contour>
      <point x="351" y="99" type="line"/>
      <point x="753" y="99" type="line"/>
      <point x="753" y="0" type="line"/>
      <point x="237" y="0" type="line"/>
      <point x="237" y="700" type="line"/>
      <point x="739" y="700" type="line"/>
      <point x="739" y="601" type="line"/>
      <point x="351" y="601" type="line"/>
    </contour>
    <contour>
      <point x="18" y="607" type="line"/>
      <point x="61" y="741" type="line"/>
      <point x="183" y="741" type="line"/>
      <point x="105" y="607" type="line"/>
    </contour>
  </outline>
</glyph>
<glyph name="Etatonos" format="2">
  <advance width="1878"/>
  <unicode hex="0389"/>
  <anchor x="1054" y="1400" name="t.uni0308"/>
  <anchor x="1054" y="1188" name="t.uni0307_1"/>
  <anchor x="1054" y="0" name="b.uni0324_3"/>
  <outline>
    <contour>
      <point x="1450" y="1400" type="line"/>
      <point x="1678" y="1400" type="line"/>
      <point x="1678" y="0" type="line"/>
      <point x="1450" y="0" type="line"/>
    </contour>
    <contour>
      <point x="684" y="0" type="line"/>
      <point x="456" y="0" type="line"/>
      <point x="456" y="1400" type="line"/>
      <point x="684" y="1400" type="line"/>
    </contour>
    <contour>
      <point x="1468" y="612" type="line"/>
      <point x="664" y="612" type="line"/>
      <point x="664" y="810" type="line"/>
      <point x="1468" y="810" type="line"/>
    </contour>
    <contour>
      <point x="12" y="1214" type="line"/>
      <point x="98" y="1482" type="line"/>
      <point x="342" y="1482" type="line"/>
      <point x="186" y="1214" type="line"/>
    </contour>
  </outline>
</glyph>
<glyph name="Iotatonos" format="2">
  <advance width="445"/>
  <unicode hex="038A"/>
  <anchor x="320" y="700" name="t.uni0308"/>
  <anchor x="320" y="0" name="b.uni0324_3"/>
  <anchor x="485" y="0" name="m.uni0328_4"/>
  <outline>
    <contour>
      <point x="231" y="0" type="line"/>
      <point x="231" y="700" type="line"/>
      <point x="345" y="700" type="line"/>
      <point x="345" y="0" type="line"/>
    </contour>
    <contour>
      <point x="7" y="607" type="line"/>
      <point x="50" y="741" type="line"/>
      <point x="172" y="741" type="line"/>
      <point x="94" y="607" type="line"/>
    </contour>
  </outline>
</glyph>
<glyph name="Omicrontonos" format="2">
  <advance width="1682"/>
  <unicode hex="038C"/>
  <anchor x="854" y="1400" name="t.uni0308"/>
  <anchor x="854" y="700" name="t.uni0307_1"/>
  <anchor x="1112" y="1400" name="t.uni031B_2"/>
  <anchor x="854" y="0" name="b.uni0324_3"/>
  <anchor x="1162" y="0" name="m.uni0328_4"/>
  <outline>
    <contour>
      <point x="842" y="-18" type="qcurve" smooth="yes"/>
      <point x="680" y="-18"/>
      <point x="406" y="90"/>
      <point x="204" y="284"/>
      <point x="92" y="546"/>
      <point x="92" y="700" type="qcurve" smooth="yes"/>
      <point x="92" y="854"/>
      <point x="204" y="1116"/>
      <point x="406" y="1310"/>
      <point x="680" y="1418"/>
      <point x="842" y="1418" type="qcurve" smooth="yes"/>
      <point x="1004" y="1418"/>
      <point x="1276" y="1312"/>
      <point x="1478" y="1118"/>
      <point x="1590" y="856"/>
      <point x="1590" y="700" type="qcurve" smooth="yes"/>
      <point x="1590" y="544"/>
      <point x="1478" y="282"/>
      <point x="1276" y="88"/>
      <point x="1004" y="-18"/>
    </contour>
    <contour>
      <point x="842" y="186" type="qcurve" smooth="yes"/>
      <point x="954" y="186"/>
      <point x="1142" y="262"/>
      <point x="1282" y="402"/>
      <point x="1360" y="590"/>
      <point x="1360" y="700" type="qcurve" smooth="yes"/>
      <point x="1360" y="812"/>
      <point x="1282" y="998"/>
      <point x="1142" y="1138"/>
      <point x="954" y="1214"/>
      <point x="842" y="1214" type="qcurve" smooth="yes"/>
      <point x="730" y="1214"/>
      <point x="540" y="1138"/>
      <point x="400" y="998"/>
      <point x="322" y="812"/>
      <point x="322" y="700" type="qcurve" smooth="yes"/>
      <point x="322" y="590"/>
      <point x="400" y="402"/>
      <point x="540" y="262"/>
      <point x="730" y="186"/>
    </contour>
    <contour>
      <point x="16" y="1214" type="line"/>
      <point x="102" y="1482" type="line"/>
      <point x="346" y="1482" type="line"/>
      <point x="190" y="1214" type="line"/>
    </contour>
  </outline>
</glyph>
<glyph name="Upsilontonos" format="2">
  <advance width="1776"/>
  <unicode hex="038E"/>
  <anchor x="1222" y="1400" name="t.uni0308"/>
  <anchor x="1204" y="554" name="t.uni0307_1"/>
  <anchor x="1222" y="0" name="b.uni0324_3"/>
  <outline>
    <contour>
      <point x="1008" y="0" type="line"/>
      <point x="1008" y="544" type="line"/>
      <point x="1060" y="404" type="line"/>
      <point x="456" y="1400" type="line"/>
      <point x="700" y="1400" type="line"/>
      <point x="1198" y="578" type="line"/>
      <point x="1062" y="578" type="line"/>
      <point x="1562" y="1400" type="line"/>
      <point x="1788" y="1400" type="line"/>
      <point x="1184" y="404" type="line"/>
      <point x="1236" y="544" type="line"/>
      <point x="1236" y="0" type="line"/>
    </contour>
    <contour>
      <point x="16" y="1214" type="line"/>
      <point x="102" y="1482" type="line"/>
      <point x="346" y="1482" type="line"/>
      <point x="190" y="1214" type="line"/>
    </contour>
  </outline>
</glyph>
<glyph name="Omegatonos" format="2">
  <advance width="1792"/>
  <unicode hex="038F"/>
  <outline>
    <contour>
      <point x="18" y="0" type="line"/>
      <point x="18" y="198" type="line"/>
      <point x="380" y="198" type="line"/>
      <point x="272" y="292"/>
      <point x="150" y="558"/>
      <point x="150" y="722" type="qcurve" smooth="yes"/>
      <point x="150" y="876"/>
      <point x="262" y="1132"/>
      <point x="466" y="1318"/>
      <point x="738" y="1418"/>
      <point x="896" y="1418" type="qcurve" smooth="yes"/>
      <point x="1056" y="1418"/>
      <point x="1326" y="1318"/>
      <point x="1530" y="1132"/>
      <point x="1642" y="876"/>
      <point x="1642" y="722" type="qcurve" smooth="yes"/>
      <point x="1642" y="558"/>
      <point x="1520" y="292"/>
      <point x="1412" y="198" type="qcurve"/>
      <point x="1774" y="198" type="line"/>
      <point x="1774" y="0" type="line"/>
      <point x="1072" y="0" type="line"/>
      <point x="1072" y="184" type="line"/>
      <point x="1238" y="268"/>
      <point x="1412" y="546"/>
      <point x="1412" y="710" type="qcurve" smooth="yes"/>
      <point x="1412" y="822"/>
      <point x="1336" y="1008"/>
      <point x="1200" y="1142"/>
      <point x="1010" y="1214"/>
      <point x="896" y="1214" type="qcurve" smooth="yes"/>
      <point x="782" y="1214"/>
      <point x="592" y="1142"/>
      <point x="456" y="1008"/>
      <point x="380" y="822"/>
      <point x="380" y="710" type="qcurve" smooth="yes"/>
      <point x="380" y="546"/>
      <point x="554" y="266"/>
      <point x="720" y="184" type="qcurve"/>
      <point x="720" y="0" type="line"/>
    </contour>
    <contour>
      <point x="24" y="1214" type="line"/>
      <point x="110" y="1482" type="line"/>
      <point x="354" y="1482" type="line"/>
      <point x="198" y="1214" type="line"/>
    </contour>
  </outline>
</glyph>
<glyph name="iotadieresistonos" format="2">
  <advance width="658"/>
  <unicode hex="0390"/>
  <anchor x="382" y="1124" name="t.uni0308"/>
  <anchor x="382" y="0" name="b.uni0324_3"/>
  <anchor x="698" y="0" name="m.uni0328_4"/>
  <outline>
    <component base="iota" xOffset="40"/>
    <contour>
      <point x="224" y="1482" type="line"/>
      <point x="310" y="1750" type="line"/>
      <point x="554" y="1750" type="line"/>
      <point x="398" y="1482" type="line"/>
    </contour>
    <contour>
      <point x="492" y="1178" type="qcurve" smooth="yes"/>
      <point x="446" y="1178"/>
      <point x="380" y="1240"/>
      <point x="380" y="1290" type="qcurve" smooth="yes"/>
      <point x="380" y="1340"/>
      <point x="446" y="1402"/>
      <point x="492" y="1402" type="qcurve" smooth="yes"/>
      <point x="538" y="1402"/>
      <point x="604" y="1340"/>
      <point x="604" y="1290" type="qcurve" smooth="yes"/>
      <point x="604" y="1240"/>
      <point x="538" y="1178"/>
    </contour>
    <contour>
      <point x="112" y="1178" type="qcurve" smooth="yes"/>
      <point x="66" y="1178"/>
      <point x="0" y="1240"/>
      <point x="0" y="1290" type="qcurve" smooth="yes"/>
      <point x="0" y="1340"/>
      <point x="66" y="1402"/>
      <point x="112" y="1402" type="qcurve" smooth="yes"/>
      <point x="158" y="1402"/>
      <point x="224" y="1340"/>
      <point x="224" y="1290" type="qcurve" smooth="yes"/>
      <point x="224" y="1240"/>
      <point x="158" y="1178"/>
    </contour>
  </outline>
</glyph>
<glyph name="Alpha" format="2">
  <advance width="1480"/>
  <unicode hex="0391"/>
  <anchor x="858" y="1400" name="t.uni0308"/>
  <anchor x="858" y="0" name="b.uni0324_3"/>
  <anchor x="1778" y="0" name="m.uni0328_4"/>
  <outline>
    <contour>
      <point x="-6" y="0" type="line"/>
      <point x="626" y="1400" type="line"/>
      <point x="852" y="1400" type="line"/>
      <point x="1486" y="0" type="line"/>
      <point x="1246" y="0" type="line"/>
      <point x="692" y="1274" type="line"/>
      <point x="784" y="1274" type="line"/>
      <point x="230" y="0" type="line"/>
    </contour>
    <contour>
      <point x="274" y="336" type="line"/>
      <point x="336" y="520" type="line"/>
      <point x="1108" y="520" type="line"/>
      <point x="1172" y="336" type="line"/>
    </contour>
  </outline>
</glyph>
<glyph name="Beta" format="2">
  <advance width="1518"/>
  <unicode hex="0392"/>
  <anchor x="768" y="1400" name="t.uni0308"/>
  <anchor x="768" y="0" name="b.uni0324_3"/>
  <outline>
    <contour>
      <point x="200" y="0" type="line"/>
      <point x="200" y="1400" type="line"/>
      <point x="842" y="1400" type="line" smooth="yes"/>
      <point x="1088" y="1400"/>
      <point x="1350" y="1204"/>
      <point x="1350" y="1036" type="qcurve" smooth="yes"/>
      <point x="1350" y="924"/>
      <point x="1248" y="766"/>
      <point x="1082" y="682"/>
      <point x="988" y="682" type="qcurve"/>
      <point x="1024" y="748" type="line"/>
      <point x="1136" y="748"/>
      <point x="1316" y="664"/>
      <point x="1422" y="500"/>
      <point x="1422" y="380" type="qcurve" smooth="yes"/>
      <point x="1422" y="200"/>
      <point x="1150" y="0"/>
      <point x="882" y="0" type="qcurve" smooth="yes"/>
    </contour>
    <contour>
      <point x="428" y="186" type="line"/>
      <point x="870" y="186" type="line" smooth="yes"/>
      <point x="1026" y="186"/>
      <point x="1192" y="288"/>
      <point x="1192" y="400" type="qcurve" smooth="yes"/>
      <point x="1192" y="512"/>
      <point x="1026" y="616"/>
      <point x="870" y="616" type="qcurve" smooth="yes"/>
      <point x="410" y="616" type="line"/>
      <point x="410" y="802" type="line"/>
      <point x="818" y="802" type="line" smooth="yes"/>
      <point x="962" y="802"/>
      <point x="1120" y="904"/>
      <point x="1120" y="1008" type="qcurve" smooth="yes"/>
      <point x="1120" y="1112"/>
      <point x="962" y="1214"/>
      <point x="818" y="1214" type="qcurve" smooth="yes"/>
      <point x="428" y="1214" type="line"/>
    </contour>
  </outline>
</glyph>
<glyph name="Gamma" format="2">
  <advance width="1162"/>
  <unicode hex="0393"/>
  <anchor x="618" y="1400" name="t.uni0308"/>
  <outline>
    <contour>
      <point x="208" y="0" type="line"/>
      <point x="208" y="1400" type="line"/>
      <point x="1142" y="1400" type="line"/>
      <point x="1140" y="1202" type="line"/>
      <point x="378" y="1202" type="line"/>
      <point x="432" y="1258" type="line"/>
      <point x="434" y="0" type="line"/>
    </contour>
  </outline>
</glyph>
<glyph name="Delta" format="2">
  <advance width="738"/>
  <unicode hex="0394"/>
  <outline>
    <contour>
      <point x="1" y="0" type="line"/>
      <point x="124" y="0" type="line"/>
      <point x="367" y="581" type="line"/>
      <point x="611" y="0" type="line"/>
      <point x="737" y="0" type="line"/>
      <point x="431" y="700" type="line"/>
      <point x="310" y="700" type="line"/>
    </contour>
    <contour>
      <point x="101" y="0" type="line"/>
      <point x="629" y="0" type="line"/>
      <point x="629" y="87" type="line"/>
      <point x="101" y="87" type="line"/>
    </contour>
  </outline>
</glyph>
<glyph name="Epsilon" format="2">
  <advance width="1340"/>
  <unicode hex="0395"/>
  <anchor x="670" y="1400" name="t.uni0308"/>
  <anchor x="654" y="0" name="b.uni0324_3"/>
  <anchor x="1312" y="0" name="m.uni0328_4"/>
  <outline>
    <contour>
      <point x="410" y="808" type="line"/>
      <point x="1118" y="808" type="line"/>
      <point x="1118" y="614" type="line"/>
      <point x="410" y="614" type="line"/>
    </contour>
    <contour>
      <point x="428" y="198" type="line"/>
      <point x="1232" y="198" type="line"/>
      <point x="1232" y="0" type="line"/>
      <point x="200" y="0" type="line"/>
      <point x="200" y="1400" type="line"/>
      <point x="1204" y="1400" type="line"/>
      <point x="1204" y="1202" type="line"/>
      <point x="428" y="1202" type="line"/>
    </contour>
  </outline>
</glyph>
<glyph name="Eta" format="2">
  <advance width="1622"/>
  <unicode hex="0397"/>
  <anchor x="798" y="1400" name="t.uni0308"/>
  <anchor x="798" y="1188" name="t.uni0307_1"/>
  <anchor x="798" y="0" name="b.uni0324_3"/>
  <outline>
    <contour>
      <point x="1194" y="1400" type="line"/>
      <point x="1422" y="1400" type="line"/>
      <point x="1422" y="0" type="line"/>
      <point x="1194" y="0" type="line"/>
    </contour>
    <contour>
      <point x="428" y="0" type="line"/>
      <point x="200" y="0" type="line"/>
      <point x="200" y="1400" type="line"/>
      <point x="428" y="1400" type="line"/>
    </contour>
    <contour>
      <point x="1212" y="612" type="line"/>
      <point x="408" y="612" type="line"/>
      <point x="408" y="810" type="line"/>
      <point x="1212" y="810" type="line"/>
    </contour>
  </outline>
</glyph>
<glyph name="Iota" format="2">
  <advance width="314"/>
  <unicode hex="0399"/>
  <anchor x="189" y="700" name="t.uni0308"/>
  <anchor x="189" y="0" name="b.uni0324_3"/>
  <anchor x="354" y="0" name="m.uni0328_4"/>
  <outline>
    <contour>
      <point x="100" y="0" type="line"/>
      <point x="100" y="700" type="line"/>
      <point x="214" y="700" type="line"/>
      <point x="214" y="0" type="line"/>
    </contour>
  </outline>
</glyph>
<glyph name="Kappa" format="2">
  <advance width="724"/>
  <unicode hex="039A"/>
  <anchor x="390" y="700" name="t.uni0308"/>
  <anchor x="390" y="0" name="b.uni0324_3"/>
  <outline>
    <contour>
      <point x="201" y="167" type="line"/>
      <point x="195" y="306" type="line"/>
      <point x="577" y="700" type="line"/>
      <point x="707" y="700" type="line"/>
      <point x="401" y="376" type="line"/>
      <point x="337" y="305" type="line"/>
    </contour>
    <contour>
      <point x="100" y="0" type="line"/>
      <point x="100" y="700" type="line"/>
      <point x="214" y="700" type="line"/>
      <point x="214" y="0" type="line"/>
    </contour>
    <contour>
      <point x="592" y="0" type="line"/>
      <point x="314" y="326" type="line"/>
      <point x="390" y="411" type="line"/>
      <point x="726" y="0" type="line"/>
    </contour>
  </outline>
</glyph>
<glyph name="Lambda" format="2">
  <advance width="740"/>
  <unicode hex="039B"/>
  <anchor x="429" y="700" name="t.uni0308"/>
  <anchor x="429" y="0" name="b.uni0324_3"/>
  <anchor x="889" y="0" name="m.uni0328_4"/>
  <outline>
    <contour>
      <point x="-3" y="0" type="line"/>
      <point x="313" y="700" type="line"/>
      <point x="426" y="700" type="line"/>
      <point x="743" y="0" type="line"/>
      <point x="623" y="0" type="line"/>
      <point x="346" y="637" type="line"/>
      <point x="392" y="637" type="line"/>
      <point x="115" y="0" type="line"/>
    </contour>
  </outline>
</glyph>
<glyph name="Mu" format="2">
  <advance width="955"/>
  <unicode hex="039C"/>
  <anchor x="475" y="700" name="t.uni0308"/>
  <anchor x="475" y="0" name="b.uni0324_3"/>
  <outline>
    <contour>
      <point x="100" y="0" type="line"/>
      <point x="100" y="700" type="line"/>
      <point x="194" y="700" type="line"/>
      <point x="504" y="181" type="line"/>
      <point x="454" y="181" type="line"/>
      <point x="760" y="700" type="line"/>
      <point x="854" y="700" type="line"/>
      <point x="855" y="0" type="line"/>
      <point x="745" y="0" type="line"/>
      <point x="744" y="526" type="line"/>
      <point x="769" y="526" type="line"/>
      <point x="503" y="82" type="line"/>
      <point x="451" y="82" type="line"/>
      <point x="182" y="526" type="line"/>
      <point x="210" y="526" type="line"/>
      <point x="210" y="0" type="line"/>
    </contour>
  </outline>
</glyph>
<glyph name="Nu" format="2">
  <advance width="1622"/>
  <unicode hex="039D"/>
  <anchor x="798" y="1400" name="t.uni0308"/>
  <anchor x="798" y="0" name="b.uni0324_3"/>
  <outline>
    <contour>
      <point x="200" y="0" type="line"/>
      <point x="200" y="1400" type="line"/>
      <point x="388" y="1400" type="line"/>
      <point x="1290" y="288" type="line"/>
      <point x="1194" y="288" type="line"/>
      <point x="1194" y="1400" type="line"/>
      <point x="1422" y="1400" type="line"/>
      <point x="1422" y="0" type="line"/>
      <point x="1234" y="0" type="line"/>
      <point x="332" y="1112" type="line"/>
      <point x="428" y="1112" type="line"/>
      <point x="428" y="0" type="line"/>
    </contour>
  </outline>
</glyph>
<glyph name="Xi" format="2">
  <advance width="1660"/>
  <unicode hex="039E"/>
  <anchor x="894" y="1400" name="t.uni0308"/>
  <anchor x="884" y="0" name="b.uni0324_3"/>
  <outline>
    <contour>
      <point x="380" y="614" type="line"/>
      <point x="380" y="808" type="line"/>
      <point x="1280" y="808" type="line"/>
      <point x="1280" y="614" type="line"/>
    </contour>
    <contour>
      <point x="200" y="0" type="line"/>
      <point x="200" y="196" type="line"/>
      <point x="1460" y="196" type="line"/>
      <point x="1460" y="0" type="line"/>
    </contour>
    <contour>
      <point x="230" y="1202" type="line"/>
      <point x="230" y="1400" type="line"/>
      <point x="1430" y="1400" type="line"/>
      <point x="1430" y="1202" type="line"/>
    </contour>
  </outline>
</glyph>
<glyph name="Omicron" format="2">
  <advance width="1682"/>
  <unicode hex="039F"/>
  <anchor x="854" y="1400" name="t.uni0308"/>
  <anchor x="854" y="700" name="t.uni0307_1"/>
  <anchor x="1112" y="1400" name="t.uni031B_2"/>
  <anchor x="854" y="0" name="b.uni0324_3"/>
  <anchor x="1162" y="0" name="m.uni0328_4"/>
  <outline>
    <contour>
      <point x="842" y="-18" type="qcurve" smooth="yes"/>
      <point x="680" y="-18"/>
      <point x="406" y="90"/>
      <point x="204" y="284"/>
      <point x="92" y="546"/>
      <point x="92" y="700" type="qcurve" smooth="yes"/>
      <point x="92" y="854"/>
      <point x="204" y="1116"/>
      <point x="406" y="1310"/>
      <point x="680" y="1418"/>
      <point x="842" y="1418" type="qcurve" smooth="yes"/>
      <point x="1004" y="1418"/>
      <point x="1276" y="1312"/>
      <point x="1478" y="1118"/>
      <point x="1590" y="856"/>
      <point x="1590" y="700" type="qcurve" smooth="yes"/>
      <point x="1590" y="544"/>
      <point x="1478" y="282"/>
      <point x="1276" y="88"/>
      <point x="1004" y="-18"/>
    </contour>
    <contour>
      <point x="842" y="186" type="qcurve" smooth="yes"/>
      <point x="954" y="186"/>
      <point x="1142" y="262"/>
      <point x="1282" y="402"/>
      <point x="1360" y="590"/>
      <point x="1360" y="700" type="qcurve" smooth="yes"/>
      <point x="1360" y="812"/>
      <point x="1282" y="998"/>
      <point x="1142" y="1138"/>
      <point x="954" y="1214"/>
      <point x="842" y="1214" type="qcurve" smooth="yes"/>
      <point x="730" y="1214"/>
      <point x="540" y="1138"/>
      <point x="400" y="998"/>
      <point x="322" y="812"/>
      <point x="322" y="700" type="qcurve" smooth="yes"/>
      <point x="322" y="590"/>
      <point x="400" y="402"/>
      <point x="540" y="262"/>
      <point x="730" y="186"/>
    </contour>
  </outline>
</glyph>
<glyph name="Pi" format="2">
  <advance width="1638"/>
  <unicode hex="03A0"/>
  <outline>
    <contour>
      <point x="208" y="0" type="line"/>
      <point x="208" y="1400" type="line"/>
      <point x="1430" y="1400" type="line"/>
      <point x="1430" y="0" type="line"/>
      <point x="1204" y="0" type="line"/>
      <point x="1204" y="1260" type="line"/>
      <point x="1258" y="1202" type="line"/>
      <point x="380" y="1202" type="line"/>
      <point x="434" y="1260" type="line"/>
      <point x="434" y="0" type="line"/>
    </contour>
  </outline>
</glyph>
<glyph name="Rho" format="2">
  <advance width="724"/>
  <unicode hex="03A1"/>
  <outline>
    <contour>
      <point x="100" y="0" type="line"/>
      <point x="100" y="700" type="line"/>
      <point x="380" y="700" type="line" smooth="yes"/>
      <point x="472" y="700"/>
      <point x="604" y="641"/>
      <point x="675" y="530"/>
      <point x="675" y="453" type="qcurve" smooth="yes"/>
      <point x="675" y="377"/>
      <point x="604" y="266"/>
      <point x="472" y="207"/>
      <point x="380" y="207" type="qcurve" smooth="yes"/>
      <point x="163" y="207" type="line"/>
      <point x="214" y="261" type="line"/>
      <point x="214" y="0" type="line"/>
    </contour>
    <contour>
      <point x="214" y="249" type="line"/>
      <point x="163" y="306" type="line"/>
      <point x="376" y="306" type="line" smooth="yes"/>
      <point x="467" y="306"/>
      <point x="560" y="383"/>
      <point x="560" y="453" type="qcurve" smooth="yes"/>
      <point x="560" y="524"/>
      <point x="467" y="601"/>
      <point x="376" y="601" type="qcurve" smooth="yes"/>
      <point x="163" y="601" type="line"/>
      <point x="214" y="658" type="line"/>
    </contour>
  </outline>
</glyph>
<glyph name="Sigma" format="2">
  <advance width="626"/>
  <unicode hex="03A3"/>
  <anchor x="475" y="700" name="t.uni0308"/>
  <anchor x="475" y="0" name="b.uni0324_3"/>
  <outline>
    <contour>
      <point x="568" y="0" type="line"/>
      <point x="42" y="0" type="line"/>
      <point x="42" y="94" type="line"/>
      <point x="306" y="377" type="line"/>
      <point x="306" y="327" type="line"/>
      <point x="42" y="606" type="line"/>
      <point x="42" y="700" type="line"/>
      <point x="568" y="701" type="line"/>
      <point x="568" y="591" type="line"/>
      <point x="181" y="590" type="line"/>
      <point x="181" y="615" type="line"/>
      <point x="412" y="376" type="line"/>
      <point x="412" y="324" type="line"/>
      <point x="181" y="82" type="line"/>
      <point x="181" y="110" type="line"/>
      <point x="568" y="110" type="line"/>
    </contour>
  </outline>
</glyph>
<glyph name="Tau" format="2">
  <advance width="594"/>
  <unicode hex="03A4"/>
  <anchor x="350" y="700" name="t.uni0308"/>
  <anchor x="350" y="295" name="t.uni0307_1"/>
  <anchor x="350" y="0" name="b.uni0324_3"/>
  <outline>
    <contour>
      <point x="240" y="0" type="line"/>
      <point x="240" y="601" type="line"/>
      <point x="4" y="601" type="line"/>
      <point x="4" y="700" type="line"/>
      <point x="590" y="700" type="line"/>
      <point x="590" y="601" type="line"/>
      <point x="354" y="601" type="line"/>
      <point x="354" y="0" type="line"/>
    </contour>
  </outline>
</glyph>
<glyph name="Upsilon" format="2">
  <advance width="654"/>
  <unicode hex="03A5"/>
  <anchor x="377" y="700" name="t.uni0308"/>
  <anchor x="368" y="277" name="t.uni0307_1"/>
  <anchor x="377" y="0" name="b.uni0324_3"/>
  <outline>
    <contour>
      <point x="270" y="0" type="line"/>
      <point x="270" y="272" type="line"/>
      <point x="296" y="202" type="line"/>
      <point x="-6" y="700" type="line"/>
      <point x="116" y="700" type="line"/>
      <point x="365" y="289" type="line"/>
      <point x="297" y="289" type="line"/>
      <point x="547" y="700" type="line"/>
      <point x="660" y="700" type="line"/>
      <point x="358" y="202" type="line"/>
      <point x="384" y="272" type="line"/>
      <point x="384" y="0" type="line"/>
    </contour>
  </outline>
</glyph>
<glyph name="Phi" format="2">
  <advance width="865"/>
  <unicode hex="03A6"/>
  <outline>
    <contour>
      <point x="419" y="46" type="qcurve" smooth="yes"/>
      <point x="289" y="46"/>
      <point x="106" y="118"/>
      <point x="9" y="254"/>
      <point x="9" y="351" type="qcurve" smooth="yes"/>
      <point x="9" y="449"/>
      <point x="106" y="585"/>
      <point x="289" y="657"/>
      <point x="419" y="657" type="qcurve" smooth="yes"/>
      <point x="421" y="657"/>
      <point x="434" y="657"/>
      <point x="447" y="657"/>
      <point x="448" y="657" type="qcurve"/>
      <point x="578" y="657"/>
      <point x="760" y="585"/>
      <point x="856" y="448"/>
      <point x="856" y="351" type="qcurve" smooth="yes"/>
      <point x="856" y="255"/>
      <point x="761" y="118"/>
      <point x="581" y="46"/>
      <point x="453" y="46" type="qcurve" smooth="yes"/>
      <point x="451" y="46"/>
      <point x="436" y="46"/>
      <point x="421" y="46"/>
    </contour>
    <contour>
      <point x="431" y="135" type="qcurve" smooth="yes"/>
      <point x="433" y="135"/>
      <point x="440" y="135"/>
      <point x="441" y="135" type="qcurve"/>
      <point x="540" y="136"/>
      <point x="676" y="185"/>
      <point x="746" y="281"/>
      <point x="746" y="352" type="qcurve" smooth="yes"/>
      <point x="746" y="423"/>
      <point x="675" y="518"/>
      <point x="540" y="567"/>
      <point x="443" y="567" type="qcurve"/>
      <point x="442" y="567"/>
      <point x="433" y="567"/>
      <point x="431" y="567" type="qcurve" smooth="yes"/>
      <point x="330" y="567"/>
      <point x="191" y="519"/>
      <point x="120" y="423"/>
      <point x="120" y="351" type="qcurve" smooth="yes"/>
      <point x="120" y="279"/>
      <point x="194" y="183"/>
      <point x="333" y="135"/>
    </contour>
    <contour>
      <point x="380" y="-27" type="line"/>
      <point x="380" y="727" type="line"/>
      <point x="486" y="727" type="line"/>
      <point x="486" y="-27" type="line"/>
    </contour>
  </outline>
</glyph>
<glyph name="Chi" format="2">
  <advance width="1366"/>
  <unicode hex="03A7"/>
  <outline>
    <contour>
      <point x="22" y="0" type="line"/>
      <point x="608" y="804" type="line"/>
      <point x="608" y="628" type="line"/>
      <point x="52" y="1400" type="line"/>
      <point x="312" y="1400" type="line"/>
      <point x="740" y="812" type="line"/>
      <point x="634" y="810" type="line"/>
      <point x="1060" y="1400" type="line"/>
      <point x="1308" y="1400" type="line"/>
      <point x="756" y="640" type="line"/>
      <point x="756" y="808" type="line"/>
      <point x="1344" y="0" type="line"/>
      <point x="1080" y="0" type="line"/>
      <point x="628" y="626" type="line"/>
      <point x="730" y="626" type="line"/>
      <point x="284" y="0" type="line"/>
    </contour>
  </outline>
</glyph>
